<svg width="98" height="92" viewBox="0 0 98 92" fill="none" xmlns="http://www.w3.org/2000/svg">
<g id="icon-&#232;&#174;&#190;&#229;&#164;&#135;">
<g id="Group">
<g id="Group_2">
<g id="Group_3" opacity="0.4">
<path id="Vector" d="M93.3558 58.8707C99.5307 62.2579 99.5307 67.7371 93.4605 71.1242L60.2836 89.4546C54.2134 92.8417 44.2708 92.8417 38.0959 89.4546L4.70975 71.1242C-1.46512 67.7371 -1.46513 62.2579 4.60509 58.8707L37.782 40.5404C43.8522 37.1532 53.7948 37.1532 59.9696 40.5404L93.3558 58.8707Z" fill="#00357C" fill-opacity="0.4"/>
</g>
<g id="Group_4">
<path id="Vector_2" d="M97.9607 55.6875H0V58.975C0 61.1667 1.56988 63.3584 4.60498 65.0519L37.9912 83.3823C44.166 86.7695 54.1086 86.7695 60.1789 83.3823L93.3557 65.0519C96.3908 63.3584 97.9607 61.1667 97.9607 58.975V55.6875Z" fill="url(#paint0_linear_1491_1678)"/>
<g id="Group_5">
<path id="Vector_3" d="M93.3553 49.5231C99.5302 52.9102 99.5302 58.3894 93.46 61.7766L60.2831 80.1069C54.2129 83.4941 44.2703 83.4941 38.0954 80.1069L4.70927 61.7766C-1.46561 58.3894 -1.46561 52.9102 4.6046 49.5231L37.7815 31.1927C43.8517 27.8056 53.7943 27.8056 59.9692 31.1927L93.3553 49.5231Z" fill="#F3F8FE"/>
</g>
</g>
</g>
<g id="Group_6">
<path id="Vector_4" d="M81.6335 43.9297H16.2217V56.0835C16.2217 57.5778 17.2683 59.0722 19.3614 60.168L41.6538 72.4215C45.7355 74.7128 52.4337 74.7128 56.5153 72.4215L78.703 60.168C80.6915 59.0722 81.7381 57.5778 81.7381 56.0835V43.9297H81.6335Z" fill="url(#paint1_linear_1491_1678)"/>
<path id="Vector_5" d="M69.7026 41.1379C72.5284 42.7319 72.633 45.322 69.7026 46.8164L54.213 55.3838C51.3873 56.9778 46.6776 56.9778 43.8518 55.3838L28.2576 46.8164C25.4319 45.2224 25.3272 42.7319 28.2576 41.1379L43.7472 32.5705C46.5729 30.9765 51.2826 30.9765 54.1084 32.5705L69.7026 41.1379Z" fill="url(#paint2_linear_1491_1678)"/>
<path id="Vector_6" d="M84.0408 39.1597C88.8551 41.8495 88.9598 46.1333 84.1455 48.8231L57.8761 63.3678C53.0618 66.0576 45.2124 66.0576 40.2934 63.3678L13.9194 48.8231C9.10506 46.1333 9.0004 41.8495 13.9194 39.1597L40.1887 24.615C45.003 21.9252 52.8525 21.9252 57.7714 24.615L84.0408 39.1597Z" stroke="#1CCDFF" stroke-width="0.5" stroke-miterlimit="10"/>
<path id="Vector_7" d="M69.7026 43.134C72.5284 44.728 72.633 47.3181 69.7026 48.8125L54.213 57.3799C51.3873 58.9739 46.6776 58.9739 43.8518 57.3799L28.2576 48.8125C25.4319 47.2185 25.3272 44.728 28.2576 43.134L43.7472 34.5666C46.5729 32.9726 51.2826 32.9726 54.1084 34.5666L69.7026 43.134Z" fill="#226193"/>
<path id="Vector_8" d="M78.5992 39.9446L56.3069 27.6911C52.2252 25.3998 45.527 25.3998 41.55 27.6911L19.3623 39.9446C15.2806 42.2359 15.2806 45.8223 19.3623 48.1136L41.6546 60.367C45.7363 62.6583 52.4345 62.6583 56.5162 60.367L78.7039 48.1136C82.6809 45.8223 82.6809 42.1363 78.5992 39.9446ZM69.7032 46.8185L54.2137 55.3859C51.3879 56.9799 46.6783 56.9799 43.8525 55.3859L28.2583 46.8185C25.4325 45.2245 25.3279 42.734 28.2583 41.1401L43.7478 32.5726C46.5736 30.9787 51.2833 30.9787 54.109 32.5726L69.7032 41.1401C72.529 42.734 72.529 45.2245 69.7032 46.8185Z" fill="#BCD0F1"/>
<g id="Group_7">
<path id="Vector_9" d="M48.8755 26V26.4981C51.5967 26.4981 54.1085 27.0958 55.9923 28.0921L78.2847 40.3455C80.0639 41.3417 81.1105 42.6368 81.1105 44.0315C81.1105 45.4262 80.1685 46.7213 78.2847 47.6179L56.097 59.8714C54.2132 60.9672 51.7013 61.4653 48.9802 61.4653C46.2591 61.4653 43.7473 60.8676 41.8634 59.8714L19.5711 47.6179C17.7919 46.6217 16.7453 45.3266 16.7453 43.9319C16.7453 42.5372 17.6872 41.2421 19.5711 40.2459L41.7587 27.9924C43.6426 26.8966 46.1544 26.3985 48.8755 26.3985V26ZM48.8755 26C46.1544 26 43.5379 26.5977 41.4448 27.6936L19.2571 39.947C15.1754 42.2383 15.1754 45.8247 19.2571 48.116L41.5494 60.3695C43.6426 61.4653 46.2591 62.063 48.9802 62.063C51.7013 62.063 54.3178 61.4653 56.411 60.3695L78.5987 48.116C82.6804 45.8247 82.6804 42.2383 78.494 39.947L56.2017 27.6936C54.2131 26.4981 51.492 26 48.8755 26Z" fill="url(#paint3_linear_1491_1678)"/>
</g>
<path id="Vector_10" d="M75.3549 12.4527L55.4697 1.49432C51.8066 -0.498108 45.9457 -0.498108 42.2827 1.49432L22.5021 12.4527C20.7229 13.4489 19.781 14.744 19.781 16.1387L26.0605 43.9331C26.0605 44.9294 26.7932 46.0252 28.2584 46.8222L43.8525 55.3896C46.6783 56.9836 51.388 56.9836 54.2138 55.3896L69.7033 46.8222C71.1685 46.0252 71.7965 45.029 71.7965 43.9331L78.076 16.1387C78.076 14.8436 77.1341 13.4489 75.3549 12.4527Z" fill="url(#paint4_linear_1491_1678)"/>
<g id="Group_8">
<g id="Group_9">
<path id="Vector_11" d="M29.9321 33.5743C30.1055 33.5743 30.2461 33.4405 30.2461 33.2754C30.2461 33.1104 30.1055 32.9766 29.9321 32.9766C29.7587 32.9766 29.6182 33.1104 29.6182 33.2754C29.6182 33.4405 29.7587 33.5743 29.9321 33.5743Z" fill="white"/>
<path id="Vector_12" d="M59.3418 35.6758C59.5152 35.6758 59.6558 35.5421 59.6558 35.377C59.6558 35.2119 59.5152 35.0781 59.3418 35.0781C59.1684 35.0781 59.0278 35.2119 59.0278 35.377C59.0278 35.5421 59.1684 35.6758 59.3418 35.6758Z" fill="white"/>
<path id="Vector_13" d="M65.7251 32.1876C65.8985 32.1876 66.0391 32.0538 66.0391 31.8887C66.0391 31.7237 65.8985 31.5898 65.7251 31.5898C65.5517 31.5898 65.4111 31.7237 65.4111 31.8887C65.4111 32.0538 65.5517 32.1876 65.7251 32.1876Z" fill="white"/>
<path id="Vector_14" d="M39.4566 44.629C39.63 44.629 39.7705 44.4952 39.7705 44.3301C39.7705 44.1651 39.63 44.0312 39.4566 44.0312C39.2832 44.0312 39.1426 44.1651 39.1426 44.3301C39.1426 44.4952 39.2832 44.629 39.4566 44.629Z" fill="white"/>
<path id="Vector_15" d="M60.2835 22.3243C60.4569 22.3243 60.5974 22.1905 60.5974 22.0254C60.5974 21.8604 60.4569 21.7266 60.2835 21.7266C60.1101 21.7266 59.9695 21.8604 59.9695 22.0254C59.9695 22.1905 60.1101 22.3243 60.2835 22.3243Z" fill="white"/>
<path id="Vector_16" d="M33.3862 22.6134C33.5596 22.6134 33.7002 22.4796 33.7002 22.3145C33.7002 22.1494 33.5596 22.0156 33.3862 22.0156C33.2128 22.0156 33.0723 22.1494 33.0723 22.3145C33.0723 22.4796 33.2128 22.6134 33.3862 22.6134Z" fill="white"/>
<path id="Vector_17" d="M43.2241 16.0469C43.3975 16.0469 43.5381 15.9131 43.5381 15.7481C43.5381 15.583 43.3975 15.4492 43.2241 15.4492C43.0507 15.4492 42.9102 15.583 42.9102 15.7481C42.9102 15.9131 43.0507 16.0469 43.2241 16.0469Z" fill="white"/>
</g>
<g id="Group_10">
<path id="&#231;&#159;&#169;&#229;&#189;&#162;_32_4_" opacity="0.4" d="M28.4676 30.8906H28.8863C28.9909 30.8906 29.0956 30.9902 29.0956 31.0899V42.9448C29.0956 43.0445 28.9909 43.1441 28.8863 43.1441H28.4676C28.363 43.1441 28.2583 43.0445 28.2583 42.9448V31.0899C28.2583 30.9902 28.363 30.8906 28.4676 30.8906Z" fill="url(#paint5_linear_1491_1678)"/>
<path id="&#231;&#159;&#169;&#229;&#189;&#162;_32_3_" opacity="0.4" d="M69.0753 26.8125H69.4939C69.5986 26.8125 69.7032 26.9121 69.7032 27.0117V38.8667C69.7032 38.9663 69.5986 39.066 69.4939 39.066H69.0753C68.9706 39.066 68.866 38.9663 68.866 38.8667V27.0117C68.866 26.9121 68.9706 26.8125 69.0753 26.8125Z" fill="url(#paint6_linear_1491_1678)"/>
<path id="&#231;&#159;&#169;&#229;&#189;&#162;_32_2_" opacity="0.4" d="M40.6078 34.7891H41.0264C41.131 34.7891 41.2357 34.8887 41.2357 34.9883V46.8433C41.2357 46.9429 41.131 47.0425 41.0264 47.0425H40.6078C40.5031 47.0425 40.3984 46.9429 40.3984 46.8433V34.9883C40.5031 34.8887 40.5031 34.7891 40.6078 34.7891Z" fill="url(#paint7_linear_1491_1678)"/>
<path id="&#231;&#159;&#169;&#229;&#189;&#162;_32_1_" opacity="0.4" d="M40.6078 18.7422H41.0264C41.131 18.7422 41.2357 18.8418 41.2357 18.9414V30.7964C41.2357 30.896 41.131 30.9957 41.0264 30.9957H40.6078C40.5031 30.9957 40.3984 30.896 40.3984 30.7964V18.9414C40.5031 18.8418 40.5031 18.7422 40.6078 18.7422Z" fill="url(#paint8_linear_1491_1678)"/>
</g>
</g>
<g id="Group_11">
<g id="Group_12">
<path id="Vector_18" d="M76.7146 58.0784L75.982 57.6799C75.8774 57.5803 75.7727 57.3811 75.7727 57.1818C75.7727 56.6837 76.1913 56.086 76.61 55.7871C76.8193 55.6875 77.0286 55.6875 77.2379 55.6875L77.9705 56.086L76.7146 58.0784Z" fill="url(#paint9_linear_1491_1678)"/>
<g id="Group_13">
<path id="Vector_19" d="M77.7764 57.4176C78.0927 56.8927 78.1052 56.334 77.8044 56.1697C77.5036 56.0055 77.0033 56.2979 76.687 56.8229C76.3707 57.3479 76.3581 57.9066 76.6589 58.0708C76.9598 58.235 77.4601 57.9426 77.7764 57.4176Z" fill="#1CCDFF"/>
</g>
<g id="Group_14">
<path id="Vector_20" d="M77.5961 57.319C77.7974 56.9849 77.798 56.6253 77.5974 56.5158C77.3969 56.4063 77.0711 56.5884 76.8698 56.9225C76.6686 57.2565 76.6679 57.6161 76.8685 57.7256C77.069 57.8351 77.3948 57.653 77.5961 57.319Z" fill="#1CCDFF"/>
</g>
</g>
<g id="Group_15">
<path id="Vector_21" d="M73.262 59.8753L72.5294 59.4768C72.4247 59.3772 72.3201 59.1779 72.3201 58.9787C72.3201 58.4806 72.7387 57.8829 73.1573 57.584C73.3666 57.4844 73.576 57.4844 73.7853 57.4844L74.5179 57.8829L73.262 59.8753Z" fill="url(#paint10_linear_1491_1678)"/>
<g id="Group_16">
<path id="Vector_22" d="M74.4072 59.234C74.7236 58.7091 74.7361 58.1504 74.4353 57.9862C74.1345 57.8219 73.6342 58.1143 73.3179 58.6393C73.0015 59.1643 72.989 59.723 73.2898 59.8872C73.5906 60.0515 74.0909 59.759 74.4072 59.234Z" fill="#1CCDFF"/>
</g>
<g id="Group_17">
<path id="Vector_23" d="M74.226 59.1393C74.4273 58.8052 74.4279 58.4456 74.2273 58.3361C74.0268 58.2266 73.701 58.4087 73.4997 58.7428C73.2984 59.0768 73.2978 59.4364 73.4984 59.5459C73.6989 59.6554 74.0247 59.4733 74.226 59.1393Z" fill="#FFE200"/>
</g>
</g>
</g>
</g>
<g id="Group_18">
<g id="Group_19">
<g id="Group_20">
<g id="Group_21">
<path id="Vector_24" d="M49.424 25.7504V33.8215L42.0293 29.786L42.1279 21.7148L49.424 25.7504Z" fill="url(#paint11_linear_1491_1678)"/>
</g>
<g id="Group_22">
<path id="Vector_25" d="M49.4243 25.7504L56.819 21.7148V29.786L49.4243 33.8215V25.7504Z" fill="url(#paint12_linear_1491_1678)"/>
</g>
<g id="Group_23">
<path id="Vector_26" d="M42.1289 21.7074L49.425 17.6719L56.8197 21.7074L49.425 25.743L42.1289 21.7074Z" fill="url(#paint13_linear_1491_1678)"/>
</g>
</g>
<g id="Group_24">
<g id="Group_25">
<path id="Vector_27" d="M40.1547 30.9223V38.9934L32.76 34.9579V26.8867L40.1547 30.9223Z" fill="url(#paint14_linear_1491_1678)"/>
</g>
<g id="Group_26">
<path id="Vector_28" d="M40.1553 30.9223L47.4514 26.8867V34.9579L40.1553 38.9934V30.9223Z" fill="url(#paint15_linear_1491_1678)"/>
</g>
<g id="Group_27">
<path id="Vector_29" d="M32.76 26.8793L40.0561 22.8438L47.4508 26.8793L40.1547 30.9149L32.76 26.8793Z" fill="url(#paint16_linear_1491_1678)"/>
</g>
</g>
<g id="Group_28">
<g id="Group_29">
<path id="Vector_30" d="M58.7921 30.9223V38.9934L51.3975 34.9579V26.8867L58.7921 30.9223Z" fill="url(#paint17_linear_1491_1678)"/>
</g>
<g id="Group_30">
<path id="Vector_31" d="M58.791 30.9223L66.0871 26.8867V34.9579L58.791 38.9934V30.9223Z" fill="url(#paint18_linear_1491_1678)"/>
</g>
<g id="Group_31">
<path id="Vector_32" d="M51.3975 26.8793L58.7921 22.8438L66.0882 26.8793L58.7921 30.9149L51.3975 26.8793Z" fill="url(#paint19_linear_1491_1678)"/>
</g>
</g>
<g id="Group_32">
<g id="Group_33">
<path id="Vector_33" d="M49.4247 36.0863V44.1575L42.03 40.1219L42.1286 32.0508L49.4247 36.0863Z" fill="url(#paint20_linear_1491_1678)"/>
</g>
<g id="Group_34">
<path id="Vector_34" d="M49.4248 36.0863L56.8195 32.0508V40.1219L49.4248 44.1575V36.0863Z" fill="url(#paint21_linear_1491_1678)"/>
</g>
<g id="Group_35">
<path id="Vector_35" d="M42.1289 32.0434L49.425 28.0078L56.8197 32.0434L49.425 36.0789L42.1289 32.0434Z" fill="url(#paint22_linear_1491_1678)"/>
</g>
</g>
</g>
<g id="Group_36">
<g id="Group_37">
<g id="Group_38">
<path id="Vector_36" d="M49.424 15.5279V23.599L42.0293 19.4696L42.1279 11.3984L49.424 15.5279Z" fill="url(#paint23_linear_1491_1678)"/>
</g>
<g id="Group_39">
<path id="Vector_37" d="M49.4243 15.5279L56.819 11.3984V19.4696L49.4243 23.599V15.5279Z" fill="url(#paint24_linear_1491_1678)"/>
</g>
<g id="Group_40">
<path id="Vector_38" d="M42.1277 11.391L49.4238 7.35547L56.8184 11.391L49.4238 15.5205L42.1277 11.391Z" fill="url(#paint25_linear_1491_1678)"/>
</g>
</g>
<g id="Group_41">
<g id="Group_42">
<path id="Vector_39" d="M40.1547 20.5903V28.6614L32.76 24.6258V16.5547L40.1547 20.5903Z" fill="url(#paint26_linear_1491_1678)"/>
</g>
<g id="Group_43">
<path id="Vector_40" d="M40.1553 20.5903L47.4514 16.5547V24.6258L40.1553 28.6614V20.5903Z" fill="url(#paint27_linear_1491_1678)"/>
</g>
<g id="Group_44">
<path id="Vector_41" d="M32.7605 16.5551L40.0566 12.5195L47.4513 16.5551L40.1552 20.5907L32.7605 16.5551Z" fill="url(#paint28_linear_1491_1678)"/>
</g>
</g>
<g id="Group_45">
<g id="Group_46">
<path id="Vector_42" d="M58.7914 20.5938L64.8057 26.3186L56.5237 28.3833L50.6079 22.6585L58.7914 20.5938Z" fill="url(#paint29_linear_1491_1678)"/>
</g>
<g id="Group_47">
<path id="Vector_43" d="M58.7917 20.5865L60.9609 12.7969L66.9752 18.5217L64.8061 26.3113L58.7917 20.5865Z" fill="url(#paint30_linear_1491_1678)"/>
</g>
<g id="Group_48">
<path id="Vector_44" d="M50.6072 22.6512L52.7763 14.8616L60.9597 12.7969L58.7906 20.5865L50.6072 22.6512Z" fill="url(#paint31_linear_1491_1678)"/>
</g>
</g>
<g id="Group_49">
<g id="Group_50">
<path id="Vector_45" d="M49.424 25.7465V33.8176L42.0293 29.7821L42.1279 21.7109L49.424 25.7465Z" fill="url(#paint32_linear_1491_1678)"/>
</g>
<g id="Group_51">
<path id="Vector_46" d="M49.4243 25.7465L56.819 21.7109V29.7821L49.4243 33.8176V25.7465Z" fill="url(#paint33_linear_1491_1678)"/>
</g>
<g id="Group_52">
<path id="Vector_47" d="M42.1289 21.7074L49.425 17.6719L56.8197 21.7074L49.425 25.743L42.1289 21.7074Z" fill="url(#paint34_linear_1491_1678)"/>
</g>
</g>
</g>
</g>
</g>
</g>
<defs>
<linearGradient id="paint0_linear_1491_1678" x1="-0.0440614" y1="70.8052" x2="97.9555" y2="70.8052" gradientUnits="userSpaceOnUse">
<stop stop-color="#24A4E2"/>
<stop offset="1" stop-color="white"/>
</linearGradient>
<linearGradient id="paint1_linear_1491_1678" x1="16.2703" y1="59.0537" x2="81.6403" y2="59.0537" gradientUnits="userSpaceOnUse">
<stop offset="0.3375" stop-color="#97B5E1"/>
<stop offset="0.5932" stop-color="#E8F1FF"/>
</linearGradient>
<linearGradient id="paint2_linear_1491_1678" x1="26.0894" y1="43.9807" x2="71.8215" y2="43.9807" gradientUnits="userSpaceOnUse">
<stop offset="0.3375" stop-color="#97B5E1"/>
<stop offset="0.5932" stop-color="#E8F1FF"/>
</linearGradient>
<linearGradient id="paint3_linear_1491_1678" x1="81.3897" y1="46.7877" x2="16.5766" y2="40.6068" gradientUnits="userSpaceOnUse">
<stop stop-color="white"/>
<stop offset="1" stop-color="#C9D9F4"/>
</linearGradient>
<linearGradient id="paint4_linear_1491_1678" x1="48.9562" y1="56.5235" x2="48.9562" y2="0.056389" gradientUnits="userSpaceOnUse">
<stop stop-color="#1CCDFF" stop-opacity="0.6"/>
<stop offset="1" stop-color="white" stop-opacity="0"/>
</linearGradient>
<linearGradient id="paint5_linear_1491_1678" x1="28.6786" y1="32.2077" x2="28.6786" y2="42.0987" gradientUnits="userSpaceOnUse">
<stop offset="0.2578" stop-color="white"/>
<stop offset="1" stop-color="white" stop-opacity="0"/>
</linearGradient>
<linearGradient id="paint6_linear_1491_1678" x1="69.2334" y1="28.1295" x2="69.2334" y2="38.0282" gradientUnits="userSpaceOnUse">
<stop offset="0.2578" stop-color="white"/>
<stop offset="1" stop-color="white" stop-opacity="0"/>
</linearGradient>
<linearGradient id="paint7_linear_1491_1678" x1="40.8377" y1="36.0739" x2="40.8377" y2="45.9648" gradientUnits="userSpaceOnUse">
<stop offset="0.2578" stop-color="white"/>
<stop offset="1" stop-color="white" stop-opacity="0"/>
</linearGradient>
<linearGradient id="paint8_linear_1491_1678" x1="40.8377" y1="20.0213" x2="40.8377" y2="29.9199" gradientUnits="userSpaceOnUse">
<stop offset="0.2578" stop-color="white"/>
<stop offset="1" stop-color="white" stop-opacity="0"/>
</linearGradient>
<linearGradient id="paint9_linear_1491_1678" x1="76.0369" y1="57.6837" x2="77.1146" y2="55.7226" gradientUnits="userSpaceOnUse">
<stop stop-color="#1CCDFF"/>
<stop offset="0.6426" stop-color="#6BABFD"/>
</linearGradient>
<linearGradient id="paint10_linear_1491_1678" x1="72.6052" y1="59.558" x2="73.683" y2="57.5969" gradientUnits="userSpaceOnUse">
<stop stop-color="#103DB5"/>
<stop offset="0.6426" stop-color="#6BABFD"/>
</linearGradient>
<linearGradient id="paint11_linear_1491_1678" x1="40.9966" y1="30.1599" x2="50.3602" y2="25.0275" gradientUnits="userSpaceOnUse">
<stop stop-color="#97B5E1"/>
<stop offset="1" stop-color="#E8F1FF"/>
</linearGradient>
<linearGradient id="paint12_linear_1491_1678" x1="50.2537" y1="26.0047" x2="53.9673" y2="28.5492" gradientUnits="userSpaceOnUse">
<stop stop-color="white"/>
<stop offset="1" stop-color="#C9D9F4"/>
</linearGradient>
<linearGradient id="paint13_linear_1491_1678" x1="42.0984" y1="21.7199" x2="56.8022" y2="21.7199" gradientUnits="userSpaceOnUse">
<stop stop-color="white"/>
<stop offset="1" stop-color="#C9D9F4"/>
</linearGradient>
<linearGradient id="paint14_linear_1491_1678" x1="30.841" y1="35.0295" x2="40.2823" y2="31.1483" gradientUnits="userSpaceOnUse">
<stop stop-color="#97B5E1"/>
<stop offset="1" stop-color="#E8F1FF"/>
</linearGradient>
<linearGradient id="paint15_linear_1491_1678" x1="40.8169" y1="30.044" x2="45.0858" y2="34.6118" gradientUnits="userSpaceOnUse">
<stop stop-color="white"/>
<stop offset="1" stop-color="#C9D9F4"/>
</linearGradient>
<linearGradient id="paint16_linear_1491_1678" x1="32.7754" y1="26.8721" x2="47.4792" y2="26.8721" gradientUnits="userSpaceOnUse">
<stop stop-color="white"/>
<stop offset="1" stop-color="#C9D9F4"/>
</linearGradient>
<linearGradient id="paint17_linear_1491_1678" x1="50.8465" y1="33.8967" x2="58.5445" y2="31.9835" gradientUnits="userSpaceOnUse">
<stop stop-color="#97B5E1"/>
<stop offset="1" stop-color="#E8F1FF"/>
</linearGradient>
<linearGradient id="paint18_linear_1491_1678" x1="59.5195" y1="30.8829" x2="66.4462" y2="36.2512" gradientUnits="userSpaceOnUse">
<stop stop-color="white"/>
<stop offset="1" stop-color="#C9D9F4"/>
</linearGradient>
<linearGradient id="paint19_linear_1491_1678" x1="55.0951" y1="23.3712" x2="62.0844" y2="30.7138" gradientUnits="userSpaceOnUse">
<stop stop-color="white"/>
<stop offset="1" stop-color="#C9D9F4"/>
</linearGradient>
<linearGradient id="paint20_linear_1491_1678" x1="41.6122" y1="40.1853" x2="50.1603" y2="35.4812" gradientUnits="userSpaceOnUse">
<stop stop-color="#97B5E1"/>
<stop offset="1" stop-color="#E8F1FF"/>
</linearGradient>
<linearGradient id="paint21_linear_1491_1678" x1="49.6201" y1="37.0245" x2="56.4603" y2="39.3621" gradientUnits="userSpaceOnUse">
<stop stop-color="white"/>
<stop offset="1" stop-color="#C9D9F4"/>
</linearGradient>
<linearGradient id="paint22_linear_1491_1678" x1="42.0984" y1="32.0423" x2="56.8022" y2="32.0423" gradientUnits="userSpaceOnUse">
<stop stop-color="white"/>
<stop offset="1" stop-color="#C9D9F4"/>
</linearGradient>
<linearGradient id="paint23_linear_1491_1678" x1="40.9966" y1="19.87" x2="50.3601" y2="14.7376" gradientUnits="userSpaceOnUse">
<stop stop-color="#97B5E1"/>
<stop offset="1" stop-color="#E8F1FF"/>
</linearGradient>
<linearGradient id="paint24_linear_1491_1678" x1="50.2537" y1="15.7149" x2="53.9673" y2="18.2594" gradientUnits="userSpaceOnUse">
<stop stop-color="white"/>
<stop offset="1" stop-color="#C9D9F4"/>
</linearGradient>
<linearGradient id="paint25_linear_1491_1678" x1="42.0972" y1="11.43" x2="56.801" y2="11.43" gradientUnits="userSpaceOnUse">
<stop stop-color="white"/>
<stop offset="1" stop-color="#C9D9F4"/>
</linearGradient>
<linearGradient id="paint26_linear_1491_1678" x1="30.841" y1="24.724" x2="40.2823" y2="20.8428" gradientUnits="userSpaceOnUse">
<stop stop-color="#97B5E1"/>
<stop offset="1" stop-color="#E8F1FF"/>
</linearGradient>
<linearGradient id="paint27_linear_1491_1678" x1="40.8169" y1="19.7386" x2="45.0858" y2="24.3064" gradientUnits="userSpaceOnUse">
<stop stop-color="white"/>
<stop offset="1" stop-color="#C9D9F4"/>
</linearGradient>
<linearGradient id="paint28_linear_1491_1678" x1="32.7759" y1="16.5744" x2="47.4797" y2="16.5744" gradientUnits="userSpaceOnUse">
<stop stop-color="white"/>
<stop offset="1" stop-color="#C9D9F4"/>
</linearGradient>
<linearGradient id="paint29_linear_1491_1678" x1="52.6051" y1="24.8498" x2="63.2528" y2="24.0632" gradientUnits="userSpaceOnUse">
<stop stop-color="#97B5E1"/>
<stop offset="1" stop-color="#E8F1FF"/>
</linearGradient>
<linearGradient id="paint30_linear_1491_1678" x1="59.277" y1="20.0712" x2="68.0789" y2="18.6755" gradientUnits="userSpaceOnUse">
<stop stop-color="white"/>
<stop offset="1" stop-color="#C9D9F4"/>
</linearGradient>
<linearGradient id="paint31_linear_1491_1678" x1="50.5718" y1="17.7435" x2="60.9686" y2="17.7435" gradientUnits="userSpaceOnUse">
<stop stop-color="white"/>
<stop offset="1" stop-color="#C9D9F4"/>
</linearGradient>
<linearGradient id="paint32_linear_1491_1678" x1="41.6114" y1="29.872" x2="50.1596" y2="25.1679" gradientUnits="userSpaceOnUse">
<stop stop-color="#97B5E1"/>
<stop offset="1" stop-color="#E8F1FF"/>
</linearGradient>
<linearGradient id="paint33_linear_1491_1678" x1="49.6196" y1="26.7112" x2="56.4598" y2="29.0488" gradientUnits="userSpaceOnUse">
<stop stop-color="white"/>
<stop offset="1" stop-color="#C9D9F4"/>
</linearGradient>
<linearGradient id="paint34_linear_1491_1678" x1="42.0984" y1="21.733" x2="56.8022" y2="21.733" gradientUnits="userSpaceOnUse">
<stop stop-color="white"/>
<stop offset="1" stop-color="#C9D9F4"/>
</linearGradient>
</defs>
</svg>
