<svg width="94" height="97" viewBox="0 0 94 97" fill="none" xmlns="http://www.w3.org/2000/svg">
<g id="icon-&#230;&#128;&#187;&#232;&#174;&#190;&#229;&#164;&#135;">
<g id="Group 1142817385" filter="url(#filter0_d_1491_1324)">
<g id="&#229;&#186;&#149;&#229;&#186;&#167; 3">
<ellipse id="1" cx="46.8596" cy="75.9829" rx="46.8596" ry="13.2602" fill="#226193" fill-opacity="0.278431"/>
<g id="2">
<mask id="mask0_1491_1324" style="mask-type:alpha" maskUnits="userSpaceOnUse" x="0" y="80" width="93" height="15">
<rect id="Rectangle 1" x="0.842041" y="80.0352" width="92.0356" height="14.7956" fill="url(#paint0_linear_1491_1324)"/>
</mask>
<g mask="url(#mask0_1491_1324)">
<g id="Group 4">
<g id="Vector">
<path d="M13.749 81.5688C13.749 83.8882 16.5745 86.0121 21.2883 87.67L11.5548 90.0089C5.04231 87.7175 1.1225 84.7729 1.1225 81.5688C1.1225 78.3647 5.04231 75.4202 11.5548 73.1287L21.2883 75.4676C16.5773 77.1255 13.749 79.2495 13.749 81.5688Z" fill="#226193" fill-opacity="0.301961"/>
<path d="M46.718 71.9816C38.7409 71.9816 31.4372 72.8022 25.7357 74.1726L17.6912 71.3424C25.5786 69.4473 35.6994 68.3086 46.718 68.3086C57.7367 68.3086 67.8603 69.4473 75.7449 71.3424L67.7004 74.1726C61.9989 72.8022 54.6952 71.9816 46.718 71.9816Z" fill="#226193" fill-opacity="0.301961"/>
<path d="M81.8841 73.1287C88.3965 75.4202 92.3163 78.3647 92.3163 81.5688C92.3163 84.7729 88.3965 87.7175 81.8841 90.0089L72.1505 87.67C76.8616 86.0121 79.6899 83.8882 79.6899 81.5688C79.6899 79.2495 76.8644 77.1255 72.1505 75.4676L81.8841 73.1287Z" fill="#226193" fill-opacity="0.301961"/>
<path d="M46.718 91.156C54.6952 91.156 61.9989 90.3354 67.7004 88.965L75.7449 91.7952C67.8603 93.6903 57.7395 94.829 46.718 94.829C35.6965 94.829 25.5757 93.6903 17.6912 91.7952L25.7357 88.965C31.4372 90.3354 38.7409 91.156 46.718 91.156Z" fill="#226193" fill-opacity="0.301961"/>
</g>
<g id="Vector_2">
<path d="M13.749 81.5688C13.749 83.8882 16.5745 86.0121 21.2883 87.67L11.5548 90.0089C5.04231 87.7175 1.1225 84.7729 1.1225 81.5688C1.1225 78.3647 5.04231 75.4202 11.5548 73.1287L21.2883 75.4676C16.5773 77.1255 13.749 79.2495 13.749 81.5688Z" fill="#24A4E2"/>
<path d="M46.718 71.9816C38.7409 71.9816 31.4372 72.8022 25.7357 74.1726L17.6912 71.3424C25.5786 69.4473 35.6994 68.3086 46.718 68.3086C57.7367 68.3086 67.8603 69.4473 75.7449 71.3424L67.7004 74.1726C61.9989 72.8022 54.6952 71.9816 46.718 71.9816Z" fill="#24A4E2"/>
<path d="M81.8841 73.1287C88.3965 75.4202 92.3163 78.3647 92.3163 81.5688C92.3163 84.7729 88.3965 87.7175 81.8841 90.0089L72.1505 87.67C76.8616 86.0121 79.6899 83.8882 79.6899 81.5688C79.6899 79.2495 76.8644 77.1255 72.1505 75.4676L81.8841 73.1287Z" fill="#24A4E2"/>
<path d="M46.718 91.156C54.6952 91.156 61.9989 90.3354 67.7004 88.965L75.7449 91.7952C67.8603 93.6903 57.7395 94.829 46.718 94.829C35.6965 94.829 25.5757 93.6903 17.6912 91.7952L25.7357 88.965C31.4372 90.3354 38.7409 91.156 46.718 91.156Z" fill="#24A4E2"/>
</g>
<g id="Vector_3">
<path d="M13.749 80.1743C13.749 82.4936 16.5745 84.6176 21.2883 86.2755L11.5548 88.6144C5.04231 86.3229 1.1225 83.3784 1.1225 80.1743C1.1225 76.9702 5.04231 74.0256 11.5548 71.7342L21.2883 74.0731C16.5773 75.7309 13.749 77.8549 13.749 80.1743Z" fill="#24A4E2"/>
<path d="M46.718 70.5871C38.7409 70.5871 31.4372 71.4076 25.7357 72.778L17.6912 69.9479C25.5786 68.0528 35.6994 66.9141 46.718 66.9141C57.7367 66.9141 67.8603 68.0528 75.7449 69.9479L67.7004 72.778C61.9989 71.4076 54.6952 70.5871 46.718 70.5871Z" fill="#24A4E2"/>
<path d="M81.8841 71.7342C88.3965 74.0256 92.3163 76.9702 92.3163 80.1743C92.3163 83.3784 88.3965 86.3229 81.8841 88.6144L72.1505 86.2755C76.8616 84.6176 79.6899 82.4936 79.6899 80.1743C79.6899 77.8549 76.8644 75.7309 72.1505 74.0731L81.8841 71.7342Z" fill="#24A4E2"/>
<path d="M46.718 89.7615C54.6952 89.7615 61.9989 88.9409 67.7004 87.5705L75.7449 90.4006C67.8603 92.2957 57.7395 93.4345 46.718 93.4345C35.6965 93.4345 25.5757 92.2957 17.6912 90.4006L25.7357 87.5705C31.4372 88.9409 38.7409 89.7615 46.718 89.7615Z" fill="#24A4E2"/>
</g>
<g id="Vector_4">
<path d="M13.749 80.1743C13.749 82.4936 16.5745 84.6176 21.2883 86.2755L11.5548 88.6144C5.04231 86.3229 1.1225 83.3784 1.1225 80.1743C1.1225 76.9702 5.04231 74.0256 11.5548 71.7342L21.2883 74.0731C16.5773 75.7309 13.749 77.8549 13.749 80.1743Z" fill="#24A4E2"/>
<path d="M46.718 70.5871C38.7409 70.5871 31.4372 71.4076 25.7357 72.778L17.6912 69.9479C25.5786 68.0528 35.6994 66.9141 46.718 66.9141C57.7367 66.9141 67.8603 68.0528 75.7449 69.9479L67.7004 72.778C61.9989 71.4076 54.6952 70.5871 46.718 70.5871Z" fill="#24A4E2"/>
<path d="M81.8841 71.7342C88.3965 74.0256 92.3163 76.9702 92.3163 80.1743C92.3163 83.3784 88.3965 86.3229 81.8841 88.6144L72.1505 86.2755C76.8616 84.6176 79.6899 82.4936 79.6899 80.1743C79.6899 77.8549 76.8644 75.7309 72.1505 74.0731L81.8841 71.7342Z" fill="#24A4E2"/>
<path d="M46.718 89.7615C54.6952 89.7615 61.9989 88.9409 67.7004 87.5705L75.7449 90.4006C67.8603 92.2957 57.7395 93.4345 46.718 93.4345C35.6965 93.4345 25.5757 92.2957 17.6912 90.4006L25.7357 87.5705C31.4372 88.9409 38.7409 89.7615 46.718 89.7615Z" fill="#24A4E2"/>
</g>
</g>
</g>
</g>
<g id="3">
<mask id="mask1_1491_1324" style="mask-type:alpha" maskUnits="userSpaceOnUse" x="0" y="80" width="93" height="15">
<rect id="Rectangle 1_2" x="0.842041" y="80.0352" width="92.0356" height="14.7956" fill="url(#paint1_linear_1491_1324)"/>
</mask>
<g mask="url(#mask1_1491_1324)">
<g id="Group 4_2">
<g id="Vector_5">
<path d="M13.749 81.5688C13.749 83.8882 16.5745 86.0121 21.2883 87.67L11.5548 90.0089C5.04231 87.7175 1.1225 84.7729 1.1225 81.5688C1.1225 78.3647 5.04231 75.4202 11.5548 73.1287L21.2883 75.4676C16.5773 77.1255 13.749 79.2495 13.749 81.5688Z" fill="#226193" fill-opacity="0.301961"/>
<path d="M46.718 71.9816C38.7409 71.9816 31.4372 72.8022 25.7357 74.1726L17.6912 71.3424C25.5786 69.4473 35.6994 68.3086 46.718 68.3086C57.7367 68.3086 67.8603 69.4473 75.7449 71.3424L67.7004 74.1726C61.9989 72.8022 54.6952 71.9816 46.718 71.9816Z" fill="#226193" fill-opacity="0.301961"/>
<path d="M81.8841 73.1287C88.3965 75.4202 92.3163 78.3647 92.3163 81.5688C92.3163 84.7729 88.3965 87.7175 81.8841 90.0089L72.1505 87.67C76.8616 86.0121 79.6899 83.8882 79.6899 81.5688C79.6899 79.2495 76.8644 77.1255 72.1505 75.4676L81.8841 73.1287Z" fill="#226193" fill-opacity="0.301961"/>
<path d="M46.718 91.156C54.6952 91.156 61.9989 90.3354 67.7004 88.965L75.7449 91.7952C67.8603 93.6903 57.7395 94.829 46.718 94.829C35.6965 94.829 25.5757 93.6903 17.6912 91.7952L25.7357 88.965C31.4372 90.3354 38.7409 91.156 46.718 91.156Z" fill="#226193" fill-opacity="0.301961"/>
</g>
<g id="Vector_6">
<path d="M13.749 81.5688C13.749 83.8882 16.5745 86.0121 21.2883 87.67L11.5548 90.0089C5.04231 87.7175 1.1225 84.7729 1.1225 81.5688C1.1225 78.3647 5.04231 75.4202 11.5548 73.1287L21.2883 75.4676C16.5773 77.1255 13.749 79.2495 13.749 81.5688Z" fill="#24A4E2"/>
<path d="M46.718 71.9816C38.7409 71.9816 31.4372 72.8022 25.7357 74.1726L17.6912 71.3424C25.5786 69.4473 35.6994 68.3086 46.718 68.3086C57.7367 68.3086 67.8603 69.4473 75.7449 71.3424L67.7004 74.1726C61.9989 72.8022 54.6952 71.9816 46.718 71.9816Z" fill="#24A4E2"/>
<path d="M81.8841 73.1287C88.3965 75.4202 92.3163 78.3647 92.3163 81.5688C92.3163 84.7729 88.3965 87.7175 81.8841 90.0089L72.1505 87.67C76.8616 86.0121 79.6899 83.8882 79.6899 81.5688C79.6899 79.2495 76.8644 77.1255 72.1505 75.4676L81.8841 73.1287Z" fill="#24A4E2"/>
<path d="M46.718 91.156C54.6952 91.156 61.9989 90.3354 67.7004 88.965L75.7449 91.7952C67.8603 93.6903 57.7395 94.829 46.718 94.829C35.6965 94.829 25.5757 93.6903 17.6912 91.7952L25.7357 88.965C31.4372 90.3354 38.7409 91.156 46.718 91.156Z" fill="#24A4E2"/>
</g>
<g id="Vector_7">
<path d="M13.749 80.1743C13.749 82.4936 16.5745 84.6176 21.2883 86.2755L11.5548 88.6144C5.04231 86.3229 1.1225 83.3784 1.1225 80.1743C1.1225 76.9702 5.04231 74.0256 11.5548 71.7342L21.2883 74.0731C16.5773 75.7309 13.749 77.8549 13.749 80.1743Z" fill="#24A4E2"/>
<path d="M46.718 70.5871C38.7409 70.5871 31.4372 71.4076 25.7357 72.778L17.6912 69.9479C25.5786 68.0528 35.6994 66.9141 46.718 66.9141C57.7367 66.9141 67.8603 68.0528 75.7449 69.9479L67.7004 72.778C61.9989 71.4076 54.6952 70.5871 46.718 70.5871Z" fill="#24A4E2"/>
<path d="M81.8841 71.7342C88.3965 74.0256 92.3163 76.9702 92.3163 80.1743C92.3163 83.3784 88.3965 86.3229 81.8841 88.6144L72.1505 86.2755C76.8616 84.6176 79.6899 82.4936 79.6899 80.1743C79.6899 77.8549 76.8644 75.7309 72.1505 74.0731L81.8841 71.7342Z" fill="#24A4E2"/>
<path d="M46.718 89.7615C54.6952 89.7615 61.9989 88.9409 67.7004 87.5705L75.7449 90.4006C67.8603 92.2957 57.7395 93.4345 46.718 93.4345C35.6965 93.4345 25.5757 92.2957 17.6912 90.4006L25.7357 87.5705C31.4372 88.9409 38.7409 89.7615 46.718 89.7615Z" fill="#24A4E2"/>
</g>
<g id="Vector_8">
<path d="M13.749 80.1743C13.749 82.4936 16.5745 84.6176 21.2883 86.2755L11.5548 88.6144C5.04231 86.3229 1.1225 83.3784 1.1225 80.1743C1.1225 76.9702 5.04231 74.0256 11.5548 71.7342L21.2883 74.0731C16.5773 75.7309 13.749 77.8549 13.749 80.1743Z" fill="#24A4E2"/>
<path d="M46.718 70.5871C38.7409 70.5871 31.4372 71.4076 25.7357 72.778L17.6912 69.9479C25.5786 68.0528 35.6994 66.9141 46.718 66.9141C57.7367 66.9141 67.8603 68.0528 75.7449 69.9479L67.7004 72.778C61.9989 71.4076 54.6952 70.5871 46.718 70.5871Z" fill="#24A4E2"/>
<path d="M81.8841 71.7342C88.3965 74.0256 92.3163 76.9702 92.3163 80.1743C92.3163 83.3784 88.3965 86.3229 81.8841 88.6144L72.1505 86.2755C76.8616 84.6176 79.6899 82.4936 79.6899 80.1743C79.6899 77.8549 76.8644 75.7309 72.1505 74.0731L81.8841 71.7342Z" fill="#24A4E2"/>
<path d="M46.718 89.7615C54.6952 89.7615 61.9989 88.9409 67.7004 87.5705L75.7449 90.4006C67.8603 92.2957 57.7395 93.4345 46.718 93.4345C35.6965 93.4345 25.5757 92.2957 17.6912 90.4006L25.7357 87.5705C31.4372 88.9409 38.7409 89.7615 46.718 89.7615Z" fill="#24A4E2"/>
</g>
</g>
</g>
</g>
<g id="4" style="mix-blend-mode:overlay">
<mask id="mask2_1491_1324" style="mask-type:alpha" maskUnits="userSpaceOnUse" x="0" y="80" width="93" height="15">
<rect id="Rectangle 1_3" x="0.842041" y="80.0352" width="92.0356" height="14.7956" fill="url(#paint2_linear_1491_1324)"/>
</mask>
<g mask="url(#mask2_1491_1324)">
<path id="Vector (Stroke)" fill-rule="evenodd" clip-rule="evenodd" d="M15.3997 83.9094C14.0419 82.832 13.1864 81.5776 13.1864 80.1743C13.1864 78.7708 14.0428 77.5164 15.4008 76.4391C16.4264 75.6254 17.783 74.8748 19.4067 74.1956L11.5841 72.3159C8.43184 73.4375 5.94278 74.7018 4.24497 76.0485C2.5125 77.4228 1.68235 78.8164 1.68235 80.1743C1.68235 81.5321 2.5125 82.9258 4.24497 84.3C5.94278 85.6468 8.43184 86.9111 11.5841 88.0326L19.4062 86.153C17.7818 85.4739 16.4252 84.7232 15.3997 83.9094ZM20.3438 85.9278C20.6491 86.0458 20.9636 86.1617 21.287 86.2755L11.5534 88.6144C5.04097 86.3229 1.12115 83.3784 1.12115 80.1743C1.12115 76.9702 5.04097 74.0256 11.5534 71.7342L21.287 74.0731C20.9637 74.1868 20.6493 74.3028 20.3441 74.4209C16.2011 76.0234 13.7476 78.0141 13.7476 80.1743C13.7476 82.3345 16.1987 84.3252 20.3438 85.9278ZM25.7648 72.1966C31.4935 70.8372 38.7798 70.0287 46.7167 70.0287C54.6536 70.0287 61.9399 70.8372 67.6686 72.1966L73.7336 70.0628C66.1968 68.4372 56.8414 67.4724 46.7167 67.4724C36.5919 67.4724 27.2387 68.4372 19.7001 70.0629L25.7648 72.1966ZM25.7343 72.778L17.6899 69.9479C18.0232 69.8678 18.3606 69.7891 18.7018 69.7117C26.4343 67.9586 36.1637 66.9141 46.7167 66.9141C57.2696 66.9141 67.0015 67.9586 74.7317 69.7117C75.0729 69.789 75.4102 69.8678 75.7435 69.9479L67.6991 72.778C61.9975 71.4076 54.6938 70.5871 46.7167 70.5871C38.7396 70.5871 31.4359 71.4076 25.7343 72.778ZM81.8521 72.3159L74.0299 74.1955C75.6544 74.8747 77.011 75.6253 78.0365 76.4391C79.3942 77.5166 80.2497 78.7709 80.2497 80.1743C80.2497 81.5778 79.3933 82.8321 78.0354 83.9095C77.0097 84.7232 75.6532 85.4738 74.0294 86.1529L81.8521 88.0326C85.0043 86.9111 87.4934 85.6468 89.1912 84.3C90.9237 82.9258 91.7538 81.5321 91.7538 80.1743C91.7538 78.8164 90.9237 77.4228 89.1912 76.0485C87.4934 74.7018 85.0043 73.4375 81.8521 72.3159ZM81.8827 88.6144L72.1491 86.2755C72.4724 86.1617 72.7868 86.0458 73.0921 85.9277C77.2351 84.3252 79.6885 82.3345 79.6885 80.1743C79.6885 78.014 77.2374 76.0233 73.0924 74.4208C72.7871 74.3028 72.4726 74.1868 72.1491 74.0731L81.8827 71.7342C88.3952 74.0256 92.315 76.9702 92.315 80.1743C92.315 83.3784 88.3952 86.3229 81.8827 88.6144ZM67.6686 88.152C61.9399 89.5114 54.6536 90.3198 46.7167 90.3198C38.7798 90.3198 31.4935 89.5114 25.7648 88.152L19.6998 90.2857C27.2362 91.9113 36.5894 92.8761 46.7167 92.8761C56.844 92.8761 66.1972 91.9113 73.7336 90.2857L67.6686 88.152ZM67.6991 87.5705C61.9975 88.9409 54.6938 89.7615 46.7167 89.7615C38.7396 89.7615 31.4359 88.9409 25.7343 87.5705L17.6899 90.4006C18.0232 90.4807 18.3605 90.5595 18.7017 90.6369C26.4317 92.39 36.1611 93.4345 46.7167 93.4345C57.2723 93.4345 67.0017 92.39 74.7317 90.6369C75.0729 90.5595 75.4102 90.4807 75.7435 90.4006L67.6991 87.5705Z" fill="url(#paint3_radial_1491_1324)"/>
</g>
</g>
<path id="5" d="M91.7192 75.9829C91.7192 76.7896 91.1236 78.0109 88.9246 79.482C86.7993 80.9039 83.5923 82.2626 79.4498 83.4348C71.1923 85.7715 59.6693 87.2431 46.8596 87.2431C34.0499 87.2431 22.5269 85.7715 14.2694 83.4348C10.1269 82.2626 6.91988 80.9039 4.79458 79.482C2.59562 78.0109 2 76.7896 2 75.9829C2 75.1761 2.59562 73.9549 4.79458 72.4837C6.91988 71.0618 10.1269 69.7031 14.2694 68.5309C22.5269 66.1942 34.0499 64.7227 46.8596 64.7227C59.6693 64.7227 71.1923 66.1942 79.4498 68.5309C83.5923 69.7031 86.7993 71.0618 88.9246 72.4837C91.1236 73.9549 91.7192 75.1761 91.7192 75.9829Z" stroke="url(#paint4_linear_1491_1324)" stroke-width="4"/>
<g id="6">
<ellipse cx="46.8596" cy="75.7055" rx="46.8596" ry="13.2602" fill="url(#paint5_linear_1491_1324)"/>
<ellipse cx="46.8596" cy="75.7055" rx="46.8596" ry="13.2602" fill="url(#paint6_radial_1491_1324)" fill-opacity="0.75"/>
<ellipse cx="46.8596" cy="75.7055" rx="46.8596" ry="13.2602" fill="url(#paint7_radial_1491_1324)" fill-opacity="0.75"/>
</g>
<g id="7">
<mask id="mask3_1491_1324" style="mask-type:alpha" maskUnits="userSpaceOnUse" x="0" y="50" width="94" height="39">
<path id="Vector_9" d="M46.8597 88.9658C72.7395 88.9658 93.7193 82.904 93.7193 75.4264C93.7193 74.7143 93.529 74.0151 93.1624 73.3327L92.5222 72.3723L83.796 59.2817C80.4883 54.2473 65.209 50.4414 46.8597 50.4414C28.5795 50.4414 13.3462 54.2187 9.96123 59.2248L9.92335 59.2816L1.19716 72.3723L0.556942 73.3327C0.190317 74.0151 6.10352e-05 74.7143 6.10352e-05 75.4264C6.10352e-05 82.904 20.9798 88.9658 46.8597 88.9658Z" fill="#1835E9"/>
</mask>
<g mask="url(#mask3_1491_1324)">
<g id="Vector_10" filter="url(#filter1_ii_1491_1324)">
<path d="M46.8597 88.9658C72.7395 88.9658 93.7193 82.904 93.7193 75.4264C93.7193 74.7143 93.529 74.0151 93.1624 73.3327L92.5222 72.3723L83.796 59.2817C80.4883 54.2473 65.209 50.4414 46.8597 50.4414C28.5795 50.4414 13.3462 54.2187 9.96123 59.2248L9.92335 59.2816L1.19716 72.3723L0.556942 73.3327C0.190317 74.0151 6.10352e-05 74.7143 6.10352e-05 75.4264C6.10352e-05 82.904 20.9798 88.9658 46.8597 88.9658Z" fill="#226193" fill-opacity="0.85"/>
</g>
<path id="1_2" d="M46.8597 88.9727C72.7395 88.9727 93.7193 82.911 93.7193 75.4334C93.7193 74.7213 93.529 74.022 93.1624 73.3396L92.5222 72.3792C90.5978 69.9676 86.4438 67.8023 80.7211 66.0742C74.6359 69.7133 61.76 72.223 46.8597 72.223C31.9594 72.223 19.0834 69.7133 12.9983 66.0742C7.27553 67.8023 3.12154 69.9676 1.19716 72.3792L0.556942 73.3396C0.190317 74.022 6.10352e-05 74.7213 6.10352e-05 75.4334C6.10352e-05 82.911 20.9798 88.9727 46.8597 88.9727Z" fill="url(#paint8_linear_1491_1324)"/>
<path id="2_2" fill-rule="evenodd" clip-rule="evenodd" d="M46.0136 78.6366C71.7385 78.6366 92.5926 69.5127 92.5926 58.2577C92.5926 47.0028 71.7385 37.8789 46.0136 37.8789C20.2888 37.8789 -0.565369 47.0028 -0.565369 58.2577C-0.565369 69.5127 20.2888 78.6366 46.0136 78.6366ZM46.9961 71.6593C67.6844 71.6593 84.4557 66.8474 84.4557 60.9116C84.4557 54.9758 67.6844 50.1639 46.9961 50.1639C26.3077 50.1639 9.53644 54.9758 9.53644 60.9116C9.53644 66.8474 26.3077 71.6593 46.9961 71.6593Z" fill="url(#paint9_linear_1491_1324)"/>
<path id="3_2" d="M90.1923 66.7739C90.1923 68.7684 89.1524 70.7787 87.033 72.7191C84.9129 74.6602 81.7897 76.4541 77.8459 77.9814C69.9648 81.0333 59.0093 82.9424 46.858 82.9424C34.7068 82.9424 23.7512 81.0333 15.8701 77.9814C11.9263 76.4541 8.80314 74.6602 6.68309 72.7191C4.56368 70.7787 3.5238 68.7684 3.5238 66.7739C3.5238 64.7795 4.56368 62.7692 6.68309 60.8288C8.80314 58.8877 11.9263 57.0938 15.8701 55.5665C23.7512 52.5145 34.7068 50.6055 46.858 50.6055C59.0093 50.6055 69.9648 52.5145 77.8459 55.5665C81.7897 57.0938 84.9129 58.8877 87.033 60.8288C89.1524 62.7692 90.1923 64.7795 90.1923 66.7739Z" stroke="url(#paint10_linear_1491_1324)" stroke-width="2"/>
<g id="4_2" style="mix-blend-mode:overlay" opacity="0.7">
<g id="Vector_11" filter="url(#filter2_f_1491_1324)">
<path d="M13.9705 49.4336C13.3768 50.098 13.1114 51.4237 12.7527 52.2185C11.8085 54.3108 10.3701 55.7539 8.90483 57.4939C7.03863 59.7099 6.35351 62.2507 5.2261 64.8305C4.82371 65.7513 4.37668 66.5226 3.76306 67.321C2.85009 68.5088 2.133 69.8734 1.18372 71.0146C0.793481 71.4837 0.641672 72.0199 0.287295 72.5038C-0.254985 73.2443 -0.860402 73.9289 -1.4379 74.6408C-2.28622 75.6866 -2.71666 76.9196 -3.50138 77.9895C-4.47973 79.3233 -5.59136 80.9792 -6.19911 82.5244C-6.5835 83.5017 -7.062 84.3645 -7.30696 85.3934C-7.64722 86.8227 -8.62026 87.9188 -9.37043 89.1628C-10.6148 91.2261 -11.4409 93.5331 -12.8969 95.4646C-13.3076 96.0093 -13.6669 96.5995 -14.157 97.1052C-14.4838 97.4424 -14.5819 98.1664 -14.952 98.3504M-2.62186 76.088C-3.06803 76.5319 -3.64381 76.8187 -4.10181 77.2743C-5.69155 78.8559 -7.0186 80.6444 -8.57549 82.2468C-9.46866 83.166 -10.1382 83.9573 -11.2901 84.5605C-12.1304 85.0005 -12.4035 85.45 -12.9731 86.0834C-13.4889 86.6569 -14.1593 87.3899 -14.5291 88.0522C-14.7859 88.5121 -15.4643 88.6173 -15.7131 89.1123" stroke="white" stroke-width="20" stroke-linecap="round"/>
</g>
<g id="Vector 6" opacity="0.7" filter="url(#filter3_f_1491_1324)">
<path d="M27.042 56.1094C27.042 57.1276 26.4942 58.3379 26.2372 59.312C24.6501 65.3272 22.4884 70.7909 19.3066 76.1615C16.5461 80.8211 13.9627 85.5846 10.3101 89.6411C9.14468 90.9354 8.066 92.0613 7.1391 93.5368C6.50199 94.5509 5.63239 95.3637 5.08516 96.4526C4.53639 97.5445 4.03903 98.6775 3.48764 99.7747C2.94462 100.855 2.79361 102.122 2.29851 103.216C2.03252 103.804 1.52979 104.498 1.52979 105.152" stroke="white" stroke-width="27" stroke-linecap="round"/>
</g>
<g id="Vector 7" opacity="0.7" filter="url(#filter4_f_1491_1324)">
<path d="M64.2297 58.4727C64.2297 58.9588 64.4229 59.4834 64.4939 59.9784C64.9559 63.1959 65.0108 66.4085 66.1635 69.4906C67.0042 71.7383 67.8785 73.9585 68.746 76.1945C69.4213 77.9352 69.553 79.7718 70.1153 81.5361C71.1038 84.6379 71.181 87.8505 71.917 90.9886C72.6225 93.9968 72.5887 97.1157 73.4304 100.106C74.5539 104.099 74.8237 108.437 74.8237 112.57C74.8237 114.239 75.2561 115.555 75.2561 117.195" stroke="white" stroke-width="27" stroke-linecap="round"/>
</g>
<g id="Vector 8" filter="url(#filter5_f_1491_1324)">
<path d="M81.3078 42.3438C81.3078 42.9864 81.345 43.6036 81.4399 44.2438C82.0972 48.6756 83.592 53.1503 85.0313 57.3768C86.7548 62.4379 88.5943 67.2979 91.2773 71.9319C92.7098 74.4063 94.4133 76.6292 95.9737 79.0063C97.242 80.9384 98.0432 83.1463 99.1567 85.1606C99.9727 86.6366 100.123 88.3786 100.658 89.9764C101.083 91.2437 101.892 92.1554 102.448 93.3224C102.664 93.7761 102.679 94.3858 102.976 94.7803C104.232 96.4457 104.631 98.7678 105.739 100.421" stroke="white" stroke-width="20" stroke-linecap="round"/>
</g>
<g id="Vector 9" opacity="0.7" filter="url(#filter6_f_1491_1324)">
<path d="M73.5261 45.5664C76.2248 48.2512 78.6152 51.2284 81.5257 53.7044C84.2151 55.9922 87.054 58.1628 89.9097 60.241C92.0926 61.8296 94.6438 63.0719 96.636 64.9015C98.7828 66.873 100.712 69.3648 103.651 70.1834C105.506 70.7001 106.646 71.9879 108.131 73.2067C112.135 76.4934 115.817 80.2167 119.794 83.5554C121.268 84.7925 122.683 86.1261 124.07 87.4631C124.937 88.2991 126.084 88.8212 126.929 89.6619" stroke="white" stroke-width="27" stroke-linecap="round"/>
</g>
</g>
<g id="5_2">
<g id="Vector 10" filter="url(#filter7_f_1491_1324)">
<path d="M8.77991 60.2109C7.62961 61.4825 6.84224 63.265 5.94221 64.7024C3.43031 68.714 1.02204 72.5606 -1.87435 76.3288C-4.05329 79.1636 -6.65145 81.8801 -8.24627 85.1064C-9.58898 87.8226 -10.3905 90.6965 -11.9611 93.3193C-14.1445 96.9656 -17.2005 100.357 -19.0811 104.099" stroke="white" stroke-width="16" stroke-linecap="round"/>
</g>
<g id="Vector 11" filter="url(#filter8_f_1491_1324)">
<path d="M63.573 71.7656C63.573 76.6349 67.4832 82.2084 69.4032 86.5746C70.8628 89.8938 72.2725 93.4299 73.2986 96.9177C73.9953 99.2861 75.3044 102.187 75.6461 104.566C75.9672 106.802 77.7783 114.173 79.8253 115.191" stroke="white" stroke-width="16" stroke-linecap="round"/>
</g>
<g id="Vector 12" filter="url(#filter9_f_1491_1324)">
<path d="M88.1857 60.6641C88.1857 61.8199 88.9128 62.9833 89.424 64.0006C91.8331 68.7941 95.1965 73.203 98.2467 77.6032C101.086 81.6992 104.499 85.3154 107.198 89.512C108.971 92.2669 111.427 94.8973 112.796 97.6222" stroke="white" stroke-width="16" stroke-linecap="round"/>
</g>
</g>
</g>
</g>
<rect id="8" width="1.68091" height="3.35531" transform="matrix(0.831436 0.55562 -0.559558 0.828791 13.3806 74.1758)" fill="#8DCDFF"/>
<rect id="9" width="1.68159" height="3.78105" transform="matrix(-0.877917 0.478812 0.4826 0.875841 81.7275 73.8867)" fill="#8DCDFF"/>
<rect id="10" width="1.68173" height="3.71841" transform="matrix(0.886652 0.462437 -0.46617 0.884695 17.7256 75.5664)" fill="#8DCDFF"/>
<g id="11">
<mask id="mask4_1491_1324" style="mask-type:alpha" maskUnits="userSpaceOnUse" x="9" y="49" width="76" height="23">
<g id="Vector_12">
<path d="M46.8601 71.6497C61.7604 71.6497 74.6364 69.14 80.7215 65.5009C72.1906 62.9249 60.1738 61.3207 46.8601 61.3207C33.5464 61.3207 21.5296 62.9249 12.9987 65.5009C19.0838 69.14 31.9598 71.6497 46.8601 71.6497Z" fill="#2E5DD5"/>
<path d="M83.7964 58.7153C80.4887 53.6809 65.2094 49.875 46.8601 49.875C28.58 49.875 13.3467 53.6523 9.96168 58.6584L9.9238 58.7152C9.48818 59.3783 9.26019 60.0626 9.26019 60.7623C9.26019 62.4607 10.6033 64.0683 12.9987 65.5009C21.5296 62.9249 33.5464 61.3207 46.8601 61.3207C60.1738 61.3207 72.1906 62.9249 80.7215 65.5009C83.1169 64.0683 84.46 62.4607 84.46 60.7623C84.46 60.0626 84.232 59.3783 83.7964 58.7153Z" fill="#2E5DD5"/>
</g>
</mask>
<g mask="url(#mask4_1491_1324)">
<g id="Vector_13">
<path d="M46.8601 71.6497C61.7604 71.6497 74.6364 69.14 80.7215 65.5009C72.1906 62.9249 60.1738 61.3207 46.8601 61.3207C33.5464 61.3207 21.5296 62.9249 12.9987 65.5009C19.0838 69.14 31.9598 71.6497 46.8601 71.6497Z" fill="#24A4E2"/>
<path d="M83.7964 58.7153C80.4887 53.6809 65.2094 49.875 46.8601 49.875C28.58 49.875 13.3467 53.6523 9.96168 58.6584L9.9238 58.7152C9.48818 59.3783 9.26019 60.0626 9.26019 60.7623C9.26019 62.4607 10.6033 64.0683 12.9987 65.5009C21.5296 62.9249 33.5464 61.3207 46.8601 61.3207C60.1738 61.3207 72.1906 62.9249 80.7215 65.5009C83.1169 64.0683 84.46 62.4607 84.46 60.7623C84.46 60.0626 84.232 59.3783 83.7964 58.7153Z" fill="#24A4E2"/>
</g>
<g id="Ellipse 18" filter="url(#filter10_f_1491_1324)">
<ellipse cx="23.0081" cy="4.75961" rx="23.0081" ry="4.75961" transform="matrix(0.996713 -0.0810105 0.0818394 0.996646 37.4171 67.6523)" fill="#8EC4F9"/>
</g>
<g id="Ellipse 20" filter="url(#filter11_f_1491_1324)">
<ellipse cx="23.0081" cy="1.87117" rx="23.0081" ry="1.87117" transform="matrix(0.996713 -0.0810105 0.0818394 0.996646 37.7283 71.4375)" fill="#8EC4F9"/>
</g>
<g id="Ellipse 19" opacity="0.7" filter="url(#filter12_f_1491_1324)">
<ellipse cx="23.0081" cy="7.11888" rx="23.0081" ry="7.11888" transform="matrix(0.996713 -0.0810105 0.0818394 0.996646 -3.08624 42.9922)" fill="#8EC4F9"/>
</g>
</g>
</g>
<g id="12">
<mask id="mask5_1491_1324" style="mask-type:alpha" maskUnits="userSpaceOnUse" x="1" y="42" width="92" height="26">
<path id="Ellipse 21" d="M91.5361 55.329C91.5361 56.7814 90.4598 58.2848 88.2134 59.7453C85.9884 61.1918 82.7358 62.5135 78.6717 63.6311C70.5508 65.8642 59.3035 67.2517 46.86 67.2517C34.4166 67.2517 23.1693 65.8642 15.0483 63.6311C10.9843 62.5135 7.73167 61.1918 5.50671 59.7453C3.2603 58.2848 2.18402 56.7814 2.18402 55.329C2.18402 53.8766 3.2603 52.3732 5.50671 50.9127C7.73167 49.4662 10.9843 48.1444 15.0483 47.0269C23.1693 44.7937 34.4166 43.4062 46.86 43.4062C59.3035 43.4062 70.5508 44.7937 78.6717 47.0269C82.7358 48.1444 85.9884 49.4662 88.2134 50.9127C90.4598 52.3732 91.5361 53.8766 91.5361 55.329Z" stroke="url(#paint11_linear_1491_1324)"/>
</mask>
<g mask="url(#mask5_1491_1324)">
<path id="Ellipse 22" d="M91.5361 55.329C91.5361 56.7814 90.4598 58.2848 88.2134 59.7453C85.9884 61.1918 82.7358 62.5135 78.6717 63.6311C70.5508 65.8642 59.3035 67.2517 46.86 67.2517C34.4166 67.2517 23.1693 65.8642 15.0483 63.6311C10.9843 62.5135 7.73167 61.1918 5.50671 59.7453C3.2603 58.2848 2.18402 56.7814 2.18402 55.329C2.18402 53.8766 3.2603 52.3732 5.50671 50.9127C7.73167 49.4662 10.9843 48.1444 15.0483 47.0269C23.1693 44.7937 34.4166 43.4062 46.86 43.4062C59.3035 43.4062 70.5508 44.7937 78.6717 47.0269C82.7358 48.1444 85.9884 49.4662 88.2134 50.9127C90.4598 52.3732 91.5361 53.8766 91.5361 55.329Z" stroke="url(#paint12_linear_1491_1324)"/>
</g>
</g>
<path id="13" d="M10.7552 59.2748L10.7892 59.2238C11.4904 58.1883 12.8902 57.1099 15.0168 56.0823C17.1229 55.0646 19.843 54.1437 23.0568 53.3694C29.4817 51.8214 37.7795 50.8828 46.8574 50.8828C55.9698 50.8828 64.2959 51.8285 70.7308 53.387C73.9496 54.1665 76.6695 55.0933 78.7692 56.1168C80.8919 57.1515 82.2768 58.2354 82.958 59.2722C83.3062 59.8022 83.4573 60.2987 83.4573 60.7701C83.4573 61.9079 82.5371 63.2561 80.2056 64.6504C77.3121 66.3809 72.7068 67.8909 66.9117 68.9645C61.137 70.0343 54.2545 70.6575 46.8574 70.6575C39.4603 70.6575 32.5779 70.0343 26.8032 68.9645C21.0081 67.8909 16.4028 66.3809 13.5093 64.6505C11.1777 63.2561 10.2575 61.9079 10.2575 60.7701C10.2575 60.2995 10.4081 59.8038 10.7552 59.2748Z" stroke="url(#paint13_linear_1491_1324)" stroke-width="2"/>
<g id="14">
<mask id="mask6_1491_1324" style="mask-type:alpha" maskUnits="userSpaceOnUse" x="9" y="49" width="76" height="23">
<g id="16">
<path d="M10.7578 59.2669L10.7918 59.2159C11.4931 58.1805 12.8929 57.102 15.0195 56.0744C17.1256 55.0568 19.8457 54.1359 23.0594 53.3616C29.4844 51.8135 37.7821 50.875 46.8601 50.875C55.9725 50.875 64.2986 51.8207 70.7335 53.3792C73.9523 54.1587 76.6722 55.0855 78.7719 56.109C80.8946 57.1437 82.2795 58.2276 82.9607 59.2644C83.3089 59.7944 83.46 60.2909 83.46 60.7623C83.46 61.9 82.5398 63.2483 80.2082 64.6426C77.3148 66.373 72.7095 67.8831 66.9143 68.9567C61.1397 70.0265 54.2572 70.6497 46.8601 70.6497C39.463 70.6497 32.5805 70.0265 26.8059 68.9567C21.0107 67.8831 16.4054 66.373 13.512 64.6426C11.1804 63.2483 10.2602 61.9 10.2602 60.7623C10.2602 60.2917 10.4108 59.796 10.7578 59.2669Z" stroke="url(#paint14_linear_1491_1324)" stroke-width="2"/>
<path d="M10.7578 59.2669L10.7918 59.2159C11.4931 58.1805 12.8929 57.102 15.0195 56.0744C17.1256 55.0568 19.8457 54.1359 23.0594 53.3616C29.4844 51.8135 37.7821 50.875 46.8601 50.875C55.9725 50.875 64.2986 51.8207 70.7335 53.3792C73.9523 54.1587 76.6722 55.0855 78.7719 56.109C80.8946 57.1437 82.2795 58.2276 82.9607 59.2644C83.3089 59.7944 83.46 60.2909 83.46 60.7623C83.46 61.9 82.5398 63.2483 80.2082 64.6426C77.3148 66.373 72.7095 67.8831 66.9143 68.9567C61.1397 70.0265 54.2572 70.6497 46.8601 70.6497C39.463 70.6497 32.5805 70.0265 26.8059 68.9567C21.0107 67.8831 16.4054 66.373 13.512 64.6426C11.1804 63.2483 10.2602 61.9 10.2602 60.7623C10.2602 60.2917 10.4108 59.796 10.7578 59.2669Z" stroke="black" stroke-width="2"/>
</g>
</mask>
<g mask="url(#mask6_1491_1324)">
<path id="17" d="M10.7578 59.2669L10.7918 59.2159C11.4931 58.1805 12.8929 57.102 15.0195 56.0744C17.1256 55.0568 19.8457 54.1359 23.0594 53.3616C29.4844 51.8135 37.7821 50.875 46.8601 50.875C55.9725 50.875 64.2986 51.8207 70.7335 53.3792C73.9523 54.1587 76.6722 55.0855 78.7719 56.109C80.8946 57.1437 82.2795 58.2276 82.9607 59.2644C83.3089 59.7944 83.46 60.2909 83.46 60.7623C83.46 61.9 82.5398 63.2483 80.2082 64.6426C77.3148 66.373 72.7095 67.8831 66.9143 68.9567C61.1397 70.0265 54.2572 70.6497 46.8601 70.6497C39.463 70.6497 32.5805 70.0265 26.8059 68.9567C21.0107 67.8831 16.4054 66.373 13.512 64.6426C11.1804 63.2483 10.2602 61.9 10.2602 60.7623C10.2602 60.2917 10.4108 59.796 10.7578 59.2669Z" stroke="url(#paint15_linear_1491_1324)" stroke-width="2"/>
<g id="Ellipse 23" filter="url(#filter13_f_1491_1324)">
<ellipse cx="44.7563" cy="68.9962" rx="18.3791" ry="9.91026" fill="#91DEFF" fill-opacity="0.905882"/>
</g>
<g id="Ellipse 24" filter="url(#filter14_f_1491_1324)">
<ellipse cx="49.5246" cy="69.5548" rx="18.3791" ry="9.91026" fill="#EBF6FF"/>
</g>
</g>
</g>
<g id="15">
<mask id="mask7_1491_1324" style="mask-type:alpha" maskUnits="userSpaceOnUse" x="9" y="17" width="76" height="55">
<path id="17_2" d="M46.8594 71.2971C61.7597 71.2971 74.6357 68.7874 80.7208 65.1483C83.1162 63.7157 84.4593 62.1081 84.4593 60.4097V17H9.25946V60.4097C9.25946 62.1081 10.6026 63.7157 12.998 65.1483C19.0831 68.7874 31.9591 71.2971 46.8594 71.2971Z" fill="#D9D9D9"/>
</mask>
<g mask="url(#mask7_1491_1324)">
<g id="Ellipse 6" opacity="0.8" filter="url(#filter15_f_1491_1324)">
<ellipse cx="6.87398" cy="23.8706" rx="6.87398" ry="23.8706" transform="matrix(0.99097 0.134082 -0.135438 0.990786 80.8256 32.9141)" fill="#24A4E2" fill-opacity="0.57"/>
</g>
<g id="Ellipse 7" opacity="0.8" filter="url(#filter16_f_1491_1324)">
<ellipse cx="6.87288" cy="23.8744" rx="6.87288" ry="23.8744" transform="matrix(0.975191 -0.221366 0.223533 0.974696 -2.8078 34.5586)" fill="#24A4E2" fill-opacity="0.57"/>
</g>
</g>
</g>
<g id="Group 445">
<g id="Ellipse 197" filter="url(#filter17_f_1491_1324)">
<ellipse cx="77.4986" cy="26.9451" rx="0.180939" ry="0.179505" fill="white"/>
</g>
<g id="Ellipse 215" filter="url(#filter18_f_1491_1324)">
<circle cx="82.6914" cy="15.2692" r="0.394189" fill="white"/>
</g>
<g id="Ellipse 214" filter="url(#filter19_f_1491_1324)">
<circle cx="81.1878" cy="7.08169" r="0.394189" fill="white"/>
</g>
<circle id="Ellipse 198" cx="73.2169" cy="47.2497" r="0.394189" fill="white"/>
<circle id="Ellipse 209" cx="52.9766" cy="64.3551" r="0.394189" fill="white"/>
<g id="Ellipse 203" filter="url(#filter20_f_1491_1324)">
<circle cx="37.2343" cy="53.9372" r="0.394189" fill="white"/>
</g>
<circle id="Ellipse 204" cx="67.9656" cy="56.9137" r="0.394189" fill="white"/>
<circle id="Ellipse 211" cx="81.4619" cy="36.8317" r="0.394189" fill="white"/>
<circle id="Ellipse 213" cx="79.692" cy="0.394189" r="0.394189" fill="white"/>
<circle id="Ellipse 212" cx="82.6914" cy="2.62075" r="0.394189" fill="white"/>
<circle id="Ellipse 210" cx="77.7119" cy="30.1403" r="0.394189" fill="white"/>
<circle id="Ellipse 207" cx="13.9947" cy="44.2692" r="0.394189" fill="white"/>
<circle id="Ellipse 216" cx="11.2697" cy="24.9333" r="0.394189" fill="white"/>
<circle id="Ellipse 217" cx="9.76614" cy="27.1598" r="0.394189" fill="white"/>
<g id="Ellipse 205" filter="url(#filter21_f_1491_1324)">
<circle cx="73.2169" cy="53.9372" r="0.394189" fill="white"/>
</g>
<circle id="Ellipse 206" cx="12.4935" cy="50.9606" r="0.394189" fill="white"/>
<circle id="Ellipse 208" cx="20.7414" cy="60.6247" r="0.394189" fill="white"/>
<g id="Ellipse 199" filter="url(#filter22_f_1491_1324)">
<circle cx="13.9436" cy="46.652" r="0.394189" fill="white"/>
</g>
<g id="Ellipse 200" filter="url(#filter23_f_1491_1324)">
<circle cx="69.464" cy="44.2692" r="0.394189" fill="white"/>
</g>
<g id="Ellipse 201" filter="url(#filter24_f_1491_1324)">
<circle cx="45.4284" cy="45.9293" r="0.394189" fill="white"/>
</g>
<g id="Ellipse 202" filter="url(#filter25_f_1491_1324)">
<circle cx="15.0257" cy="56.7145" r="0.394189" fill="white"/>
</g>
</g>
</g>
</g>
<g id="Group 1707479717">
<g id="Vector_14">
<path d="M26.8795 10.3887C26.6813 10.3887 26.485 10.4277 26.3018 10.5036C26.1187 10.5795 25.9523 10.6906 25.8121 10.8308C25.672 10.971 25.5608 11.1374 25.4849 11.3205C25.409 11.5037 25.37 11.7 25.37 11.8982C25.37 12.0964 25.409 12.2927 25.4849 12.4759C25.5608 12.659 25.672 12.8254 25.8121 12.9656C25.9523 13.1058 26.1187 13.217 26.3018 13.2928C26.485 13.3687 26.6813 13.4077 26.8795 13.4077C27.2799 13.4077 27.6638 13.2487 27.9469 12.9656C28.23 12.6825 28.389 12.2986 28.389 11.8982C28.389 11.4979 28.23 11.1139 27.9469 10.8308C27.6638 10.5477 27.2799 10.3887 26.8795 10.3887ZM23.9814 11.8974C23.9724 11.5113 24.0407 11.1272 24.1822 10.7678C24.3238 10.4084 24.5358 10.081 24.8057 9.80466C25.0757 9.52837 25.3981 9.30882 25.7541 9.15893C26.1101 9.00904 26.4925 8.93182 26.8787 8.93182C27.265 8.93182 27.6474 9.00904 28.0034 9.15893C28.3594 9.30882 28.6818 9.52837 28.9517 9.80466C29.2217 10.081 29.4337 10.4084 29.5752 10.7678C29.7168 11.1272 29.7851 11.5113 29.7761 11.8974C29.7514 12.6491 29.4353 13.3618 28.8948 13.8848C28.3543 14.4078 27.6316 14.7002 26.8795 14.7002C26.1274 14.7002 25.4047 14.4078 24.8642 13.8848C24.3237 13.3618 24.0077 12.6491 23.9829 11.8974H23.9814ZM47.008 17.5718C46.6075 17.5718 46.2233 17.7309 45.9401 18.0142C45.6569 18.2974 45.4977 18.6816 45.4977 19.0821C45.4977 19.4827 45.6569 19.8668 45.9401 20.1501C46.2233 20.4333 46.6075 20.5924 47.008 20.5924C47.4084 20.5924 47.7923 20.4334 48.0754 20.1503C48.3585 19.8672 48.5176 19.4832 48.5176 19.0829C48.5176 18.6825 48.3585 18.2986 48.0754 18.0155C47.7923 17.7324 47.4084 17.5734 47.008 17.5734V17.5718ZM44.1115 19.0821C44.1115 18.7017 44.1864 18.3251 44.3319 17.9736C44.4775 17.6222 44.6909 17.3029 44.9598 17.0339C45.2288 16.7649 45.5481 16.5516 45.8996 16.406C46.251 16.2605 46.6277 16.1855 47.008 16.1855C47.3884 16.1855 47.7651 16.2605 48.1165 16.406C48.4679 16.5516 48.7873 16.7649 49.0562 17.0339C49.3252 17.3029 49.5386 17.6222 49.6841 17.9736C49.8297 18.3251 49.9046 18.7017 49.9046 19.0821C49.9046 19.8503 49.5995 20.5871 49.0562 21.1303C48.513 21.6735 47.7763 21.9787 47.008 21.9787C46.2398 21.9787 45.5031 21.6735 44.9598 21.1303C44.4166 20.5871 44.1115 19.8503 44.1115 19.0821Z" fill="url(#paint16_linear_1491_1324)"/>
<path d="M26.8795 10.3887C26.6813 10.3887 26.485 10.4277 26.3018 10.5036C26.1187 10.5795 25.9523 10.6906 25.8121 10.8308C25.672 10.971 25.5608 11.1374 25.4849 11.3205C25.409 11.5037 25.37 11.7 25.37 11.8982C25.37 12.0964 25.409 12.2927 25.4849 12.4759C25.5608 12.659 25.672 12.8254 25.8121 12.9656C25.9523 13.1058 26.1187 13.217 26.3018 13.2928C26.485 13.3687 26.6813 13.4077 26.8795 13.4077C27.2799 13.4077 27.6638 13.2487 27.9469 12.9656C28.23 12.6825 28.389 12.2986 28.389 11.8982C28.389 11.4979 28.23 11.1139 27.9469 10.8308C27.6638 10.5477 27.2799 10.3887 26.8795 10.3887ZM23.9814 11.8974C23.9724 11.5113 24.0407 11.1272 24.1822 10.7678C24.3238 10.4084 24.5358 10.081 24.8057 9.80466C25.0757 9.52837 25.3981 9.30882 25.7541 9.15893C26.1101 9.00904 26.4925 8.93182 26.8787 8.93182C27.265 8.93182 27.6474 9.00904 28.0034 9.15893C28.3594 9.30882 28.6818 9.52837 28.9517 9.80466C29.2217 10.081 29.4337 10.4084 29.5752 10.7678C29.7168 11.1272 29.7851 11.5113 29.7761 11.8974C29.7514 12.6491 29.4353 13.3618 28.8948 13.8848C28.3543 14.4078 27.6316 14.7002 26.8795 14.7002C26.1274 14.7002 25.4047 14.4078 24.8642 13.8848C24.3237 13.3618 24.0077 12.6491 23.9829 11.8974H23.9814ZM47.008 17.5718C46.6075 17.5718 46.2233 17.7309 45.9401 18.0142C45.6569 18.2974 45.4977 18.6816 45.4977 19.0821C45.4977 19.4827 45.6569 19.8668 45.9401 20.1501C46.2233 20.4333 46.6075 20.5924 47.008 20.5924C47.4084 20.5924 47.7923 20.4334 48.0754 20.1503C48.3585 19.8672 48.5176 19.4832 48.5176 19.0829C48.5176 18.6825 48.3585 18.2986 48.0754 18.0155C47.7923 17.7324 47.4084 17.5734 47.008 17.5734V17.5718ZM44.1115 19.0821C44.1115 18.7017 44.1864 18.3251 44.3319 17.9736C44.4775 17.6222 44.6909 17.3029 44.9598 17.0339C45.2288 16.7649 45.5481 16.5516 45.8996 16.406C46.251 16.2605 46.6277 16.1855 47.008 16.1855C47.3884 16.1855 47.7651 16.2605 48.1165 16.406C48.4679 16.5516 48.7873 16.7649 49.0562 17.0339C49.3252 17.3029 49.5386 17.6222 49.6841 17.9736C49.8297 18.3251 49.9046 18.7017 49.9046 19.0821C49.9046 19.8503 49.5995 20.5871 49.0562 21.1303C48.513 21.6735 47.7763 21.9787 47.008 21.9787C46.2398 21.9787 45.5031 21.6735 44.9598 21.1303C44.4166 20.5871 44.1115 19.8503 44.1115 19.0821Z" fill="url(#paint17_radial_1491_1324)"/>
<path d="M26.8528 27.6646C26.727 27.6663 26.6021 27.6427 26.4855 27.5954C26.369 27.548 26.2631 27.4777 26.1741 27.3888C26.0851 27.2998 26.0149 27.1939 25.9675 27.0773C25.9201 26.9607 25.8966 26.8359 25.8983 26.71V13.7829H27.8074V26.71C27.809 26.8359 27.7855 26.9607 27.7381 27.0773C27.6908 27.1939 27.6205 27.2998 27.5315 27.3888C27.4426 27.4777 27.3367 27.548 27.2201 27.5954C27.1035 27.6427 26.9786 27.6663 26.8528 27.6646Z" fill="url(#paint18_linear_1491_1324)"/>
<path d="M26.8528 27.6646C26.727 27.6663 26.6021 27.6427 26.4855 27.5954C26.369 27.548 26.2631 27.4777 26.1741 27.3888C26.0851 27.2998 26.0149 27.1939 25.9675 27.0773C25.9201 26.9607 25.8966 26.8359 25.8983 26.71V13.7829H27.8074V26.71C27.809 26.8359 27.7855 26.9607 27.7381 27.0773C27.6908 27.1939 27.6205 27.2998 27.5315 27.3888C27.4426 27.4777 27.3367 27.548 27.2201 27.5954C27.1035 27.6427 26.9786 27.6663 26.8528 27.6646Z" fill="url(#paint19_radial_1491_1324)"/>
<path d="M40.1567 13.5731C40.1758 13.552 40.1957 13.5315 40.2164 13.5119C40.5565 13.1798 40.9167 12.8689 41.2949 12.5809C42.2356 11.8577 43.2826 11.2847 44.3987 10.8822C45.6736 10.4363 47.1383 10.2228 48.7177 10.5478C50.2924 10.8728 52.057 11.7472 53.9112 13.6014C54.0079 13.698 54.1226 13.7748 54.249 13.8271C54.3753 13.8794 54.5107 13.9063 54.6475 13.9063C54.7842 13.9063 54.9196 13.8794 55.046 13.8271C55.1723 13.7748 55.2871 13.698 55.3838 13.6014C55.4805 13.5047 55.5572 13.3899 55.6095 13.2635C55.6618 13.1372 55.6888 13.0018 55.6888 12.865C55.6888 12.7283 55.6618 12.5929 55.6095 12.4666C55.5572 12.3402 55.4805 12.2254 55.3838 12.1287C53.2832 10.0281 51.1653 8.926 49.1369 8.50839C47.1164 8.09235 45.2622 8.37337 43.7111 8.91658C42.3894 9.3916 41.1496 10.069 40.0358 10.9246C39.5811 11.2703 39.1485 11.6441 38.7406 12.0439L38.6652 12.1224L38.6338 12.1538C38.6338 12.1538 38.6323 12.1554 39.3796 12.8493L38.6323 12.1554C38.4455 12.3578 38.3466 12.6259 38.3571 12.9011C38.3676 13.1762 38.4867 13.436 38.6884 13.6235C38.89 13.8111 39.1577 13.9111 39.4329 13.9016C39.7082 13.8921 39.9684 13.774 40.1567 13.5731Z" fill="url(#paint20_linear_1491_1324)"/>
<path d="M40.1567 13.5731C40.1758 13.552 40.1957 13.5315 40.2164 13.5119C40.5565 13.1798 40.9167 12.8689 41.2949 12.5809C42.2356 11.8577 43.2826 11.2847 44.3987 10.8822C45.6736 10.4363 47.1383 10.2228 48.7177 10.5478C50.2924 10.8728 52.057 11.7472 53.9112 13.6014C54.0079 13.698 54.1226 13.7748 54.249 13.8271C54.3753 13.8794 54.5107 13.9063 54.6475 13.9063C54.7842 13.9063 54.9196 13.8794 55.046 13.8271C55.1723 13.7748 55.2871 13.698 55.3838 13.6014C55.4805 13.5047 55.5572 13.3899 55.6095 13.2635C55.6618 13.1372 55.6888 13.0018 55.6888 12.865C55.6888 12.7283 55.6618 12.5929 55.6095 12.4666C55.5572 12.3402 55.4805 12.2254 55.3838 12.1287C53.2832 10.0281 51.1653 8.926 49.1369 8.50839C47.1164 8.09235 45.2622 8.37337 43.7111 8.91658C42.3894 9.3916 41.1496 10.069 40.0358 10.9246C39.5811 11.2703 39.1485 11.6441 38.7406 12.0439L38.6652 12.1224L38.6338 12.1538C38.6338 12.1538 38.6323 12.1554 39.3796 12.8493L38.6323 12.1554C38.4455 12.3578 38.3466 12.6259 38.3571 12.9011C38.3676 13.1762 38.4867 13.436 38.6884 13.6235C38.89 13.8111 39.1577 13.9111 39.4329 13.9016C39.7082 13.8921 39.9684 13.774 40.1567 13.5731Z" fill="url(#paint21_radial_1491_1324)"/>
<path d="M42.7252 15.8794L42.7283 15.8747L42.7566 15.8464L42.8869 15.7224C43.0046 15.6125 43.1852 15.4555 43.416 15.2812C43.8838 14.9264 44.5401 14.5119 45.3203 14.2403C46.1491 13.9374 47.045 13.8673 47.9108 14.0378C48.8465 14.2309 49.9219 14.7537 51.0711 15.9029C51.2664 16.0982 51.5313 16.2079 51.8074 16.2079C52.0836 16.2079 52.3485 16.0982 52.5437 15.9029C52.739 15.7076 52.8487 15.4428 52.8487 15.1666C52.8487 14.8904 52.739 14.6256 52.5437 14.4303C51.1465 13.0346 49.7178 12.2842 48.3315 11.9984C47.0969 11.7519 45.8185 11.8474 44.6343 12.2747C43.7443 12.5931 42.9091 13.0475 42.1584 13.6218C41.8249 13.8752 41.5092 14.1511 41.2133 14.4476L41.2086 14.4539L41.2054 14.4554L41.9543 15.1572L41.2039 14.457C41.0153 14.6587 40.9145 14.9271 40.9238 15.2032C40.9331 15.4792 41.0516 15.7402 41.2533 15.9288C41.4551 16.1175 41.7235 16.2182 41.9995 16.2089C42.2755 16.1997 42.5366 16.0811 42.7252 15.8794ZM26.7806 43.7238C25.9254 43.7238 25.0786 43.8922 24.2885 44.2195C23.4984 44.5468 22.7805 45.0264 22.1758 45.6312C21.5711 46.2359 21.0914 46.9538 20.7641 47.7439C20.4368 48.534 20.2684 49.3808 20.2684 50.236C20.2684 51.0912 20.4368 51.938 20.7641 52.7281C21.0914 53.5182 21.5711 54.2361 22.1758 54.8408C22.7805 55.4455 23.4984 55.9252 24.2885 56.2525C25.0786 56.5798 25.9254 56.7482 26.7806 56.7482C28.5078 56.7482 30.1642 56.0621 31.3854 54.8408C32.6067 53.6195 33.2928 51.9631 33.2928 50.236C33.2928 48.5088 32.6067 46.8524 31.3854 45.6312C30.1642 44.4099 28.5078 43.7238 26.7806 43.7238ZM18.3091 50.2376C18.2938 49.1155 18.5016 48.0015 18.9205 46.9604C19.3393 45.9193 19.9608 44.9718 20.7489 44.1729C21.537 43.374 22.476 42.7396 23.5113 42.3066C24.5466 41.8737 25.6576 41.6507 26.7798 41.6507C27.902 41.6507 29.013 41.8737 30.0484 42.3066C31.0837 42.7396 32.0226 43.374 32.8107 44.1729C33.5988 44.9718 34.2203 45.9193 34.6392 46.9604C35.058 48.0015 35.2658 49.1155 35.2506 50.2376C35.2203 52.4642 34.3145 54.5893 32.7292 56.1531C31.1439 57.717 29.0066 58.5938 26.7798 58.5938C24.553 58.5938 22.4157 57.717 20.8305 56.1531C19.2452 54.5893 18.3394 52.4642 18.3091 50.2376Z" fill="url(#paint22_linear_1491_1324)"/>
<path d="M42.7252 15.8794L42.7283 15.8747L42.7566 15.8464L42.8869 15.7224C43.0046 15.6125 43.1852 15.4555 43.416 15.2812C43.8838 14.9264 44.5401 14.5119 45.3203 14.2403C46.1491 13.9374 47.045 13.8673 47.9108 14.0378C48.8465 14.2309 49.9219 14.7537 51.0711 15.9029C51.2664 16.0982 51.5313 16.2079 51.8074 16.2079C52.0836 16.2079 52.3485 16.0982 52.5437 15.9029C52.739 15.7076 52.8487 15.4428 52.8487 15.1666C52.8487 14.8904 52.739 14.6256 52.5437 14.4303C51.1465 13.0346 49.7178 12.2842 48.3315 11.9984C47.0969 11.7519 45.8185 11.8474 44.6343 12.2747C43.7443 12.5931 42.9091 13.0475 42.1584 13.6218C41.8249 13.8752 41.5092 14.1511 41.2133 14.4476L41.2086 14.4539L41.2054 14.4554L41.9543 15.1572L41.2039 14.457C41.0153 14.6587 40.9145 14.9271 40.9238 15.2032C40.9331 15.4792 41.0516 15.7402 41.2533 15.9288C41.4551 16.1175 41.7235 16.2182 41.9995 16.2089C42.2755 16.1997 42.5366 16.0811 42.7252 15.8794ZM26.7806 43.7238C25.9254 43.7238 25.0786 43.8922 24.2885 44.2195C23.4984 44.5468 22.7805 45.0264 22.1758 45.6312C21.5711 46.2359 21.0914 46.9538 20.7641 47.7439C20.4368 48.534 20.2684 49.3808 20.2684 50.236C20.2684 51.0912 20.4368 51.938 20.7641 52.7281C21.0914 53.5182 21.5711 54.2361 22.1758 54.8408C22.7805 55.4455 23.4984 55.9252 24.2885 56.2525C25.0786 56.5798 25.9254 56.7482 26.7806 56.7482C28.5078 56.7482 30.1642 56.0621 31.3854 54.8408C32.6067 53.6195 33.2928 51.9631 33.2928 50.236C33.2928 48.5088 32.6067 46.8524 31.3854 45.6312C30.1642 44.4099 28.5078 43.7238 26.7806 43.7238ZM18.3091 50.2376C18.2938 49.1155 18.5016 48.0015 18.9205 46.9604C19.3393 45.9193 19.9608 44.9718 20.7489 44.1729C21.537 43.374 22.476 42.7396 23.5113 42.3066C24.5466 41.8737 25.6576 41.6507 26.7798 41.6507C27.902 41.6507 29.013 41.8737 30.0484 42.3066C31.0837 42.7396 32.0226 43.374 32.8107 44.1729C33.5988 44.9718 34.2203 45.9193 34.6392 46.9604C35.058 48.0015 35.2658 49.1155 35.2506 50.2376C35.2203 52.4642 34.3145 54.5893 32.7292 56.1531C31.1439 57.717 29.0066 58.5938 26.7798 58.5938C24.553 58.5938 22.4157 57.717 20.8305 56.1531C19.2452 54.5893 18.3394 52.4642 18.3091 50.2376Z" fill="url(#paint23_radial_1491_1324)"/>
<path d="M26.7806 54.0086C27.2822 54.0189 27.7808 53.9289 28.2472 53.744C28.7136 53.5591 29.1384 53.2831 29.4968 52.9319C29.8551 52.5808 30.1398 52.1617 30.3342 51.6992C30.5285 51.2367 30.6286 50.74 30.6286 50.2383C30.6286 49.7366 30.5285 49.24 30.3342 48.7775C30.1398 48.3149 29.8551 47.8959 29.4968 47.5447C29.1384 47.1936 28.7136 46.9175 28.2472 46.7327C27.7808 46.5478 27.2822 46.4578 26.7806 46.4681C25.794 46.4882 24.8546 46.8943 24.164 47.5991C23.4733 48.304 23.0865 49.2515 23.0865 50.2383C23.0865 51.2252 23.4733 52.1727 24.164 52.8775C24.8546 53.5824 25.794 53.9885 26.7806 54.0086Z" fill="url(#paint24_linear_1491_1324)"/>
<path d="M26.7806 54.0086C27.2822 54.0189 27.7808 53.9289 28.2472 53.744C28.7136 53.5591 29.1384 53.2831 29.4968 52.9319C29.8551 52.5808 30.1398 52.1617 30.3342 51.6992C30.5285 51.2367 30.6286 50.74 30.6286 50.2383C30.6286 49.7366 30.5285 49.24 30.3342 48.7775C30.1398 48.3149 29.8551 47.8959 29.4968 47.5447C29.1384 47.1936 28.7136 46.9175 28.2472 46.7327C27.7808 46.5478 27.2822 46.4578 26.7806 46.4681C25.794 46.4882 24.8546 46.8943 24.164 47.5991C23.4733 48.304 23.0865 49.2515 23.0865 50.2383C23.0865 51.2252 23.4733 52.1727 24.164 52.8775C24.8546 53.5824 25.794 53.9885 26.7806 54.0086Z" fill="url(#paint25_radial_1491_1324)"/>
<path d="M65.9999 43.8258C65.1446 43.8258 64.2977 43.9943 63.5075 44.3216C62.7173 44.6489 61.9993 45.1286 61.3945 45.7334C60.7898 46.3382 60.31 47.0562 59.9827 47.8464C59.6554 48.6366 59.4869 49.4835 59.4869 50.3388C59.4869 51.1941 59.6554 52.0411 59.9827 52.8312C60.31 53.6214 60.7898 54.3394 61.3945 54.9442C61.9993 55.549 62.7173 56.0287 63.5075 56.3561C64.2977 56.6834 65.1446 56.8518 65.9999 56.8518C67.7273 56.8518 69.3839 56.1656 70.6053 54.9442C71.8267 53.7228 72.5129 52.0662 72.5129 50.3388C72.5129 48.6115 71.8267 46.9549 70.6053 45.7334C69.3839 44.512 67.7273 43.8258 65.9999 43.8258ZM57.5284 50.3396C57.5284 48.0928 58.4209 45.9381 60.0097 44.3493C61.5984 42.7606 63.7531 41.8681 65.9999 41.8681C68.2467 41.8681 70.4015 42.7606 71.9902 44.3493C73.5789 45.9381 74.4715 48.0928 74.4715 50.3396C74.4715 52.5864 73.5789 54.7412 71.9902 56.3299C70.4015 57.9186 68.2467 58.8111 65.9999 58.8111C63.7531 58.8111 61.5984 57.9186 60.0097 56.3299C58.4209 54.7412 57.5284 52.5864 57.5284 50.3396Z" fill="url(#paint26_linear_1491_1324)"/>
<path d="M65.9999 43.8258C65.1446 43.8258 64.2977 43.9943 63.5075 44.3216C62.7173 44.6489 61.9993 45.1286 61.3945 45.7334C60.7898 46.3382 60.31 47.0562 59.9827 47.8464C59.6554 48.6366 59.4869 49.4835 59.4869 50.3388C59.4869 51.1941 59.6554 52.0411 59.9827 52.8312C60.31 53.6214 60.7898 54.3394 61.3945 54.9442C61.9993 55.549 62.7173 56.0287 63.5075 56.3561C64.2977 56.6834 65.1446 56.8518 65.9999 56.8518C67.7273 56.8518 69.3839 56.1656 70.6053 54.9442C71.8267 53.7228 72.5129 52.0662 72.5129 50.3388C72.5129 48.6115 71.8267 46.9549 70.6053 45.7334C69.3839 44.512 67.7273 43.8258 65.9999 43.8258ZM57.5284 50.3396C57.5284 48.0928 58.4209 45.9381 60.0097 44.3493C61.5984 42.7606 63.7531 41.8681 65.9999 41.8681C68.2467 41.8681 70.4015 42.7606 71.9902 44.3493C73.5789 45.9381 74.4715 48.0928 74.4715 50.3396C74.4715 52.5864 73.5789 54.7412 71.9902 56.3299C70.4015 57.9186 68.2467 58.8111 65.9999 58.8111C63.7531 58.8111 61.5984 57.9186 60.0097 56.3299C58.4209 54.7412 57.5284 52.5864 57.5284 50.3396Z" fill="url(#paint27_radial_1491_1324)"/>
<path d="M66.0015 54.1075C67.0014 54.1075 67.9604 53.7103 68.6675 53.0032C69.3745 52.2962 69.7717 51.3372 69.7717 50.3373C69.7717 49.3373 69.3745 48.3783 68.6675 47.6713C67.9604 46.9642 67.0014 46.567 66.0015 46.567C65.0015 46.567 64.0425 46.9642 63.3355 47.6713C62.6284 48.3783 62.2312 49.3373 62.2312 50.3373C62.2312 51.3372 62.6284 52.2962 63.3355 53.0032C64.0425 53.7103 65.0015 54.1075 66.0015 54.1075Z" fill="url(#paint28_linear_1491_1324)"/>
<path d="M66.0015 54.1075C67.0014 54.1075 67.9604 53.7103 68.6675 53.0032C69.3745 52.2962 69.7717 51.3372 69.7717 50.3373C69.7717 49.3373 69.3745 48.3783 68.6675 47.6713C67.9604 46.9642 67.0014 46.567 66.0015 46.567C65.0015 46.567 64.0425 46.9642 63.3355 47.6713C62.6284 48.3783 62.2312 49.3373 62.2312 50.3373C62.2312 51.3372 62.6284 52.2962 63.3355 53.0032C64.0425 53.7103 65.0015 54.1075 66.0015 54.1075Z" fill="url(#paint29_radial_1491_1324)"/>
<path d="M60.6636 33.5394C60.2744 33.5386 59.9013 33.3837 59.626 33.1086C59.3506 32.8336 59.1953 32.4607 59.1941 32.0715C59.1941 31.2629 59.8551 30.602 60.6636 30.602H66.4159C65.8428 29.2171 64.8714 28.0334 63.6248 27.2011C62.3783 26.3688 60.9128 25.9252 59.4139 25.9266H33.5377C31.7252 25.9254 29.9724 26.5745 28.5979 27.756C27.2234 28.9375 26.3184 30.5729 26.0474 32.3651H34.8612L40.6858 38.0939H60.3465C60.8598 38.0939 61.2774 38.6088 61.2774 39.2446C61.2774 39.8805 60.8598 40.3954 60.3465 40.3954H40.0248L34.2222 34.6651H25.9721V41.8037C27.1555 41.6904 28.3496 41.8274 29.4766 42.2059C30.6036 42.5844 31.6383 43.1958 32.5135 44.0005C33.3886 44.8052 34.0846 45.785 34.5562 46.8764C35.0278 47.9677 35.2643 49.1461 35.2506 50.3349H57.5299C57.5299 49.1377 57.7837 47.9541 58.2744 46.8622C58.7652 45.7702 59.4818 44.7947 60.3771 43.9999C61.2723 43.2051 62.3259 42.609 63.4683 42.251C64.6106 41.893 65.8159 41.7812 67.0047 41.923V33.5394H60.662H60.6636Z" fill="url(#paint30_linear_1491_1324)"/>
<path d="M60.6636 33.5394C60.2744 33.5386 59.9013 33.3837 59.626 33.1086C59.3506 32.8336 59.1953 32.4607 59.1941 32.0715C59.1941 31.2629 59.8551 30.602 60.6636 30.602H66.4159C65.8428 29.2171 64.8714 28.0334 63.6248 27.2011C62.3783 26.3688 60.9128 25.9252 59.4139 25.9266H33.5377C31.7252 25.9254 29.9724 26.5745 28.5979 27.756C27.2234 28.9375 26.3184 30.5729 26.0474 32.3651H34.8612L40.6858 38.0939H60.3465C60.8598 38.0939 61.2774 38.6088 61.2774 39.2446C61.2774 39.8805 60.8598 40.3954 60.3465 40.3954H40.0248L34.2222 34.6651H25.9721V41.8037C27.1555 41.6904 28.3496 41.8274 29.4766 42.2059C30.6036 42.5844 31.6383 43.1958 32.5135 44.0005C33.3886 44.8052 34.0846 45.785 34.5562 46.8764C35.0278 47.9677 35.2643 49.1461 35.2506 50.3349H57.5299C57.5299 49.1377 57.7837 47.9541 58.2744 46.8622C58.7652 45.7702 59.4818 44.7947 60.3771 43.9999C61.2723 43.2051 62.3259 42.609 63.4683 42.251C64.6106 41.893 65.8159 41.7812 67.0047 41.923V33.5394H60.662H60.6636Z" fill="url(#paint31_radial_1491_1324)"/>
</g>
<g id="Vector_15" filter="url(#filter26_iii_1491_1324)">
<path d="M25.5712 10.0801C25.373 10.0801 25.1767 10.1191 24.9936 10.195C24.8104 10.2709 24.644 10.3821 24.5038 10.5222C24.3637 10.6624 24.2525 10.8288 24.1766 11.012C24.1008 11.1951 24.0617 11.3914 24.0617 11.5896C24.0617 11.7879 24.1008 11.9841 24.1766 12.1673C24.2525 12.3504 24.3637 12.5168 24.5038 12.657C24.644 12.7972 24.8104 12.9084 24.9936 12.9842C25.1767 13.0601 25.373 13.0991 25.5712 13.0991C25.9716 13.0991 26.3555 12.9401 26.6386 12.657C26.9217 12.3739 27.0808 11.99 27.0808 11.5896C27.0808 11.1893 26.9217 10.8053 26.6386 10.5222C26.3555 10.2391 25.9716 10.0801 25.5712 10.0801ZM22.6731 11.5888C22.6641 11.2027 22.7324 10.8186 22.8739 10.4592C23.0155 10.0998 23.2275 9.77236 23.4974 9.49607C23.7674 9.21977 24.0898 9.00023 24.4458 8.85034C24.8018 8.70045 25.1842 8.62323 25.5704 8.62323C25.9567 8.62323 26.3391 8.70045 26.6951 8.85034C27.0511 9.00023 27.3735 9.21977 27.6435 9.49607C27.9134 9.77236 28.1254 10.0998 28.2669 10.4592C28.4085 10.8186 28.4768 11.2027 28.4678 11.5888C28.4431 12.3406 28.127 13.0532 27.5865 13.5762C27.046 14.0992 26.3234 14.3916 25.5712 14.3916C24.8191 14.3916 24.0964 14.0992 23.5559 13.5762C23.0154 13.0532 22.6994 12.3406 22.6746 11.5888H22.6731ZM45.6998 17.2632C45.2992 17.2632 44.915 17.4223 44.6318 17.7056C44.3486 17.9888 44.1894 18.373 44.1894 18.7735C44.1894 19.1741 44.3486 19.5582 44.6318 19.8415C44.915 20.1247 45.2992 20.2838 45.6998 20.2838C46.1001 20.2838 46.4841 20.1248 46.7671 19.8417C47.0502 19.5586 47.2093 19.1747 47.2093 18.7743C47.2093 18.374 47.0502 17.99 46.7671 17.7069C46.4841 17.4238 46.1001 17.2648 45.6998 17.2648V17.2632ZM42.8032 18.7735C42.8032 18.3931 42.8781 18.0165 43.0237 17.665C43.1692 17.3136 43.3826 16.9943 43.6516 16.7253C43.9205 16.4564 44.2398 16.243 44.5913 16.0974C44.9427 15.9519 45.3194 15.8769 45.6998 15.8769C46.0801 15.8769 46.4568 15.9519 46.8082 16.0974C47.1597 16.243 47.479 16.4564 47.7479 16.7253C48.0169 16.9943 48.2303 17.3136 48.3759 17.665C48.5214 18.0165 48.5963 18.3931 48.5963 18.7735C48.5963 19.5417 48.2912 20.2785 47.7479 20.8217C47.2047 21.3649 46.468 21.6701 45.6998 21.6701C44.9315 21.6701 44.1948 21.3649 43.6516 20.8217C43.1083 20.2785 42.8032 19.5417 42.8032 18.7735Z" fill="url(#paint32_linear_1491_1324)"/>
<path d="M25.5445 27.356C25.4187 27.3577 25.2938 27.3341 25.1773 27.2868C25.0607 27.2394 24.9548 27.1691 24.8658 27.0802C24.7768 26.9912 24.7066 26.8853 24.6592 26.7687C24.6118 26.6522 24.5883 26.5273 24.59 26.4014V13.4744H26.4991V26.4014C26.5008 26.5273 26.4772 26.6522 26.4299 26.7687C26.3825 26.8853 26.3122 26.9912 26.2233 27.0802C26.1343 27.1691 26.0284 27.2394 25.9118 27.2868C25.7952 27.3341 25.6704 27.3577 25.5445 27.356Z" fill="url(#paint33_linear_1491_1324)"/>
<path d="M38.8484 13.2645C38.8675 13.2434 38.8874 13.2229 38.9081 13.2033C39.2482 12.8712 39.6084 12.5603 39.9866 12.2723C40.9273 11.5491 41.9743 10.9761 43.0905 10.5736C44.3653 10.1277 45.83 9.91419 47.4094 10.2392C48.9841 10.5642 50.7487 11.4386 52.6029 13.2928C52.6996 13.3895 52.8144 13.4662 52.9407 13.5185C53.067 13.5708 53.2024 13.5978 53.3392 13.5978C53.4759 13.5978 53.6113 13.5708 53.7377 13.5185C53.864 13.4662 53.9788 13.3895 54.0755 13.2928C54.1722 13.1961 54.2489 13.0813 54.3012 12.9549C54.3536 12.8286 54.3805 12.6932 54.3805 12.5564C54.3805 12.4197 54.3536 12.2843 54.3012 12.158C54.2489 12.0316 54.1722 11.9168 54.0755 11.8201C51.9749 9.71952 49.857 8.6174 47.8286 8.19979C45.8081 7.78375 43.9539 8.06478 42.4028 8.60798C41.0812 9.08301 39.8413 9.76041 38.7275 10.616C38.2728 10.9617 37.8402 11.3355 37.4323 11.7354L37.3569 11.8139L37.3255 11.8453C37.3255 11.8453 37.324 11.8468 38.0713 12.5407L37.324 11.8468C37.1372 12.0492 37.0383 12.3173 37.0488 12.5925C37.0593 12.8676 37.1784 13.1274 37.3801 13.315C37.5817 13.5025 37.8495 13.6025 38.1247 13.593C38.3999 13.5835 38.6601 13.4654 38.8484 13.2645Z" fill="url(#paint34_linear_1491_1324)"/>
<path d="M41.4169 15.5708L41.42 15.5661L41.4483 15.5378L41.5786 15.4138C41.6963 15.3039 41.8769 15.1469 42.1077 14.9726C42.5755 14.6178 43.2318 14.2033 44.012 13.9317C44.8408 13.6288 45.7367 13.5587 46.6025 13.7292C47.5382 13.9223 48.6136 14.4451 49.7628 15.5943C49.9581 15.7896 50.223 15.8993 50.4991 15.8993C50.7753 15.8993 51.0402 15.7896 51.2355 15.5943C51.4307 15.3991 51.5404 15.1342 51.5404 14.858C51.5404 14.5819 51.4307 14.317 51.2355 14.1217C49.8382 12.726 48.4095 11.9756 47.0232 11.6898C45.7887 11.4433 44.5102 11.5389 43.326 11.9661C42.436 12.2845 41.6008 12.7389 40.8501 13.3132C40.5167 13.5666 40.2009 13.8425 39.905 14.139L39.9003 14.1453L39.8972 14.1468L40.646 14.8486L39.8956 14.1484C39.707 14.3501 39.6062 14.6185 39.6155 14.8946C39.6248 15.1706 39.7433 15.4316 39.945 15.6202C40.1468 15.8089 40.4152 15.9096 40.6912 15.9003C40.9672 15.8911 41.2283 15.7725 41.4169 15.5708ZM25.4723 43.4152C24.6171 43.4152 23.7703 43.5836 22.9802 43.9109C22.1901 44.2382 21.4722 44.7178 20.8675 45.3226C20.2628 45.9273 19.7831 46.6452 19.4558 47.4353C19.1285 48.2254 18.9601 49.0722 18.9601 49.9274C18.9601 50.7826 19.1285 51.6294 19.4558 52.4195C19.7831 53.2096 20.2628 53.9275 20.8675 54.5322C21.4722 55.1369 22.1901 55.6166 22.9802 55.9439C23.7703 56.2712 24.6171 56.4396 25.4723 56.4396C27.1995 56.4396 28.8559 55.7535 30.0772 54.5322C31.2984 53.3109 31.9845 51.6545 31.9845 49.9274C31.9845 48.2002 31.2984 46.5438 30.0772 45.3226C28.8559 44.1013 27.1995 43.4152 25.4723 43.4152ZM17.0008 49.929C16.9855 48.8069 17.1933 47.6929 17.6122 46.6518C18.031 45.6107 18.6525 44.6632 19.4406 43.8643C20.2287 43.0654 21.1677 42.431 22.203 41.998C23.2383 41.5651 24.3493 41.3421 25.4715 41.3421C26.5937 41.3421 27.7048 41.5651 28.7401 41.998C29.7754 42.431 30.7144 43.0654 31.5024 43.8643C32.2905 44.6632 32.9121 45.6107 33.3309 46.6518C33.7497 47.6929 33.9576 48.8069 33.9423 49.929C33.912 52.1556 33.0062 54.2807 31.4209 55.8446C29.8356 57.4084 27.6983 58.2852 25.4715 58.2852C23.2447 58.2852 21.1074 57.4084 19.5222 55.8446C17.9369 54.2807 17.0311 52.1556 17.0008 49.929Z" fill="url(#paint35_linear_1491_1324)"/>
<path d="M25.4723 53.7C25.9739 53.7103 26.4725 53.6203 26.9389 53.4354C27.4053 53.2505 27.8301 52.9745 28.1885 52.6234C28.5468 52.2722 28.8315 51.8531 29.0259 51.3906C29.2202 50.9281 29.3203 50.4314 29.3203 49.9298C29.3203 49.4281 29.2202 48.9314 29.0259 48.4689C28.8315 48.0064 28.5468 47.5873 28.1885 47.2361C27.8301 46.885 27.4053 46.6089 26.9389 46.4241C26.4725 46.2392 25.9739 46.1492 25.4723 46.1595C24.4857 46.1796 23.5463 46.5857 22.8557 47.2905C22.165 47.9954 21.7782 48.9429 21.7782 49.9298C21.7782 50.9166 22.165 51.8641 22.8557 52.5689C23.5463 53.2738 24.4857 53.6799 25.4723 53.7Z" fill="url(#paint36_linear_1491_1324)"/>
<path d="M64.6916 43.5172C63.8363 43.5172 62.9894 43.6857 62.1992 44.013C61.409 44.3403 60.691 44.8201 60.0863 45.4248C59.4815 46.0296 59.0017 46.7476 58.6744 47.5378C58.3471 48.328 58.1786 49.1749 58.1786 50.0302C58.1786 50.8855 58.3471 51.7325 58.6744 52.5227C59.0017 53.3128 59.4815 54.0308 60.0863 54.6356C60.691 55.2404 61.409 55.7202 62.1992 56.0475C62.9894 56.3748 63.8363 56.5432 64.6916 56.5432C66.419 56.5432 68.0756 55.857 69.297 54.6356C70.5185 53.4142 71.2046 51.7576 71.2046 50.0302C71.2046 48.3029 70.5185 46.6463 69.297 45.4248C68.0756 44.2034 66.419 43.5172 64.6916 43.5172ZM56.2201 50.031C56.2201 47.7842 57.1126 45.6295 58.7014 44.0407C60.2901 42.452 62.4449 41.5595 64.6916 41.5595C66.9384 41.5595 69.0932 42.452 70.6819 44.0407C72.2706 45.6295 73.1632 47.7842 73.1632 50.031C73.1632 52.2778 72.2706 54.4326 70.6819 56.0213C69.0932 57.61 66.9384 58.5025 64.6916 58.5025C62.4449 58.5025 60.2901 57.61 58.7014 56.0213C57.1126 54.4326 56.2201 52.2778 56.2201 50.031Z" fill="url(#paint37_linear_1491_1324)"/>
<path d="M64.6932 53.7989C65.6931 53.7989 66.6521 53.4017 67.3592 52.6946C68.0662 51.9876 68.4635 51.0286 68.4635 50.0287C68.4635 49.0287 68.0662 48.0697 67.3592 47.3627C66.6521 46.6556 65.6931 46.2584 64.6932 46.2584C63.6932 46.2584 62.7343 46.6556 62.0272 47.3627C61.3201 48.0697 60.9229 49.0287 60.9229 50.0287C60.9229 51.0286 61.3201 51.9876 62.0272 52.6946C62.7343 53.4017 63.6932 53.7989 64.6932 53.7989Z" fill="url(#paint38_linear_1491_1324)"/>
<path d="M59.3553 33.2308C58.9661 33.23 58.593 33.0751 58.3177 32.8C58.0423 32.525 57.8871 32.1521 57.8858 31.7629C57.8858 30.9543 58.5468 30.2934 59.3553 30.2934H65.1077C64.5345 28.9085 63.5631 27.7248 62.3165 26.8925C61.07 26.0602 59.6045 25.6166 58.1056 25.618H32.2294C30.4169 25.6168 28.6641 26.266 27.2896 27.4474C25.9151 28.6289 25.0101 30.2643 24.7391 32.0565H33.5529L39.3775 37.7853H59.0382C59.5515 37.7853 59.9692 38.3002 59.9692 38.9361C59.9692 39.5719 59.5515 40.0868 59.0382 40.0868H38.7165L32.9139 34.3565H24.6638V41.4951C25.8472 41.3818 27.0413 41.5188 28.1683 41.8973C29.2953 42.2758 30.33 42.8872 31.2052 43.6919C32.0803 44.4966 32.7763 45.4764 33.2479 46.5678C33.7195 47.6591 33.9561 48.8375 33.9423 50.0263H56.2216C56.2217 48.8291 56.4754 47.6456 56.9662 46.5536C57.4569 45.4616 58.1735 44.4861 59.0688 43.6913C59.964 42.8965 61.0176 42.3004 62.16 41.9424C63.3024 41.5844 64.5076 41.4726 65.6964 41.6144V33.2308H59.3537H59.3553Z" fill="url(#paint39_linear_1491_1324)"/>
</g>
</g>
</g>
<defs>
<filter id="filter0_d_1491_1324" x="0" y="0" width="93.7192" height="96.8281" filterUnits="userSpaceOnUse" color-interpolation-filters="sRGB">
<feFlood flood-opacity="0" result="BackgroundImageFix"/>
<feColorMatrix in="SourceAlpha" type="matrix" values="0 0 0 0 0 0 0 0 0 0 0 0 0 0 0 0 0 0 127 0" result="hardAlpha"/>
<feOffset dy="2"/>
<feComposite in2="hardAlpha" operator="out"/>
<feColorMatrix type="matrix" values="0 0 0 0 0.782639 0 0 0 0 0.901001 0 0 0 0 0.958333 0 0 0 1 0"/>
<feBlend mode="normal" in2="BackgroundImageFix" result="effect1_dropShadow_1491_1324"/>
<feBlend mode="normal" in="SourceGraphic" in2="effect1_dropShadow_1491_1324" result="shape"/>
</filter>
<filter id="filter1_ii_1491_1324" x="6.10352e-05" y="38.4414" width="93.7192" height="50.5234" filterUnits="userSpaceOnUse" color-interpolation-filters="sRGB">
<feFlood flood-opacity="0" result="BackgroundImageFix"/>
<feBlend mode="normal" in="SourceGraphic" in2="BackgroundImageFix" result="shape"/>
<feColorMatrix in="SourceAlpha" type="matrix" values="0 0 0 0 0 0 0 0 0 0 0 0 0 0 0 0 0 0 127 0" result="hardAlpha"/>
<feOffset dy="-12"/>
<feGaussianBlur stdDeviation="8.5"/>
<feComposite in2="hardAlpha" operator="arithmetic" k2="-1" k3="1"/>
<feColorMatrix type="matrix" values="0 0 0 0 0.725 0 0 0 0 0.832404 0 0 0 0 1 0 0 0 0.67 0"/>
<feBlend mode="normal" in2="shape" result="effect1_innerShadow_1491_1324"/>
<feColorMatrix in="SourceAlpha" type="matrix" values="0 0 0 0 0 0 0 0 0 0 0 0 0 0 0 0 0 0 127 0" result="hardAlpha"/>
<feOffset dy="-7"/>
<feGaussianBlur stdDeviation="3"/>
<feComposite in2="hardAlpha" operator="arithmetic" k2="-1" k3="1"/>
<feColorMatrix type="matrix" values="0 0 0 0 1 0 0 0 0 1 0 0 0 0 1 0 0 0 0.33 0"/>
<feBlend mode="normal" in2="effect1_innerShadow_1491_1324" result="effect2_innerShadow_1491_1324"/>
</filter>
<filter id="filter2_f_1491_1324" x="-35.7153" y="29.4336" width="69.6859" height="88.918" filterUnits="userSpaceOnUse" color-interpolation-filters="sRGB">
<feFlood flood-opacity="0" result="BackgroundImageFix"/>
<feBlend mode="normal" in="SourceGraphic" in2="BackgroundImageFix" result="shape"/>
<feGaussianBlur stdDeviation="5" result="effect1_foregroundBlur_1491_1324"/>
</filter>
<filter id="filter3_f_1491_1324" x="-21.9702" y="32.6094" width="72.5122" height="96.043" filterUnits="userSpaceOnUse" color-interpolation-filters="sRGB">
<feFlood flood-opacity="0" result="BackgroundImageFix"/>
<feBlend mode="normal" in="SourceGraphic" in2="BackgroundImageFix" result="shape"/>
<feGaussianBlur stdDeviation="5" result="effect1_foregroundBlur_1491_1324"/>
</filter>
<filter id="filter4_f_1491_1324" x="40.7297" y="34.9727" width="58.0264" height="105.723" filterUnits="userSpaceOnUse" color-interpolation-filters="sRGB">
<feFlood flood-opacity="0" result="BackgroundImageFix"/>
<feBlend mode="normal" in="SourceGraphic" in2="BackgroundImageFix" result="shape"/>
<feGaussianBlur stdDeviation="5" result="effect1_foregroundBlur_1491_1324"/>
</filter>
<filter id="filter5_f_1491_1324" x="61.3078" y="22.3438" width="64.4322" height="98.0781" filterUnits="userSpaceOnUse" color-interpolation-filters="sRGB">
<feFlood flood-opacity="0" result="BackgroundImageFix"/>
<feBlend mode="normal" in="SourceGraphic" in2="BackgroundImageFix" result="shape"/>
<feGaussianBlur stdDeviation="5" result="effect1_foregroundBlur_1491_1324"/>
</filter>
<filter id="filter6_f_1491_1324" x="50.0261" y="22.0664" width="100.403" height="91.0938" filterUnits="userSpaceOnUse" color-interpolation-filters="sRGB">
<feFlood flood-opacity="0" result="BackgroundImageFix"/>
<feBlend mode="normal" in="SourceGraphic" in2="BackgroundImageFix" result="shape"/>
<feGaussianBlur stdDeviation="5" result="effect1_foregroundBlur_1491_1324"/>
</filter>
<filter id="filter7_f_1491_1324" x="-61.0829" y="18.2109" width="111.863" height="127.891" filterUnits="userSpaceOnUse" color-interpolation-filters="sRGB">
<feFlood flood-opacity="0" result="BackgroundImageFix"/>
<feBlend mode="normal" in="SourceGraphic" in2="BackgroundImageFix" result="shape"/>
<feGaussianBlur stdDeviation="17" result="effect1_foregroundBlur_1491_1324"/>
</filter>
<filter id="filter8_f_1491_1324" x="21.573" y="29.7656" width="100.254" height="127.426" filterUnits="userSpaceOnUse" color-interpolation-filters="sRGB">
<feFlood flood-opacity="0" result="BackgroundImageFix"/>
<feBlend mode="normal" in="SourceGraphic" in2="BackgroundImageFix" result="shape"/>
<feGaussianBlur stdDeviation="17" result="effect1_foregroundBlur_1491_1324"/>
</filter>
<filter id="filter9_f_1491_1324" x="46.1857" y="18.6641" width="108.612" height="120.961" filterUnits="userSpaceOnUse" color-interpolation-filters="sRGB">
<feFlood flood-opacity="0" result="BackgroundImageFix"/>
<feBlend mode="normal" in="SourceGraphic" in2="BackgroundImageFix" result="shape"/>
<feGaussianBlur stdDeviation="17" result="effect1_foregroundBlur_1491_1324"/>
</filter>
<filter id="filter10_f_1491_1324" x="2.80328" y="30.4336" width="115.872" height="80.1953" filterUnits="userSpaceOnUse" color-interpolation-filters="sRGB">
<feFlood flood-opacity="0" result="BackgroundImageFix"/>
<feBlend mode="normal" in="SourceGraphic" in2="BackgroundImageFix" result="shape"/>
<feGaussianBlur stdDeviation="17.5" result="effect1_foregroundBlur_1491_1324"/>
</filter>
<filter id="filter11_f_1491_1324" x="26.8809" y="57.8008" width="67.8661" height="27.2734" filterUnits="userSpaceOnUse" color-interpolation-filters="sRGB">
<feFlood flood-opacity="0" result="BackgroundImageFix"/>
<feBlend mode="normal" in="SourceGraphic" in2="BackgroundImageFix" result="shape"/>
<feGaussianBlur stdDeviation="5.5" result="effect1_foregroundBlur_1491_1324"/>
</filter>
<filter id="filter12_f_1491_1324" x="-51.5112" y="-8.11328" width="143.88" height="112.676" filterUnits="userSpaceOnUse" color-interpolation-filters="sRGB">
<feFlood flood-opacity="0" result="BackgroundImageFix"/>
<feBlend mode="normal" in="SourceGraphic" in2="BackgroundImageFix" result="shape"/>
<feGaussianBlur stdDeviation="24.5" result="effect1_foregroundBlur_1491_1324"/>
</filter>
<filter id="filter13_f_1491_1324" x="-7.6228" y="25.0859" width="104.758" height="87.8203" filterUnits="userSpaceOnUse" color-interpolation-filters="sRGB">
<feFlood flood-opacity="0" result="BackgroundImageFix"/>
<feBlend mode="normal" in="SourceGraphic" in2="BackgroundImageFix" result="shape"/>
<feGaussianBlur stdDeviation="17" result="effect1_foregroundBlur_1491_1324"/>
</filter>
<filter id="filter14_f_1491_1324" x="-2.85443" y="25.6445" width="104.758" height="87.8203" filterUnits="userSpaceOnUse" color-interpolation-filters="sRGB">
<feFlood flood-opacity="0" result="BackgroundImageFix"/>
<feBlend mode="normal" in="SourceGraphic" in2="BackgroundImageFix" result="shape"/>
<feGaussianBlur stdDeviation="17" result="effect1_foregroundBlur_1491_1324"/>
</filter>
<filter id="filter15_f_1491_1324" x="68.8626" y="25.8164" width="31.0839" height="63.3398" filterUnits="userSpaceOnUse" color-interpolation-filters="sRGB">
<feFlood flood-opacity="0" result="BackgroundImageFix"/>
<feBlend mode="normal" in="SourceGraphic" in2="BackgroundImageFix" result="shape"/>
<feGaussianBlur stdDeviation="4" result="effect1_foregroundBlur_1491_1324"/>
</filter>
<filter id="filter16_f_1491_1324" x="-7.33655" y="24.9883" width="33.1357" height="62.6406" filterUnits="userSpaceOnUse" color-interpolation-filters="sRGB">
<feFlood flood-opacity="0" result="BackgroundImageFix"/>
<feBlend mode="normal" in="SourceGraphic" in2="BackgroundImageFix" result="shape"/>
<feGaussianBlur stdDeviation="4" result="effect1_foregroundBlur_1491_1324"/>
</filter>
<filter id="filter17_f_1491_1324" x="76.3177" y="25.7656" width="2.36188" height="2.35938" filterUnits="userSpaceOnUse" color-interpolation-filters="sRGB">
<feFlood flood-opacity="0" result="BackgroundImageFix"/>
<feBlend mode="normal" in="SourceGraphic" in2="BackgroundImageFix" result="shape"/>
<feGaussianBlur stdDeviation="0.5" result="effect1_foregroundBlur_1491_1324"/>
</filter>
<filter id="filter18_f_1491_1324" x="81.2972" y="13.875" width="2.78839" height="2.78906" filterUnits="userSpaceOnUse" color-interpolation-filters="sRGB">
<feFlood flood-opacity="0" result="BackgroundImageFix"/>
<feBlend mode="normal" in="SourceGraphic" in2="BackgroundImageFix" result="shape"/>
<feGaussianBlur stdDeviation="0.5" result="effect1_foregroundBlur_1491_1324"/>
</filter>
<filter id="filter19_f_1491_1324" x="79.7936" y="5.6875" width="2.78839" height="2.78906" filterUnits="userSpaceOnUse" color-interpolation-filters="sRGB">
<feFlood flood-opacity="0" result="BackgroundImageFix"/>
<feBlend mode="normal" in="SourceGraphic" in2="BackgroundImageFix" result="shape"/>
<feGaussianBlur stdDeviation="0.5" result="effect1_foregroundBlur_1491_1324"/>
</filter>
<filter id="filter20_f_1491_1324" x="35.8401" y="52.543" width="2.78839" height="2.78906" filterUnits="userSpaceOnUse" color-interpolation-filters="sRGB">
<feFlood flood-opacity="0" result="BackgroundImageFix"/>
<feBlend mode="normal" in="SourceGraphic" in2="BackgroundImageFix" result="shape"/>
<feGaussianBlur stdDeviation="0.5" result="effect1_foregroundBlur_1491_1324"/>
</filter>
<filter id="filter21_f_1491_1324" x="71.8227" y="52.543" width="2.78839" height="2.78906" filterUnits="userSpaceOnUse" color-interpolation-filters="sRGB">
<feFlood flood-opacity="0" result="BackgroundImageFix"/>
<feBlend mode="normal" in="SourceGraphic" in2="BackgroundImageFix" result="shape"/>
<feGaussianBlur stdDeviation="0.5" result="effect1_foregroundBlur_1491_1324"/>
</filter>
<filter id="filter22_f_1491_1324" x="12.5494" y="45.2578" width="2.78839" height="2.78906" filterUnits="userSpaceOnUse" color-interpolation-filters="sRGB">
<feFlood flood-opacity="0" result="BackgroundImageFix"/>
<feBlend mode="normal" in="SourceGraphic" in2="BackgroundImageFix" result="shape"/>
<feGaussianBlur stdDeviation="0.5" result="effect1_foregroundBlur_1491_1324"/>
</filter>
<filter id="filter23_f_1491_1324" x="68.0698" y="42.875" width="2.78839" height="2.78906" filterUnits="userSpaceOnUse" color-interpolation-filters="sRGB">
<feFlood flood-opacity="0" result="BackgroundImageFix"/>
<feBlend mode="normal" in="SourceGraphic" in2="BackgroundImageFix" result="shape"/>
<feGaussianBlur stdDeviation="0.5" result="effect1_foregroundBlur_1491_1324"/>
</filter>
<filter id="filter24_f_1491_1324" x="44.0342" y="44.5352" width="2.78839" height="2.78906" filterUnits="userSpaceOnUse" color-interpolation-filters="sRGB">
<feFlood flood-opacity="0" result="BackgroundImageFix"/>
<feBlend mode="normal" in="SourceGraphic" in2="BackgroundImageFix" result="shape"/>
<feGaussianBlur stdDeviation="0.5" result="effect1_foregroundBlur_1491_1324"/>
</filter>
<filter id="filter25_f_1491_1324" x="13.6315" y="55.3203" width="2.78839" height="2.78906" filterUnits="userSpaceOnUse" color-interpolation-filters="sRGB">
<feFlood flood-opacity="0" result="BackgroundImageFix"/>
<feBlend mode="normal" in="SourceGraphic" in2="BackgroundImageFix" result="shape"/>
<feGaussianBlur stdDeviation="0.5" result="effect1_foregroundBlur_1491_1324"/>
</filter>
<filter id="filter26_iii_1491_1324" x="17" y="5" width="56.1632" height="53.5039" filterUnits="userSpaceOnUse" color-interpolation-filters="sRGB">
<feFlood flood-opacity="0" result="BackgroundImageFix"/>
<feBlend mode="normal" in="SourceGraphic" in2="BackgroundImageFix" result="shape"/>
<feColorMatrix in="SourceAlpha" type="matrix" values="0 0 0 0 0 0 0 0 0 0 0 0 0 0 0 0 0 0 127 0" result="hardAlpha"/>
<feOffset dy="-1"/>
<feGaussianBlur stdDeviation="1.5"/>
<feComposite in2="hardAlpha" operator="arithmetic" k2="-1" k3="1"/>
<feColorMatrix type="matrix" values="0 0 0 0 1 0 0 0 0 1 0 0 0 0 1 0 0 0 0.25 0"/>
<feBlend mode="normal" in2="shape" result="effect1_innerShadow_1491_1324"/>
<feColorMatrix in="SourceAlpha" type="matrix" values="0 0 0 0 0 0 0 0 0 0 0 0 0 0 0 0 0 0 127 0" result="hardAlpha"/>
<feOffset dy="-1"/>
<feGaussianBlur stdDeviation="1.5"/>
<feComposite in2="hardAlpha" operator="arithmetic" k2="-1" k3="1"/>
<feColorMatrix type="matrix" values="0 0 0 0 1 0 0 0 0 1 0 0 0 0 1 0 0 0 1 0"/>
<feBlend mode="normal" in2="effect1_innerShadow_1491_1324" result="effect2_innerShadow_1491_1324"/>
<feColorMatrix in="SourceAlpha" type="matrix" values="0 0 0 0 0 0 0 0 0 0 0 0 0 0 0 0 0 0 127 0" result="hardAlpha"/>
<feOffset dy="-10"/>
<feGaussianBlur stdDeviation="1.5"/>
<feComposite in2="hardAlpha" operator="arithmetic" k2="-1" k3="1"/>
<feColorMatrix type="matrix" values="0 0 0 0 1 0 0 0 0 1 0 0 0 0 1 0 0 0 0.25 0"/>
<feBlend mode="normal" in2="effect2_innerShadow_1491_1324" result="effect3_innerShadow_1491_1324"/>
</filter>
<linearGradient id="paint0_linear_1491_1324" x1="46.8599" y1="80.0352" x2="46.8599" y2="94.8308" gradientUnits="userSpaceOnUse">
<stop offset="0.098092" stop-color="#D9D9D9" stop-opacity="0"/>
<stop offset="1" stop-color="#D9D9D9" stop-opacity="0.87"/>
</linearGradient>
<linearGradient id="paint1_linear_1491_1324" x1="14.0301" y1="94.8308" x2="78.5673" y2="94.8308" gradientUnits="userSpaceOnUse">
<stop offset="0.098092" stop-color="#D9D9D9" stop-opacity="0"/>
<stop offset="0.253017" stop-color="#D9D9D9" stop-opacity="0.180373"/>
<stop offset="0.38712" stop-color="#D9D9D9" stop-opacity="0.82172"/>
<stop offset="0.457557" stop-color="#D9D9D9"/>
<stop offset="0.67274" stop-color="#D9D9D9" stop-opacity="0.162646"/>
<stop offset="0.871024" stop-color="#D9D9D9" stop-opacity="0"/>
</linearGradient>
<linearGradient id="paint2_linear_1491_1324" x1="46.8599" y1="80.0352" x2="46.8599" y2="94.8308" gradientUnits="userSpaceOnUse">
<stop offset="0.098092" stop-color="#D9D9D9" stop-opacity="0"/>
<stop offset="1" stop-color="#D9D9D9" stop-opacity="0.87"/>
</linearGradient>
<radialGradient id="paint3_radial_1491_1324" cx="0" cy="0" r="1" gradientUnits="userSpaceOnUse" gradientTransform="translate(46.7181 80.1743) rotate(90) scale(13.2602 45.5969)">
<stop offset="0.664349" stop-color="white" stop-opacity="0"/>
<stop offset="1" stop-color="white"/>
</radialGradient>
<linearGradient id="paint4_linear_1491_1324" x1="46.8596" y1="62.7227" x2="46.8596" y2="89.2431" gradientUnits="userSpaceOnUse">
<stop offset="0.101307" stop-color="#226193" stop-opacity="0.109804"/>
<stop offset="1" stop-color="#226193" stop-opacity="0.756863"/>
</linearGradient>
<linearGradient id="paint5_linear_1491_1324" x1="46.8596" y1="62.4453" x2="46.8596" y2="88.9657" gradientUnits="userSpaceOnUse">
<stop offset="0.67036" stop-color="#2896FF" stop-opacity="0"/>
<stop offset="1" stop-color="#2896FF" stop-opacity="0.172549"/>
</linearGradient>
<radialGradient id="paint6_radial_1491_1324" cx="0" cy="0" r="1" gradientUnits="userSpaceOnUse" gradientTransform="translate(43.773 88.9657) rotate(90) scale(6.56031 20.2163)">
<stop stop-color="#0560EE" stop-opacity="0.376471"/>
<stop offset="1" stop-color="#0560EE" stop-opacity="0"/>
</radialGradient>
<radialGradient id="paint7_radial_1491_1324" cx="0" cy="0" r="1" gradientUnits="userSpaceOnUse" gradientTransform="translate(46.8596 88.9657) rotate(90) scale(3.34995 9.08895)">
<stop stop-color="#0560EE" stop-opacity="0.376471"/>
<stop offset="1" stop-color="#0560EE" stop-opacity="0"/>
</radialGradient>
<linearGradient id="paint8_linear_1491_1324" x1="10.9433" y1="77.5199" x2="57.6489" y2="85.5556" gradientUnits="userSpaceOnUse">
<stop stop-color="#24A4E2" stop-opacity="0"/>
<stop offset="0.407828" stop-color="#24A4E2" stop-opacity="0.580392"/>
<stop offset="0.481962" stop-color="#24A4E2" stop-opacity="0.580392"/>
<stop offset="1" stop-color="#24A4E2" stop-opacity="0"/>
</linearGradient>
<linearGradient id="paint9_linear_1491_1324" x1="-0.565369" y1="58.2577" x2="92.5926" y2="58.2577" gradientUnits="userSpaceOnUse">
<stop stop-color="#24A4E2" stop-opacity="0"/>
<stop offset="0.225624" stop-color="#0064B3" stop-opacity="0.701961"/>
<stop offset="0.515689" stop-color="#0064B3"/>
<stop offset="0.795142" stop-color="#0064B3" stop-opacity="0.858824"/>
<stop offset="1" stop-color="#83A5EC" stop-opacity="0"/>
</linearGradient>
<linearGradient id="paint10_linear_1491_1324" x1="2.5238" y1="66.9135" x2="91.1923" y2="66.9135" gradientUnits="userSpaceOnUse">
<stop stop-color="#226193" stop-opacity="0"/>
<stop offset="0.188485" stop-color="#226193" stop-opacity="0.137255"/>
<stop offset="0.503814" stop-color="#226193" stop-opacity="0.145098"/>
<stop offset="0.770759" stop-color="#226193" stop-opacity="0.5"/>
<stop offset="1" stop-color="#226193" stop-opacity="0"/>
</linearGradient>
<linearGradient id="paint11_linear_1491_1324" x1="46.86" y1="42.9062" x2="46.86" y2="67.7517" gradientUnits="userSpaceOnUse">
<stop offset="0.0782727" stop-opacity="0"/>
<stop offset="0.341032"/>
</linearGradient>
<linearGradient id="paint12_linear_1491_1324" x1="1.68402" y1="55.4686" x2="92.0361" y2="55.4686" gradientUnits="userSpaceOnUse">
<stop stop-color="#90DEFF" stop-opacity="0.470588"/>
<stop offset="0.113408" stop-color="#90DEFF" stop-opacity="0.368627"/>
<stop offset="0.248015" stop-color="#90DEFF" stop-opacity="0.0901961"/>
<stop offset="0.460278" stop-color="#90DEFF" stop-opacity="0.0627451"/>
<stop offset="0.58" stop-color="#90DEFF" stop-opacity="0.101961"/>
<stop offset="0.829583" stop-color="#90DEFF" stop-opacity="0.223529"/>
<stop offset="1" stop-color="#90DEFF" stop-opacity="0.356863"/>
</linearGradient>
<linearGradient id="paint13_linear_1491_1324" x1="46.8574" y1="49.8828" x2="46.8574" y2="71.6575" gradientUnits="userSpaceOnUse">
<stop stop-color="#7FBFFF" stop-opacity="0.0156863"/>
<stop offset="0.51318" stop-color="#93B5FF" stop-opacity="0.32549"/>
<stop offset="0.870161" stop-color="#92B5FF" stop-opacity="0.737255"/>
</linearGradient>
<linearGradient id="paint14_linear_1491_1324" x1="46.8601" y1="49.875" x2="46.8601" y2="71.6497" gradientUnits="userSpaceOnUse">
<stop stop-color="#7FBFFF" stop-opacity="0.0156863"/>
<stop offset="0.51318" stop-color="#93B5FF" stop-opacity="0.32549"/>
<stop offset="0.870161" stop-color="#92B5FF" stop-opacity="0.737255"/>
</linearGradient>
<linearGradient id="paint15_linear_1491_1324" x1="9.26019" y1="60.7623" x2="84.46" y2="60.7623" gradientUnits="userSpaceOnUse">
<stop stop-color="#90DEFF" stop-opacity="0.380392"/>
<stop offset="0.152974" stop-color="#90DEFF" stop-opacity="0.27451"/>
<stop offset="0.51318" stop-color="#ABE7F2"/>
<stop offset="0.799163" stop-color="#90DEFF" stop-opacity="0.329412"/>
<stop offset="1" stop-color="#90DEFF" stop-opacity="0.427451"/>
</linearGradient>
<linearGradient id="paint16_linear_1491_1324" x1="64.7708" y1="8.30859" x2="33.8316" y2="56.9272" gradientUnits="userSpaceOnUse">
<stop stop-color="#B6D2FF"/>
<stop offset="0.226688" stop-color="#0086C7"/>
<stop offset="0.342763" stop-color="#0086C7"/>
<stop offset="0.567708" stop-color="#0086C7"/>
<stop offset="0.591668" stop-color="#0086C7"/>
<stop offset="0.685214" stop-color="#A6C9FF"/>
<stop offset="0.745037" stop-color="#0086C7"/>
</linearGradient>
<radialGradient id="paint17_radial_1491_1324" cx="0" cy="0" r="1" gradientUnits="userSpaceOnUse" gradientTransform="translate(41.2001 32.182) rotate(80.5665) scale(19.1139 28.0749)">
<stop stop-color="#24A4E2"/>
<stop offset="1" stop-color="#24A4E2" stop-opacity="0"/>
</radialGradient>
<linearGradient id="paint18_linear_1491_1324" x1="64.7708" y1="8.30859" x2="33.8316" y2="56.9272" gradientUnits="userSpaceOnUse">
<stop stop-color="#B6D2FF"/>
<stop offset="0.226688" stop-color="#0086C7"/>
<stop offset="0.342763" stop-color="#0086C7"/>
<stop offset="0.567708" stop-color="#0086C7"/>
<stop offset="0.591668" stop-color="#0086C7"/>
<stop offset="0.685214" stop-color="#A6C9FF"/>
<stop offset="0.745037" stop-color="#0086C7"/>
</linearGradient>
<radialGradient id="paint19_radial_1491_1324" cx="0" cy="0" r="1" gradientUnits="userSpaceOnUse" gradientTransform="translate(41.2001 32.182) rotate(80.5665) scale(19.1139 28.0749)">
<stop stop-color="#24A4E2"/>
<stop offset="1" stop-color="#24A4E2" stop-opacity="0"/>
</radialGradient>
<linearGradient id="paint20_linear_1491_1324" x1="64.7708" y1="8.30859" x2="33.8316" y2="56.9272" gradientUnits="userSpaceOnUse">
<stop stop-color="#B6D2FF"/>
<stop offset="0.226688" stop-color="#0086C7"/>
<stop offset="0.342763" stop-color="#0086C7"/>
<stop offset="0.567708" stop-color="#0086C7"/>
<stop offset="0.591668" stop-color="#0086C7"/>
<stop offset="0.685214" stop-color="#A6C9FF"/>
<stop offset="0.745037" stop-color="#0086C7"/>
</linearGradient>
<radialGradient id="paint21_radial_1491_1324" cx="0" cy="0" r="1" gradientUnits="userSpaceOnUse" gradientTransform="translate(41.2001 32.182) rotate(80.5665) scale(19.1139 28.0749)">
<stop stop-color="#24A4E2"/>
<stop offset="1" stop-color="#24A4E2" stop-opacity="0"/>
</radialGradient>
<linearGradient id="paint22_linear_1491_1324" x1="64.7708" y1="8.30859" x2="33.8316" y2="56.9272" gradientUnits="userSpaceOnUse">
<stop stop-color="#B6D2FF"/>
<stop offset="0.226688" stop-color="#0086C7"/>
<stop offset="0.342763" stop-color="#0086C7"/>
<stop offset="0.567708" stop-color="#0086C7"/>
<stop offset="0.591668" stop-color="#0086C7"/>
<stop offset="0.685214" stop-color="#A6C9FF"/>
<stop offset="0.745037" stop-color="#0086C7"/>
</linearGradient>
<radialGradient id="paint23_radial_1491_1324" cx="0" cy="0" r="1" gradientUnits="userSpaceOnUse" gradientTransform="translate(41.2001 32.182) rotate(80.5665) scale(19.1139 28.0749)">
<stop stop-color="#24A4E2"/>
<stop offset="1" stop-color="#24A4E2" stop-opacity="0"/>
</radialGradient>
<linearGradient id="paint24_linear_1491_1324" x1="64.7708" y1="8.30859" x2="33.8316" y2="56.9272" gradientUnits="userSpaceOnUse">
<stop stop-color="#B6D2FF"/>
<stop offset="0.226688" stop-color="#0086C7"/>
<stop offset="0.342763" stop-color="#0086C7"/>
<stop offset="0.567708" stop-color="#0086C7"/>
<stop offset="0.591668" stop-color="#0086C7"/>
<stop offset="0.685214" stop-color="#A6C9FF"/>
<stop offset="0.745037" stop-color="#0086C7"/>
</linearGradient>
<radialGradient id="paint25_radial_1491_1324" cx="0" cy="0" r="1" gradientUnits="userSpaceOnUse" gradientTransform="translate(41.2001 32.182) rotate(80.5665) scale(19.1139 28.0749)">
<stop stop-color="#24A4E2"/>
<stop offset="1" stop-color="#24A4E2" stop-opacity="0"/>
</radialGradient>
<linearGradient id="paint26_linear_1491_1324" x1="64.7708" y1="8.30859" x2="33.8316" y2="56.9272" gradientUnits="userSpaceOnUse">
<stop stop-color="#B6D2FF"/>
<stop offset="0.226688" stop-color="#0086C7"/>
<stop offset="0.342763" stop-color="#0086C7"/>
<stop offset="0.567708" stop-color="#0086C7"/>
<stop offset="0.591668" stop-color="#0086C7"/>
<stop offset="0.685214" stop-color="#A6C9FF"/>
<stop offset="0.745037" stop-color="#0086C7"/>
</linearGradient>
<radialGradient id="paint27_radial_1491_1324" cx="0" cy="0" r="1" gradientUnits="userSpaceOnUse" gradientTransform="translate(41.2001 32.182) rotate(80.5665) scale(19.1139 28.0749)">
<stop stop-color="#24A4E2"/>
<stop offset="1" stop-color="#24A4E2" stop-opacity="0"/>
</radialGradient>
<linearGradient id="paint28_linear_1491_1324" x1="64.7708" y1="8.30859" x2="33.8316" y2="56.9272" gradientUnits="userSpaceOnUse">
<stop stop-color="#B6D2FF"/>
<stop offset="0.226688" stop-color="#0086C7"/>
<stop offset="0.342763" stop-color="#0086C7"/>
<stop offset="0.567708" stop-color="#0086C7"/>
<stop offset="0.591668" stop-color="#0086C7"/>
<stop offset="0.685214" stop-color="#A6C9FF"/>
<stop offset="0.745037" stop-color="#0086C7"/>
</linearGradient>
<radialGradient id="paint29_radial_1491_1324" cx="0" cy="0" r="1" gradientUnits="userSpaceOnUse" gradientTransform="translate(41.2001 32.182) rotate(80.5665) scale(19.1139 28.0749)">
<stop stop-color="#24A4E2"/>
<stop offset="1" stop-color="#24A4E2" stop-opacity="0"/>
</radialGradient>
<linearGradient id="paint30_linear_1491_1324" x1="64.7708" y1="8.30859" x2="33.8316" y2="56.9272" gradientUnits="userSpaceOnUse">
<stop stop-color="#B6D2FF"/>
<stop offset="0.226688" stop-color="#0086C7"/>
<stop offset="0.342763" stop-color="#0086C7"/>
<stop offset="0.567708" stop-color="#0086C7"/>
<stop offset="0.591668" stop-color="#0086C7"/>
<stop offset="0.685214" stop-color="#A6C9FF"/>
<stop offset="0.745037" stop-color="#0086C7"/>
</linearGradient>
<radialGradient id="paint31_radial_1491_1324" cx="0" cy="0" r="1" gradientUnits="userSpaceOnUse" gradientTransform="translate(41.2001 32.182) rotate(80.5665) scale(19.1139 28.0749)">
<stop stop-color="#24A4E2"/>
<stop offset="1" stop-color="#24A4E2" stop-opacity="0"/>
</radialGradient>
<linearGradient id="paint32_linear_1491_1324" x1="45.0816" y1="8" x2="45.0816" y2="58.5026" gradientUnits="userSpaceOnUse">
<stop stop-color="#E7EFFF"/>
<stop offset="1" stop-color="#24A4E2"/>
</linearGradient>
<linearGradient id="paint33_linear_1491_1324" x1="45.0816" y1="8" x2="45.0816" y2="58.5026" gradientUnits="userSpaceOnUse">
<stop stop-color="#E7EFFF"/>
<stop offset="1" stop-color="#24A4E2"/>
</linearGradient>
<linearGradient id="paint34_linear_1491_1324" x1="45.0816" y1="8" x2="45.0816" y2="58.5026" gradientUnits="userSpaceOnUse">
<stop stop-color="#E7EFFF"/>
<stop offset="1" stop-color="#24A4E2"/>
</linearGradient>
<linearGradient id="paint35_linear_1491_1324" x1="45.0816" y1="8" x2="45.0816" y2="58.5026" gradientUnits="userSpaceOnUse">
<stop stop-color="#E7EFFF"/>
<stop offset="1" stop-color="#24A4E2"/>
</linearGradient>
<linearGradient id="paint36_linear_1491_1324" x1="45.0816" y1="8" x2="45.0816" y2="58.5026" gradientUnits="userSpaceOnUse">
<stop stop-color="#E7EFFF"/>
<stop offset="1" stop-color="#24A4E2"/>
</linearGradient>
<linearGradient id="paint37_linear_1491_1324" x1="45.0816" y1="8" x2="45.0816" y2="58.5026" gradientUnits="userSpaceOnUse">
<stop stop-color="#E7EFFF"/>
<stop offset="1" stop-color="#24A4E2"/>
</linearGradient>
<linearGradient id="paint38_linear_1491_1324" x1="45.0816" y1="8" x2="45.0816" y2="58.5026" gradientUnits="userSpaceOnUse">
<stop stop-color="#E7EFFF"/>
<stop offset="1" stop-color="#24A4E2"/>
</linearGradient>
<linearGradient id="paint39_linear_1491_1324" x1="45.0816" y1="8" x2="45.0816" y2="58.5026" gradientUnits="userSpaceOnUse">
<stop stop-color="#E7EFFF"/>
<stop offset="1" stop-color="#24A4E2"/>
</linearGradient>
</defs>
</svg>
