<svg width="94" height="97" viewBox="0 0 94 97" fill="none" xmlns="http://www.w3.org/2000/svg">
<g id="icon-&#230;&#128;&#187;&#229;&#144;&#158;&#229;&#144;&#144;&#233;&#135;&#143;">
<ellipse id="1" cx="46.8596" cy="77.2954" rx="46.8596" ry="13.2602" fill="#226193" fill-opacity="0.278431"/>
<g id="2">
<mask id="mask0_1491_1414" style="mask-type:alpha" maskUnits="userSpaceOnUse" x="0" y="81" width="93" height="16">
<rect id="Rectangle 1" x="0.842041" y="81.3477" width="92.0356" height="14.7956" fill="url(#paint0_linear_1491_1414)"/>
</mask>
<g mask="url(#mask0_1491_1414)">
<g id="Group 4">
<g id="Vector">
<path d="M13.7489 82.8813C13.7489 85.2007 16.5744 87.3246 21.2883 88.9825L11.5547 91.3214C5.04225 89.03 1.12244 86.0854 1.12244 82.8813C1.12244 79.6772 5.04225 76.7327 11.5547 74.4412L21.2883 76.7801C16.5772 78.438 13.7489 80.562 13.7489 82.8813Z" fill="#226193" fill-opacity="0.301961"/>
<path d="M46.718 73.2941C38.7409 73.2941 31.4372 74.1147 25.7356 75.4851L17.6912 72.6549C25.5785 70.7598 35.6993 69.6211 46.718 69.6211C57.7367 69.6211 67.8603 70.7598 75.7448 72.6549L67.7003 75.4851C61.9988 74.1147 54.6951 73.2941 46.718 73.2941Z" fill="#226193" fill-opacity="0.301961"/>
<path d="M81.884 74.4412C88.3965 76.7327 92.3163 79.6772 92.3163 82.8813C92.3163 86.0854 88.3965 89.03 81.884 91.3214L72.1504 88.9825C76.8615 87.3246 79.6898 85.2007 79.6898 82.8813C79.6898 80.562 76.8643 78.438 72.1504 76.7801L81.884 74.4412Z" fill="#226193" fill-opacity="0.301961"/>
<path d="M46.718 92.4685C54.6951 92.4685 61.9988 91.6479 67.7003 90.2775L75.7448 93.1077C67.8603 95.0028 57.7395 96.1415 46.718 96.1415C35.6965 96.1415 25.5757 95.0028 17.6912 93.1077L25.7356 90.2775C31.4372 91.6479 38.7409 92.4685 46.718 92.4685Z" fill="#226193" fill-opacity="0.301961"/>
</g>
<g id="Vector_2">
<path d="M13.7489 82.8813C13.7489 85.2007 16.5744 87.3246 21.2883 88.9825L11.5547 91.3214C5.04225 89.03 1.12244 86.0854 1.12244 82.8813C1.12244 79.6772 5.04225 76.7327 11.5547 74.4412L21.2883 76.7801C16.5772 78.438 13.7489 80.562 13.7489 82.8813Z" fill="#24A4E2"/>
<path d="M46.718 73.2941C38.7409 73.2941 31.4372 74.1147 25.7356 75.4851L17.6912 72.6549C25.5785 70.7598 35.6993 69.6211 46.718 69.6211C57.7367 69.6211 67.8603 70.7598 75.7448 72.6549L67.7003 75.4851C61.9988 74.1147 54.6951 73.2941 46.718 73.2941Z" fill="#24A4E2"/>
<path d="M81.884 74.4412C88.3965 76.7327 92.3163 79.6772 92.3163 82.8813C92.3163 86.0854 88.3965 89.03 81.884 91.3214L72.1504 88.9825C76.8615 87.3246 79.6898 85.2007 79.6898 82.8813C79.6898 80.562 76.8643 78.438 72.1504 76.7801L81.884 74.4412Z" fill="#24A4E2"/>
<path d="M46.718 92.4685C54.6951 92.4685 61.9988 91.6479 67.7003 90.2775L75.7448 93.1077C67.8603 95.0028 57.7395 96.1415 46.718 96.1415C35.6965 96.1415 25.5757 95.0028 17.6912 93.1077L25.7356 90.2775C31.4372 91.6479 38.7409 92.4685 46.718 92.4685Z" fill="#24A4E2"/>
</g>
<g id="Vector_3">
<path d="M13.7489 81.4868C13.7489 83.8061 16.5744 85.9301 21.2883 87.588L11.5547 89.9269C5.04225 87.6354 1.12244 84.6909 1.12244 81.4868C1.12244 78.2827 5.04225 75.3381 11.5547 73.0467L21.2883 75.3856C16.5772 77.0434 13.7489 79.1674 13.7489 81.4868Z" fill="#24A4E2"/>
<path d="M46.718 71.8996C38.7409 71.8996 31.4372 72.7201 25.7356 74.0905L17.6912 71.2604C25.5785 69.3653 35.6993 68.2266 46.718 68.2266C57.7367 68.2266 67.8603 69.3653 75.7448 71.2604L67.7003 74.0905C61.9988 72.7201 54.6951 71.8996 46.718 71.8996Z" fill="#24A4E2"/>
<path d="M81.884 73.0467C88.3965 75.3381 92.3163 78.2827 92.3163 81.4868C92.3163 84.6909 88.3965 87.6354 81.884 89.9269L72.1504 87.588C76.8615 85.9301 79.6898 83.8061 79.6898 81.4868C79.6898 79.1674 76.8643 77.0434 72.1504 75.3856L81.884 73.0467Z" fill="#24A4E2"/>
<path d="M46.718 91.074C54.6951 91.074 61.9988 90.2534 67.7003 88.883L75.7448 91.7131C67.8603 93.6082 57.7395 94.747 46.718 94.747C35.6965 94.747 25.5757 93.6082 17.6912 91.7131L25.7356 88.883C31.4372 90.2534 38.7409 91.074 46.718 91.074Z" fill="#24A4E2"/>
</g>
<g id="Vector_4">
<path d="M13.7489 81.4868C13.7489 83.8061 16.5744 85.9301 21.2883 87.588L11.5547 89.9269C5.04225 87.6354 1.12244 84.6909 1.12244 81.4868C1.12244 78.2827 5.04225 75.3381 11.5547 73.0467L21.2883 75.3856C16.5772 77.0434 13.7489 79.1674 13.7489 81.4868Z" fill="#24A4E2"/>
<path d="M46.718 71.8996C38.7409 71.8996 31.4372 72.7201 25.7356 74.0905L17.6912 71.2604C25.5785 69.3653 35.6993 68.2266 46.718 68.2266C57.7367 68.2266 67.8603 69.3653 75.7448 71.2604L67.7003 74.0905C61.9988 72.7201 54.6951 71.8996 46.718 71.8996Z" fill="#24A4E2"/>
<path d="M81.884 73.0467C88.3965 75.3381 92.3163 78.2827 92.3163 81.4868C92.3163 84.6909 88.3965 87.6354 81.884 89.9269L72.1504 87.588C76.8615 85.9301 79.6898 83.8061 79.6898 81.4868C79.6898 79.1674 76.8643 77.0434 72.1504 75.3856L81.884 73.0467Z" fill="#24A4E2"/>
<path d="M46.718 91.074C54.6951 91.074 61.9988 90.2534 67.7003 88.883L75.7448 91.7131C67.8603 93.6082 57.7395 94.747 46.718 94.747C35.6965 94.747 25.5757 93.6082 17.6912 91.7131L25.7356 88.883C31.4372 90.2534 38.7409 91.074 46.718 91.074Z" fill="#24A4E2"/>
</g>
</g>
</g>
</g>
<g id="3">
<mask id="mask1_1491_1414" style="mask-type:alpha" maskUnits="userSpaceOnUse" x="0" y="81" width="93" height="16">
<rect id="Rectangle 1_2" x="0.842041" y="81.3477" width="92.0356" height="14.7956" fill="url(#paint1_linear_1491_1414)"/>
</mask>
<g mask="url(#mask1_1491_1414)">
<g id="Group 4_2">
<g id="Vector_5">
<path d="M13.7489 82.8813C13.7489 85.2007 16.5744 87.3246 21.2883 88.9825L11.5547 91.3214C5.04225 89.03 1.12244 86.0854 1.12244 82.8813C1.12244 79.6772 5.04225 76.7327 11.5547 74.4412L21.2883 76.7801C16.5772 78.438 13.7489 80.562 13.7489 82.8813Z" fill="#226193" fill-opacity="0.301961"/>
<path d="M46.718 73.2941C38.7409 73.2941 31.4372 74.1147 25.7356 75.4851L17.6912 72.6549C25.5785 70.7598 35.6993 69.6211 46.718 69.6211C57.7367 69.6211 67.8603 70.7598 75.7448 72.6549L67.7003 75.4851C61.9988 74.1147 54.6951 73.2941 46.718 73.2941Z" fill="#226193" fill-opacity="0.301961"/>
<path d="M81.884 74.4412C88.3965 76.7327 92.3163 79.6772 92.3163 82.8813C92.3163 86.0854 88.3965 89.03 81.884 91.3214L72.1504 88.9825C76.8615 87.3246 79.6898 85.2007 79.6898 82.8813C79.6898 80.562 76.8643 78.438 72.1504 76.7801L81.884 74.4412Z" fill="#226193" fill-opacity="0.301961"/>
<path d="M46.718 92.4685C54.6951 92.4685 61.9988 91.6479 67.7003 90.2775L75.7448 93.1077C67.8603 95.0028 57.7395 96.1415 46.718 96.1415C35.6965 96.1415 25.5757 95.0028 17.6912 93.1077L25.7356 90.2775C31.4372 91.6479 38.7409 92.4685 46.718 92.4685Z" fill="#226193" fill-opacity="0.301961"/>
</g>
<g id="Vector_6">
<path d="M13.7489 82.8813C13.7489 85.2007 16.5744 87.3246 21.2883 88.9825L11.5547 91.3214C5.04225 89.03 1.12244 86.0854 1.12244 82.8813C1.12244 79.6772 5.04225 76.7327 11.5547 74.4412L21.2883 76.7801C16.5772 78.438 13.7489 80.562 13.7489 82.8813Z" fill="#24A4E2"/>
<path d="M46.718 73.2941C38.7409 73.2941 31.4372 74.1147 25.7356 75.4851L17.6912 72.6549C25.5785 70.7598 35.6993 69.6211 46.718 69.6211C57.7367 69.6211 67.8603 70.7598 75.7448 72.6549L67.7003 75.4851C61.9988 74.1147 54.6951 73.2941 46.718 73.2941Z" fill="#24A4E2"/>
<path d="M81.884 74.4412C88.3965 76.7327 92.3163 79.6772 92.3163 82.8813C92.3163 86.0854 88.3965 89.03 81.884 91.3214L72.1504 88.9825C76.8615 87.3246 79.6898 85.2007 79.6898 82.8813C79.6898 80.562 76.8643 78.438 72.1504 76.7801L81.884 74.4412Z" fill="#24A4E2"/>
<path d="M46.718 92.4685C54.6951 92.4685 61.9988 91.6479 67.7003 90.2775L75.7448 93.1077C67.8603 95.0028 57.7395 96.1415 46.718 96.1415C35.6965 96.1415 25.5757 95.0028 17.6912 93.1077L25.7356 90.2775C31.4372 91.6479 38.7409 92.4685 46.718 92.4685Z" fill="#24A4E2"/>
</g>
<g id="Vector_7">
<path d="M13.7489 81.4868C13.7489 83.8061 16.5744 85.9301 21.2883 87.588L11.5547 89.9269C5.04225 87.6354 1.12244 84.6909 1.12244 81.4868C1.12244 78.2827 5.04225 75.3381 11.5547 73.0467L21.2883 75.3856C16.5772 77.0434 13.7489 79.1674 13.7489 81.4868Z" fill="#24A4E2"/>
<path d="M46.718 71.8996C38.7409 71.8996 31.4372 72.7201 25.7356 74.0905L17.6912 71.2604C25.5785 69.3653 35.6993 68.2266 46.718 68.2266C57.7367 68.2266 67.8603 69.3653 75.7448 71.2604L67.7003 74.0905C61.9988 72.7201 54.6951 71.8996 46.718 71.8996Z" fill="#24A4E2"/>
<path d="M81.884 73.0467C88.3965 75.3381 92.3163 78.2827 92.3163 81.4868C92.3163 84.6909 88.3965 87.6354 81.884 89.9269L72.1504 87.588C76.8615 85.9301 79.6898 83.8061 79.6898 81.4868C79.6898 79.1674 76.8643 77.0434 72.1504 75.3856L81.884 73.0467Z" fill="#24A4E2"/>
<path d="M46.718 91.074C54.6951 91.074 61.9988 90.2534 67.7003 88.883L75.7448 91.7131C67.8603 93.6082 57.7395 94.747 46.718 94.747C35.6965 94.747 25.5757 93.6082 17.6912 91.7131L25.7356 88.883C31.4372 90.2534 38.7409 91.074 46.718 91.074Z" fill="#24A4E2"/>
</g>
<g id="Vector_8">
<path d="M13.7489 81.4868C13.7489 83.8061 16.5744 85.9301 21.2883 87.588L11.5547 89.9269C5.04225 87.6354 1.12244 84.6909 1.12244 81.4868C1.12244 78.2827 5.04225 75.3381 11.5547 73.0467L21.2883 75.3856C16.5772 77.0434 13.7489 79.1674 13.7489 81.4868Z" fill="#24A4E2"/>
<path d="M46.718 71.8996C38.7409 71.8996 31.4372 72.7201 25.7356 74.0905L17.6912 71.2604C25.5785 69.3653 35.6993 68.2266 46.718 68.2266C57.7367 68.2266 67.8603 69.3653 75.7448 71.2604L67.7003 74.0905C61.9988 72.7201 54.6951 71.8996 46.718 71.8996Z" fill="#24A4E2"/>
<path d="M81.884 73.0467C88.3965 75.3381 92.3163 78.2827 92.3163 81.4868C92.3163 84.6909 88.3965 87.6354 81.884 89.9269L72.1504 87.588C76.8615 85.9301 79.6898 83.8061 79.6898 81.4868C79.6898 79.1674 76.8643 77.0434 72.1504 75.3856L81.884 73.0467Z" fill="#24A4E2"/>
<path d="M46.718 91.074C54.6951 91.074 61.9988 90.2534 67.7003 88.883L75.7448 91.7131C67.8603 93.6082 57.7395 94.747 46.718 94.747C35.6965 94.747 25.5757 93.6082 17.6912 91.7131L25.7356 88.883C31.4372 90.2534 38.7409 91.074 46.718 91.074Z" fill="#24A4E2"/>
</g>
</g>
</g>
</g>
<g id="4" style="mix-blend-mode:overlay">
<mask id="mask2_1491_1414" style="mask-type:alpha" maskUnits="userSpaceOnUse" x="0" y="81" width="93" height="16">
<rect id="Rectangle 1_3" x="0.842041" y="81.3477" width="92.0356" height="14.7956" fill="url(#paint2_linear_1491_1414)"/>
</mask>
<g mask="url(#mask2_1491_1414)">
<path id="Vector (Stroke)" fill-rule="evenodd" clip-rule="evenodd" d="M15.3997 85.2219C14.042 84.1445 13.1865 82.8901 13.1865 81.4868C13.1865 80.0833 14.0429 78.8289 15.4008 77.7516C16.4265 76.9379 17.783 76.1873 19.4068 75.5081L11.5841 73.6284C8.4319 74.75 5.94284 76.0143 4.24503 77.361C2.51256 78.7353 1.68241 80.1289 1.68241 81.4868C1.68241 82.8446 2.51256 84.2383 4.24503 85.6125C5.94284 86.9593 8.4319 88.2236 11.5841 89.3451L19.4063 87.4655C17.7818 86.7864 16.4252 86.0357 15.3997 85.2219ZM20.3438 87.2403C20.6491 87.3583 20.9637 87.4742 21.2871 87.588L11.5535 89.9269C5.04103 87.6354 1.12122 84.6909 1.12122 81.4868C1.12122 78.2827 5.04103 75.3381 11.5535 73.0467L21.2871 75.3856C20.9638 75.4993 20.6494 75.6153 20.3441 75.7334C16.2011 77.3359 13.7477 79.3266 13.7477 81.4868C13.7477 83.647 16.1988 85.6377 20.3438 87.2403ZM25.7649 73.5091C31.4935 72.1497 38.7798 71.3412 46.7168 71.3412C54.6537 71.3412 61.94 72.1497 67.6686 73.5091L73.7336 71.3753C66.1969 69.7497 56.8415 68.7849 46.7168 68.7849C36.5919 68.7849 27.2388 69.7497 19.7001 71.3754L25.7649 73.5091ZM25.7344 74.0905L17.6899 71.2604C18.0233 71.1803 18.3606 71.1016 18.7019 71.0242C26.4344 69.2711 36.1638 68.2266 46.7168 68.2266C57.2697 68.2266 67.0016 69.2711 74.7318 71.0242C75.073 71.1015 75.4103 71.1803 75.7436 71.2604L67.6991 74.0905C61.9976 72.7201 54.6939 71.8996 46.7168 71.8996C38.7396 71.8996 31.4359 72.7201 25.7344 74.0905ZM81.8522 73.6284L74.03 75.508C75.6545 76.1872 77.0111 76.9378 78.0366 77.7516C79.3943 78.8291 80.2498 80.0834 80.2498 81.4868C80.2498 82.8903 79.3934 84.1446 78.0354 85.222C77.0098 86.0357 75.6532 86.7863 74.0295 87.4654L81.8522 89.3451C85.0044 88.2236 87.4934 86.9593 89.1912 85.6125C90.9237 84.2383 91.7539 82.8446 91.7539 81.4868C91.7539 80.1289 90.9237 78.7353 89.1912 77.361C87.4934 76.0143 85.0044 74.75 81.8522 73.6284ZM81.8828 89.9269L72.1492 87.588C72.4725 87.4742 72.7869 87.3582 73.0922 87.2402C77.2351 85.6377 79.6886 83.647 79.6886 81.4868C79.6886 79.3265 77.2375 77.3358 73.0925 75.7333C72.7871 75.6153 72.4726 75.4993 72.1492 75.3856L81.8828 73.0467C88.3952 75.3381 92.3151 78.2827 92.3151 81.4868C92.3151 84.6909 88.3952 87.6354 81.8828 89.9269ZM67.6686 89.4645C61.94 90.8239 54.6537 91.6323 46.7168 91.6323C38.7798 91.6323 31.4935 90.8239 25.7649 89.4645L19.6999 91.5982C27.2363 93.2238 36.5895 94.1887 46.7168 94.1887C56.8441 94.1887 66.1973 93.2238 73.7336 91.5982L67.6686 89.4645ZM67.6991 88.883C61.9976 90.2534 54.6939 91.074 46.7168 91.074C38.7396 91.074 31.4359 90.2534 25.7344 88.883L17.6899 91.7131C18.0232 91.7932 18.3605 91.872 18.7017 91.9494C26.4317 93.7025 36.1612 94.747 46.7168 94.747C57.2724 94.747 67.0018 93.7025 74.7318 91.9494C75.073 91.872 75.4103 91.7932 75.7436 91.7131L67.6991 88.883Z" fill="url(#paint3_radial_1491_1414)"/>
</g>
</g>
<path id="5" d="M91.7192 77.2954C91.7192 78.1021 91.1236 79.3234 88.9246 80.7945C86.7993 82.2164 83.5923 83.5751 79.4498 84.7473C71.1923 87.084 59.6693 88.5556 46.8596 88.5556C34.0499 88.5556 22.5269 87.084 14.2694 84.7473C10.1269 83.5751 6.91988 82.2164 4.79458 80.7945C2.59562 79.3234 2 78.1021 2 77.2954C2 76.4886 2.59562 75.2674 4.79458 73.7962C6.91988 72.3743 10.1269 71.0156 14.2694 69.8434C22.5269 67.5067 34.0499 66.0352 46.8596 66.0352C59.6693 66.0352 71.1923 67.5067 79.4498 69.8434C83.5923 71.0156 86.7993 72.3743 88.9246 73.7962C91.1236 75.2674 91.7192 76.4886 91.7192 77.2954Z" stroke="url(#paint4_linear_1491_1414)" stroke-width="4"/>
<g id="6">
<ellipse cx="46.8596" cy="77.018" rx="46.8596" ry="13.2602" fill="url(#paint5_linear_1491_1414)"/>
<ellipse cx="46.8596" cy="77.018" rx="46.8596" ry="13.2602" fill="url(#paint6_radial_1491_1414)" fill-opacity="0.75"/>
<ellipse cx="46.8596" cy="77.018" rx="46.8596" ry="13.2602" fill="url(#paint7_radial_1491_1414)" fill-opacity="0.75"/>
</g>
<g id="7">
<mask id="mask3_1491_1414" style="mask-type:alpha" maskUnits="userSpaceOnUse" x="0" y="51" width="94" height="40">
<path id="Vector_9" d="M46.8596 90.2783C72.7394 90.2783 93.7192 84.2165 93.7192 76.7389C93.7192 76.0268 93.529 75.3276 93.1623 74.6452L92.5221 73.6848L83.7959 60.5942C80.4882 55.5598 65.2089 51.7539 46.8596 51.7539C28.5794 51.7539 13.3461 55.5312 9.96117 60.5373L9.92329 60.5941L1.1971 73.6848L0.556881 74.6452C0.190256 75.3276 0 76.0268 0 76.7389C0 84.2165 20.9798 90.2783 46.8596 90.2783Z" fill="#1835E9"/>
</mask>
<g mask="url(#mask3_1491_1414)">
<g id="Vector_10" filter="url(#filter0_ii_1491_1414)">
<path d="M46.8596 90.2783C72.7394 90.2783 93.7192 84.2165 93.7192 76.7389C93.7192 76.0268 93.529 75.3276 93.1623 74.6452L92.5221 73.6848L83.7959 60.5942C80.4882 55.5598 65.2089 51.7539 46.8596 51.7539C28.5794 51.7539 13.3461 55.5312 9.96117 60.5373L9.92329 60.5941L1.1971 73.6848L0.556881 74.6452C0.190256 75.3276 0 76.0268 0 76.7389C0 84.2165 20.9798 90.2783 46.8596 90.2783Z" fill="#226193" fill-opacity="0.85"/>
</g>
<path id="1_2" d="M46.8596 90.2852C72.7394 90.2852 93.7192 84.2234 93.7192 76.7459C93.7192 76.0338 93.529 75.3345 93.1623 74.6521L92.5221 73.6917C90.5978 71.2801 86.4437 69.1148 80.721 67.3867C74.6359 71.0258 61.7599 73.5355 46.8596 73.5355C31.9593 73.5355 19.0833 71.0258 12.9982 67.3867C7.27547 69.1148 3.12148 71.2801 1.1971 73.6917L0.556881 74.6521C0.190256 75.3345 0 76.0338 0 76.7459C0 84.2234 20.9798 90.2852 46.8596 90.2852Z" fill="url(#paint8_linear_1491_1414)"/>
<path id="2_2" fill-rule="evenodd" clip-rule="evenodd" d="M46.0136 79.9491C71.7384 79.9491 92.5926 70.8252 92.5926 59.5702C92.5926 48.3153 71.7384 39.1914 46.0136 39.1914C20.2887 39.1914 -0.56543 48.3153 -0.56543 59.5702C-0.56543 70.8252 20.2887 79.9491 46.0136 79.9491ZM46.996 72.9718C67.6844 72.9718 84.4556 68.1599 84.4556 62.2241C84.4556 56.2883 67.6844 51.4764 46.996 51.4764C26.3076 51.4764 9.53638 56.2883 9.53638 62.2241C9.53638 68.1599 26.3076 72.9718 46.996 72.9718Z" fill="url(#paint9_linear_1491_1414)"/>
<path id="3_2" d="M90.1921 68.0864C90.1921 70.0809 89.1523 72.0912 87.0329 74.0316C84.9128 75.9727 81.7896 77.7666 77.8458 79.2939C69.9647 82.3458 59.0091 84.2549 46.8579 84.2549C34.7067 84.2549 23.7511 82.3458 15.87 79.2939C11.9262 77.7666 8.80301 75.9727 6.68297 74.0316C4.56356 72.0912 3.52368 70.0809 3.52368 68.0864C3.52368 66.092 4.56356 64.0817 6.68297 62.1413C8.80301 60.2002 11.9262 58.4063 15.87 56.879C23.7511 53.827 34.7067 51.918 46.8579 51.918C59.0091 51.918 69.9647 53.827 77.8458 56.879C81.7896 58.4063 84.9128 60.2002 87.0329 62.1413C89.1523 64.0817 90.1921 66.092 90.1921 68.0864Z" stroke="url(#paint10_linear_1491_1414)" stroke-width="2"/>
<g id="4_2" style="mix-blend-mode:overlay" opacity="0.7">
<g id="Vector_11" filter="url(#filter1_f_1491_1414)">
<path d="M13.9704 50.7461C13.3768 51.4105 13.1113 52.7362 12.7526 53.531C11.8084 55.6233 10.3701 57.0664 8.90477 58.8064C7.03857 61.0224 6.35345 63.5632 5.22604 66.143C4.82365 67.0638 4.37662 67.8351 3.763 68.6335C2.85003 69.8213 2.13293 71.1859 1.18366 72.3271C0.79342 72.7962 0.641611 73.3324 0.287234 73.8163C-0.255046 74.5568 -0.860463 75.2414 -1.43796 75.9533C-2.28628 76.9991 -2.71672 78.2321 -3.50144 79.302C-4.47979 80.6358 -5.59142 82.2917 -6.19917 83.8369C-6.58356 84.8142 -7.06206 85.677 -7.30702 86.7059C-7.64728 88.1352 -8.62032 89.2313 -9.37049 90.4753C-10.6149 92.5386 -11.4409 94.8456 -12.897 96.7771C-13.3076 97.3218 -13.667 97.912 -14.1571 98.4177C-14.4839 98.7549 -14.582 99.4789 -14.952 99.6629M-2.62192 77.4005C-3.06809 77.8444 -3.64387 78.1312 -4.10187 78.5868C-5.69161 80.1684 -7.01866 81.9569 -8.57555 83.5593C-9.46872 84.4785 -10.1382 85.2698 -11.2902 85.873C-12.1305 86.313 -12.4035 86.7625 -12.9731 87.3959C-13.4889 87.9694 -14.1593 88.7024 -14.5292 89.3647C-14.786 89.8246 -15.4643 89.9298 -15.7131 90.4248" stroke="white" stroke-width="20" stroke-linecap="round"/>
</g>
<g id="Vector 6" opacity="0.7" filter="url(#filter2_f_1491_1414)">
<path d="M27.042 57.4219C27.042 58.4401 26.4942 59.6504 26.2372 60.6245C24.6501 66.6397 22.4884 72.1034 19.3066 77.474C16.5461 82.1336 13.9627 86.8971 10.3101 90.9536C9.14468 92.2479 8.066 93.3738 7.1391 94.8493C6.50199 95.8634 5.63239 96.6762 5.08516 97.7651C4.53639 98.857 4.03903 99.99 3.48764 101.087C2.94462 102.168 2.79361 103.434 2.29851 104.529C2.03252 105.117 1.52979 105.811 1.52979 106.465" stroke="white" stroke-width="27" stroke-linecap="round"/>
</g>
<g id="Vector 7" opacity="0.7" filter="url(#filter3_f_1491_1414)">
<path d="M64.2296 59.7852C64.2296 60.2713 64.4228 60.7959 64.4939 61.2909C64.9559 64.5084 65.0107 67.721 66.1634 70.8031C67.0041 73.0508 67.8785 75.271 68.7459 77.507C69.4212 79.2477 69.5529 81.0843 70.1152 82.8486C71.1037 85.9504 71.1809 89.163 71.9169 92.3011C72.6224 95.3093 72.5886 98.4282 73.4303 101.419C74.5539 105.411 74.8237 109.749 74.8237 113.883C74.8237 115.551 75.2561 116.867 75.2561 118.507" stroke="white" stroke-width="27" stroke-linecap="round"/>
</g>
<g id="Vector 8" filter="url(#filter4_f_1491_1414)">
<path d="M81.3077 43.6562C81.3077 44.2989 81.3449 44.9161 81.4399 45.5563C82.0971 49.9881 83.592 54.4628 85.0313 58.6893C86.7548 63.7504 88.5943 68.6104 91.2772 73.2444C92.7097 75.7188 94.4132 77.9417 95.9736 80.3188C97.2419 82.2509 98.0431 84.4588 99.1567 86.4731C99.9726 87.9491 100.123 89.6911 100.658 91.2889C101.083 92.5562 101.892 93.4679 102.448 94.6349C102.664 95.0886 102.679 95.6983 102.976 96.0928C104.232 97.7582 104.631 100.08 105.739 101.733" stroke="white" stroke-width="20" stroke-linecap="round"/>
</g>
<g id="Vector 9" opacity="0.7" filter="url(#filter5_f_1491_1414)">
<path d="M73.526 46.8789C76.2246 49.5637 78.6151 52.5409 81.5256 55.0169C84.215 57.3047 87.0539 59.4753 89.9095 61.5535C92.0925 63.1421 94.6437 64.3844 96.6359 66.214C98.7826 68.1855 100.712 70.6773 103.651 71.4959C105.506 72.0126 106.646 73.3004 108.131 74.5192C112.135 77.8059 115.817 81.5292 119.794 84.8679C121.268 86.105 122.683 87.4386 124.07 88.7756C124.937 89.6116 126.084 90.1337 126.929 90.9744" stroke="white" stroke-width="27" stroke-linecap="round"/>
</g>
</g>
<g id="5_2">
<g id="Vector 10" filter="url(#filter6_f_1491_1414)">
<path d="M8.77985 61.5234C7.62955 62.795 6.84218 64.5775 5.94215 66.0149C3.43024 70.0265 1.02198 73.8731 -1.87441 77.6413C-4.05335 80.4761 -6.65151 83.1926 -8.24633 86.4189C-9.58904 89.1351 -10.3906 92.009 -11.9611 94.6318C-14.1446 98.2781 -17.2005 101.669 -19.0812 105.411" stroke="white" stroke-width="16" stroke-linecap="round"/>
</g>
<g id="Vector 11" filter="url(#filter7_f_1491_1414)">
<path d="M63.573 73.0781C63.573 77.9474 67.4832 83.5209 69.4032 87.8871C70.8628 91.2063 72.2725 94.7424 73.2986 98.2302C73.9953 100.599 75.3044 103.499 75.6461 105.878C75.9672 108.114 77.7783 115.486 79.8253 116.504" stroke="white" stroke-width="16" stroke-linecap="round"/>
</g>
<g id="Vector 12" filter="url(#filter8_f_1491_1414)">
<path d="M88.1857 61.9766C88.1857 63.1324 88.9127 64.2958 89.4239 65.3131C91.833 70.1066 95.1964 74.5155 98.2466 78.9157C101.086 83.0117 104.499 86.6279 107.198 90.8245C108.97 93.5794 111.427 96.2098 112.796 98.9347" stroke="white" stroke-width="16" stroke-linecap="round"/>
</g>
</g>
</g>
</g>
<rect id="8" width="1.68091" height="3.35531" transform="matrix(0.831436 0.55562 -0.559558 0.828791 13.3806 75.4883)" fill="#8DCDFF"/>
<rect id="9" width="1.68159" height="3.78105" transform="matrix(-0.877917 0.478812 0.4826 0.875841 81.7274 75.1992)" fill="#8DCDFF"/>
<rect id="10" width="1.68173" height="3.71841" transform="matrix(0.886652 0.462437 -0.46617 0.884695 17.7257 76.8789)" fill="#8DCDFF"/>
<g id="11">
<mask id="mask4_1491_1414" style="mask-type:alpha" maskUnits="userSpaceOnUse" x="9" y="51" width="76" height="22">
<g id="Vector_12">
<path d="M46.86 72.9622C61.7604 72.9622 74.6363 70.4525 80.7214 66.8134C72.1906 64.2374 60.1737 62.6332 46.86 62.6332C33.5464 62.6332 21.5295 64.2374 12.9987 66.8134C19.0838 70.4525 31.9597 72.9622 46.86 72.9622Z" fill="#2E5DD5"/>
<path d="M83.7964 60.0278C80.4887 54.9934 65.2093 51.1875 46.86 51.1875C28.5799 51.1875 13.3466 54.9648 9.96162 59.9709L9.92374 60.0277C9.48811 60.6908 9.26013 61.3751 9.26013 62.0748C9.26013 63.7732 10.6032 65.3808 12.9987 66.8134C21.5295 64.2374 33.5464 62.6332 46.86 62.6332C60.1737 62.6332 72.1906 64.2374 80.7214 66.8134C83.1169 65.3808 84.46 63.7732 84.46 62.0748C84.46 61.3751 84.232 60.6908 83.7964 60.0278Z" fill="#2E5DD5"/>
</g>
</mask>
<g mask="url(#mask4_1491_1414)">
<g id="Vector_13">
<path d="M46.86 72.9622C61.7604 72.9622 74.6363 70.4525 80.7214 66.8134C72.1906 64.2374 60.1737 62.6332 46.86 62.6332C33.5464 62.6332 21.5295 64.2374 12.9987 66.8134C19.0838 70.4525 31.9597 72.9622 46.86 72.9622Z" fill="#24A4E2"/>
<path d="M83.7964 60.0278C80.4887 54.9934 65.2093 51.1875 46.86 51.1875C28.5799 51.1875 13.3466 54.9648 9.96162 59.9709L9.92374 60.0277C9.48811 60.6908 9.26013 61.3751 9.26013 62.0748C9.26013 63.7732 10.6032 65.3808 12.9987 66.8134C21.5295 64.2374 33.5464 62.6332 46.86 62.6332C60.1737 62.6332 72.1906 64.2374 80.7214 66.8134C83.1169 65.3808 84.46 63.7732 84.46 62.0748C84.46 61.3751 84.232 60.6908 83.7964 60.0278Z" fill="#24A4E2"/>
</g>
<g id="Ellipse 18" filter="url(#filter9_f_1491_1414)">
<ellipse cx="23.0081" cy="4.75961" rx="23.0081" ry="4.75961" transform="matrix(0.996713 -0.0810105 0.0818394 0.996646 37.4171 68.9648)" fill="#8EC4F9"/>
</g>
<g id="Ellipse 20" filter="url(#filter10_f_1491_1414)">
<ellipse cx="23.0081" cy="1.87117" rx="23.0081" ry="1.87117" transform="matrix(0.996713 -0.0810105 0.0818394 0.996646 37.7283 72.75)" fill="#8EC4F9"/>
</g>
<g id="Ellipse 19" opacity="0.7" filter="url(#filter11_f_1491_1414)">
<ellipse cx="23.0081" cy="7.11888" rx="23.0081" ry="7.11888" transform="matrix(0.996713 -0.0810105 0.0818394 0.996646 -3.0863 44.3047)" fill="#8EC4F9"/>
</g>
</g>
</g>
<g id="12">
<mask id="mask5_1491_1414" style="mask-type:alpha" maskUnits="userSpaceOnUse" x="1" y="44" width="92" height="26">
<path id="Ellipse 21" d="M91.5361 56.6415C91.5361 58.0939 90.4598 59.5973 88.2134 61.0578C85.9885 62.5043 82.7358 63.826 78.6718 64.9436C70.5509 67.1767 59.3035 68.5642 46.8601 68.5642C34.4167 68.5642 23.1694 67.1767 15.0484 64.9436C10.9844 63.826 7.73173 62.5043 5.50677 61.0578C3.26036 59.5973 2.18408 58.0939 2.18408 56.6415C2.18408 55.1891 3.26036 53.6857 5.50677 52.2252C7.73173 50.7787 10.9844 49.4569 15.0484 48.3394C23.1694 46.1062 34.4167 44.7188 46.8601 44.7188C59.3035 44.7188 70.5509 46.1062 78.6718 48.3394C82.7358 49.4569 85.9885 50.7787 88.2134 52.2252C90.4598 53.6857 91.5361 55.1891 91.5361 56.6415Z" stroke="url(#paint11_linear_1491_1414)"/>
</mask>
<g mask="url(#mask5_1491_1414)">
<path id="Ellipse 22" d="M91.5361 56.6415C91.5361 58.0939 90.4598 59.5973 88.2134 61.0578C85.9885 62.5043 82.7358 63.826 78.6718 64.9436C70.5509 67.1767 59.3035 68.5642 46.8601 68.5642C34.4167 68.5642 23.1694 67.1767 15.0484 64.9436C10.9844 63.826 7.73173 62.5043 5.50677 61.0578C3.26036 59.5973 2.18408 58.0939 2.18408 56.6415C2.18408 55.1891 3.26036 53.6857 5.50677 52.2252C7.73173 50.7787 10.9844 49.4569 15.0484 48.3394C23.1694 46.1062 34.4167 44.7188 46.8601 44.7188C59.3035 44.7188 70.5509 46.1062 78.6718 48.3394C82.7358 49.4569 85.9885 50.7787 88.2134 52.2252C90.4598 53.6857 91.5361 55.1891 91.5361 56.6415Z" stroke="url(#paint12_linear_1491_1414)"/>
</g>
</g>
<path id="13" d="M10.7552 60.5873L10.7892 60.5363C11.4905 59.5008 12.8903 58.4224 15.0169 57.3948C17.123 56.3771 19.8431 55.4562 23.0568 54.6819C29.4818 53.1339 37.7795 52.1953 46.8575 52.1953C55.9699 52.1953 64.2959 53.141 70.7309 54.6995C73.9496 55.479 76.6696 56.4058 78.7693 57.4293C80.8919 58.464 82.2768 59.5479 82.9581 60.5847C83.3063 61.1147 83.4574 61.6112 83.4574 62.0826C83.4574 63.2204 82.5372 64.5686 80.2056 65.9629C77.3121 67.6934 72.7068 69.2034 66.9117 70.277C61.137 71.3468 54.2546 71.97 46.8575 71.97C39.4604 71.97 32.5779 71.3468 26.8032 70.277C21.0081 69.2034 16.4028 67.6934 13.5093 65.963C11.1778 64.5686 10.2576 63.2204 10.2576 62.0826C10.2576 61.612 10.4082 61.1163 10.7552 60.5873Z" stroke="url(#paint13_linear_1491_1414)" stroke-width="2"/>
<g id="14">
<mask id="mask6_1491_1414" style="mask-type:alpha" maskUnits="userSpaceOnUse" x="9" y="51" width="76" height="22">
<g id="16">
<path d="M10.7578 60.5794L10.7918 60.5284C11.493 59.493 12.8929 58.4145 15.0195 57.3869C17.1255 56.3693 19.8456 55.4484 23.0594 54.6741C29.4844 53.126 37.7821 52.1875 46.86 52.1875C55.9724 52.1875 64.2985 53.1332 70.7334 54.6917C73.9522 55.4712 76.6722 56.398 78.7718 57.4215C80.8945 58.4562 82.2794 59.5401 82.9606 60.5769C83.3089 61.1069 83.46 61.6034 83.46 62.0748C83.46 63.2125 82.5397 64.5608 80.2082 65.9551C77.3147 67.6855 72.7094 69.1956 66.9143 70.2692C61.1396 71.339 54.2571 71.9622 46.86 71.9622C39.463 71.9622 32.5805 71.339 26.8058 70.2692C21.0107 69.1956 16.4054 67.6855 13.5119 65.9551C11.1804 64.5608 10.2601 63.2125 10.2601 62.0748C10.2601 61.6042 10.4107 61.1085 10.7578 60.5794Z" stroke="url(#paint14_linear_1491_1414)" stroke-width="2"/>
<path d="M10.7578 60.5794L10.7918 60.5284C11.493 59.493 12.8929 58.4145 15.0195 57.3869C17.1255 56.3693 19.8456 55.4484 23.0594 54.6741C29.4844 53.126 37.7821 52.1875 46.86 52.1875C55.9724 52.1875 64.2985 53.1332 70.7334 54.6917C73.9522 55.4712 76.6722 56.398 78.7718 57.4215C80.8945 58.4562 82.2794 59.5401 82.9606 60.5769C83.3089 61.1069 83.46 61.6034 83.46 62.0748C83.46 63.2125 82.5397 64.5608 80.2082 65.9551C77.3147 67.6855 72.7094 69.1956 66.9143 70.2692C61.1396 71.339 54.2571 71.9622 46.86 71.9622C39.463 71.9622 32.5805 71.339 26.8058 70.2692C21.0107 69.1956 16.4054 67.6855 13.5119 65.9551C11.1804 64.5608 10.2601 63.2125 10.2601 62.0748C10.2601 61.6042 10.4107 61.1085 10.7578 60.5794Z" stroke="black" stroke-width="2"/>
</g>
</mask>
<g mask="url(#mask6_1491_1414)">
<path id="17" d="M10.7578 60.5794L10.7918 60.5284C11.493 59.493 12.8929 58.4145 15.0195 57.3869C17.1255 56.3693 19.8456 55.4484 23.0594 54.6741C29.4844 53.126 37.7821 52.1875 46.86 52.1875C55.9724 52.1875 64.2985 53.1332 70.7334 54.6917C73.9522 55.4712 76.6722 56.398 78.7718 57.4215C80.8945 58.4562 82.2794 59.5401 82.9606 60.5769C83.3089 61.1069 83.46 61.6034 83.46 62.0748C83.46 63.2125 82.5397 64.5608 80.2082 65.9551C77.3147 67.6855 72.7094 69.1956 66.9143 70.2692C61.1396 71.339 54.2571 71.9622 46.86 71.9622C39.463 71.9622 32.5805 71.339 26.8058 70.2692C21.0107 69.1956 16.4054 67.6855 13.5119 65.9551C11.1804 64.5608 10.2601 63.2125 10.2601 62.0748C10.2601 61.6042 10.4107 61.1085 10.7578 60.5794Z" stroke="url(#paint15_linear_1491_1414)" stroke-width="2"/>
<g id="Ellipse 23" filter="url(#filter12_f_1491_1414)">
<ellipse cx="44.7563" cy="70.3087" rx="18.3791" ry="9.91026" fill="#91DEFF" fill-opacity="0.905882"/>
</g>
<g id="Ellipse 24" filter="url(#filter13_f_1491_1414)">
<ellipse cx="49.5246" cy="70.8673" rx="18.3791" ry="9.91026" fill="#EBF6FF"/>
</g>
</g>
</g>
<g id="15">
<mask id="mask7_1491_1414" style="mask-type:alpha" maskUnits="userSpaceOnUse" x="9" y="18" width="76" height="55">
<path id="17_2" d="M46.8594 72.6096C61.7597 72.6096 74.6357 70.0999 80.7208 66.4608C83.1163 65.0282 84.4594 63.4206 84.4594 61.7222V18.3125H9.25952V61.7222C9.25952 63.4206 10.6026 65.0282 12.998 66.4608C19.0832 70.0999 31.9591 72.6096 46.8594 72.6096Z" fill="#D9D9D9"/>
</mask>
<g mask="url(#mask7_1491_1414)">
<g id="Ellipse 6" opacity="0.8" filter="url(#filter14_f_1491_1414)">
<ellipse cx="6.87398" cy="23.8706" rx="6.87398" ry="23.8706" transform="matrix(0.99097 0.134082 -0.135438 0.990786 80.8257 34.2266)" fill="#24A4E2" fill-opacity="0.57"/>
</g>
<g id="Ellipse 7" opacity="0.8" filter="url(#filter15_f_1491_1414)">
<ellipse cx="6.87288" cy="23.8744" rx="6.87288" ry="23.8744" transform="matrix(0.975191 -0.221366 0.223533 0.974696 -2.80774 35.8711)" fill="#24A4E2" fill-opacity="0.57"/>
</g>
</g>
</g>
<g id="Ellipse 197" filter="url(#filter16_f_1491_1414)">
<ellipse cx="77.4987" cy="28.2576" rx="0.180939" ry="0.179505" fill="white"/>
</g>
<g id="Ellipse 215" filter="url(#filter17_f_1491_1414)">
<circle cx="82.6914" cy="16.5817" r="0.394189" fill="white"/>
</g>
<g id="Ellipse 214" filter="url(#filter18_f_1491_1414)">
<circle cx="81.1878" cy="8.39419" r="0.394189" fill="white"/>
</g>
<circle id="Ellipse 198" cx="73.2169" cy="48.5622" r="0.394189" fill="white"/>
<circle id="Ellipse 209" cx="52.9767" cy="65.6676" r="0.394189" fill="white"/>
<g id="Ellipse 203" filter="url(#filter19_f_1491_1414)">
<circle cx="37.2344" cy="55.2497" r="0.394189" fill="white"/>
</g>
<circle id="Ellipse 204" cx="67.9656" cy="58.2262" r="0.394189" fill="white"/>
<circle id="Ellipse 211" cx="81.4619" cy="38.1442" r="0.394189" fill="white"/>
<circle id="Ellipse 210" cx="77.7119" cy="31.4528" r="0.394189" fill="white"/>
<circle id="Ellipse 207" cx="13.9947" cy="45.5817" r="0.394189" fill="white"/>
<circle id="Ellipse 216" cx="11.2697" cy="26.2458" r="0.394189" fill="white"/>
<circle id="Ellipse 217" cx="9.76614" cy="28.4723" r="0.394189" fill="white"/>
<g id="Ellipse 205" filter="url(#filter20_f_1491_1414)">
<circle cx="73.2169" cy="55.2497" r="0.394189" fill="white"/>
</g>
<circle id="Ellipse 206" cx="12.4936" cy="52.2731" r="0.394189" fill="white"/>
<circle id="Ellipse 208" cx="20.7414" cy="61.9372" r="0.394189" fill="white"/>
<g id="Ellipse 199" filter="url(#filter21_f_1491_1414)">
<circle cx="13.9436" cy="47.9645" r="0.394189" fill="white"/>
</g>
<g id="Ellipse 200" filter="url(#filter22_f_1491_1414)">
<circle cx="69.464" cy="45.5817" r="0.394189" fill="white"/>
</g>
<g id="Ellipse 201" filter="url(#filter23_f_1491_1414)">
<circle cx="45.4284" cy="47.2418" r="0.394189" fill="white"/>
</g>
<g id="Ellipse 202" filter="url(#filter24_f_1491_1414)">
<circle cx="15.0257" cy="58.027" r="0.394189" fill="white"/>
</g>
<g id="Group 1707479719">
<g id="Subtract">
<path fill-rule="evenodd" clip-rule="evenodd" d="M73 54.9063C73 58.4922 70.0919 61.4003 66.5059 61.4003H28.7109C25.1249 61.4003 22.2169 58.4922 22.2169 54.9063V50.4656H73V54.9063ZM73 46.9189H22.207V26.5526C22.207 22.9667 25.1151 20.0586 28.7011 20.0586H66.4961C70.0821 20.0586 72.9901 22.9667 72.9901 26.5526L73 46.9189ZM62.3697 36.3212H57.9094L55.7873 32.8826C55.4631 32.3619 54.8933 32.0377 54.2743 32.0377H54.2645C53.6455 32.0377 53.0757 32.3619 52.7515 32.8925L49.1557 38.8658L45.5697 27.0075C45.3438 26.2511 44.6069 25.7795 43.8406 25.75C43.0448 25.7696 42.3669 26.3002 42.1606 27.0665L39.6848 36.4784H32.847C31.8645 36.4784 31.0785 37.2742 31.0785 38.2468C31.0785 39.2293 31.8743 40.0153 32.847 40.0153H41.0505C41.8561 40.0153 42.5536 39.4749 42.7599 38.6988L43.988 34.0223L46.9157 43.6995C47.0434 44.1219 47.3283 44.4854 47.7017 44.7114C48.5368 45.2124 49.6273 44.9373 50.1283 44.1023L54.2841 37.2054L55.4041 39.0131C55.7283 39.5338 56.2982 39.8581 56.9171 39.8581H62.3697C63.3522 39.8581 64.1382 39.0623 64.1382 38.0896C64.1382 37.117 63.3424 36.3212 62.3697 36.3212ZM31.0687 56.6777H35.7943C36.7768 56.6777 37.5627 55.8819 37.5627 54.9093C37.5627 53.9268 36.767 53.1409 35.7943 53.1409H31.0687C30.0863 53.1409 29.3003 53.9366 29.3003 54.9093C29.3003 55.8819 30.0863 56.6777 31.0687 56.6777ZM47.6035 56.6752H42.8779C41.9053 56.6752 41.1095 55.8794 41.1095 54.9068C41.1095 53.9341 41.8955 53.1384 42.8779 53.1384H47.6035C48.5762 53.1384 49.3719 53.9243 49.3719 54.9068C49.3719 55.8794 48.586 56.6752 47.6035 56.6752ZM64.1382 54.9068C64.1382 56.2036 63.087 57.2647 61.7804 57.2647C60.4737 57.2647 59.4126 56.2134 59.4225 54.9068C59.4225 53.6001 60.4737 52.5391 61.7804 52.5391C63.087 52.5391 64.1382 53.6001 64.1382 54.9068Z" fill="url(#paint16_linear_1491_1414)"/>
<path fill-rule="evenodd" clip-rule="evenodd" d="M73 54.9063C73 58.4922 70.0919 61.4003 66.5059 61.4003H28.7109C25.1249 61.4003 22.2169 58.4922 22.2169 54.9063V50.4656H73V54.9063ZM73 46.9189H22.207V26.5526C22.207 22.9667 25.1151 20.0586 28.7011 20.0586H66.4961C70.0821 20.0586 72.9901 22.9667 72.9901 26.5526L73 46.9189ZM62.3697 36.3212H57.9094L55.7873 32.8826C55.4631 32.3619 54.8933 32.0377 54.2743 32.0377H54.2645C53.6455 32.0377 53.0757 32.3619 52.7515 32.8925L49.1557 38.8658L45.5697 27.0075C45.3438 26.2511 44.6069 25.7795 43.8406 25.75C43.0448 25.7696 42.3669 26.3002 42.1606 27.0665L39.6848 36.4784H32.847C31.8645 36.4784 31.0785 37.2742 31.0785 38.2468C31.0785 39.2293 31.8743 40.0153 32.847 40.0153H41.0505C41.8561 40.0153 42.5536 39.4749 42.7599 38.6988L43.988 34.0223L46.9157 43.6995C47.0434 44.1219 47.3283 44.4854 47.7017 44.7114C48.5368 45.2124 49.6273 44.9373 50.1283 44.1023L54.2841 37.2054L55.4041 39.0131C55.7283 39.5338 56.2982 39.8581 56.9171 39.8581H62.3697C63.3522 39.8581 64.1382 39.0623 64.1382 38.0896C64.1382 37.117 63.3424 36.3212 62.3697 36.3212ZM31.0687 56.6777H35.7943C36.7768 56.6777 37.5627 55.8819 37.5627 54.9093C37.5627 53.9268 36.767 53.1409 35.7943 53.1409H31.0687C30.0863 53.1409 29.3003 53.9366 29.3003 54.9093C29.3003 55.8819 30.0863 56.6777 31.0687 56.6777ZM47.6035 56.6752H42.8779C41.9053 56.6752 41.1095 55.8794 41.1095 54.9068C41.1095 53.9341 41.8955 53.1384 42.8779 53.1384H47.6035C48.5762 53.1384 49.3719 53.9243 49.3719 54.9068C49.3719 55.8794 48.586 56.6752 47.6035 56.6752ZM64.1382 54.9068C64.1382 56.2036 63.087 57.2647 61.7804 57.2647C60.4737 57.2647 59.4126 56.2134 59.4225 54.9068C59.4225 53.6001 60.4737 52.5391 61.7804 52.5391C63.087 52.5391 64.1382 53.6001 64.1382 54.9068Z" fill="url(#paint17_radial_1491_1414)"/>
</g>
<g id="Subtract_2" filter="url(#filter25_iii_1491_1414)">
<path fill-rule="evenodd" clip-rule="evenodd" d="M71.039 52.7149C71.039 56.3008 68.131 59.2089 64.545 59.2089H26.7499C23.164 59.2089 20.2559 56.3008 20.2559 52.7149V48.2742H71.039V52.7149ZM71.039 44.7275H20.2461V24.3612C20.2461 20.7753 23.1542 17.8672 26.7401 17.8672H64.5352C68.1211 17.8672 71.0292 20.7753 71.0292 24.3612L71.039 44.7275ZM60.4088 34.1298H55.9485L53.8263 30.6912C53.5021 30.1705 52.9323 29.8463 52.3134 29.8463H52.3035C51.6846 29.8463 51.1148 30.1705 50.7906 30.701L47.1948 36.6744L43.6088 24.8161C43.3828 24.0596 42.646 23.5881 41.8797 23.5586C41.0839 23.5782 40.406 24.1088 40.1997 24.8751L37.7239 34.287H30.886C29.9036 34.287 29.1176 35.0828 29.1176 36.0554C29.1176 37.0379 29.9134 37.8238 30.886 37.8238H39.0895C39.8951 37.8238 40.5927 37.2835 40.799 36.5074L42.0271 31.8309L44.9548 41.5081C45.0825 41.9305 45.3674 42.294 45.7407 42.52C46.5758 43.021 47.6664 42.7459 48.1674 41.9109L52.3232 35.014L53.4432 36.8217C53.7674 37.3424 54.3372 37.6667 54.9562 37.6667H60.4088C61.3913 37.6667 62.1772 36.8709 62.1772 35.8982C62.1772 34.9256 61.3814 34.1298 60.4088 34.1298ZM29.1078 54.4863H33.8334C34.8158 54.4863 35.6018 53.6905 35.6018 52.7179C35.6018 51.7354 34.806 50.9494 33.8334 50.9494H29.1078C28.1253 50.9494 27.3394 51.7452 27.3394 52.7179C27.3394 53.6905 28.1253 54.4863 29.1078 54.4863ZM45.6425 54.4799H40.9169C39.9442 54.4799 39.1484 53.6841 39.1484 52.7115C39.1484 51.7388 39.9344 50.943 40.9169 50.943H45.6425C46.6151 50.943 47.4109 51.729 47.4109 52.7115C47.4109 53.6841 46.6249 54.4799 45.6425 54.4799ZM62.1772 52.7115C62.1772 54.0083 61.126 55.0694 59.8193 55.0694C58.5126 55.0694 57.4516 54.0181 57.4614 52.7115C57.4614 51.4048 58.5126 50.3438 59.8193 50.3438C61.126 50.3438 62.1772 51.4048 62.1772 52.7115Z" fill="url(#paint18_linear_1491_1414)"/>
</g>
</g>
</g>
<defs>
<filter id="filter0_ii_1491_1414" x="0" y="39.7539" width="93.7192" height="50.5234" filterUnits="userSpaceOnUse" color-interpolation-filters="sRGB">
<feFlood flood-opacity="0" result="BackgroundImageFix"/>
<feBlend mode="normal" in="SourceGraphic" in2="BackgroundImageFix" result="shape"/>
<feColorMatrix in="SourceAlpha" type="matrix" values="0 0 0 0 0 0 0 0 0 0 0 0 0 0 0 0 0 0 127 0" result="hardAlpha"/>
<feOffset dy="-12"/>
<feGaussianBlur stdDeviation="8.5"/>
<feComposite in2="hardAlpha" operator="arithmetic" k2="-1" k3="1"/>
<feColorMatrix type="matrix" values="0 0 0 0 0.725 0 0 0 0 0.832404 0 0 0 0 1 0 0 0 0.67 0"/>
<feBlend mode="normal" in2="shape" result="effect1_innerShadow_1491_1414"/>
<feColorMatrix in="SourceAlpha" type="matrix" values="0 0 0 0 0 0 0 0 0 0 0 0 0 0 0 0 0 0 127 0" result="hardAlpha"/>
<feOffset dy="-7"/>
<feGaussianBlur stdDeviation="3"/>
<feComposite in2="hardAlpha" operator="arithmetic" k2="-1" k3="1"/>
<feColorMatrix type="matrix" values="0 0 0 0 1 0 0 0 0 1 0 0 0 0 1 0 0 0 0.33 0"/>
<feBlend mode="normal" in2="effect1_innerShadow_1491_1414" result="effect2_innerShadow_1491_1414"/>
</filter>
<filter id="filter1_f_1491_1414" x="-35.7153" y="30.7461" width="69.6859" height="88.918" filterUnits="userSpaceOnUse" color-interpolation-filters="sRGB">
<feFlood flood-opacity="0" result="BackgroundImageFix"/>
<feBlend mode="normal" in="SourceGraphic" in2="BackgroundImageFix" result="shape"/>
<feGaussianBlur stdDeviation="5" result="effect1_foregroundBlur_1491_1414"/>
</filter>
<filter id="filter2_f_1491_1414" x="-21.9702" y="33.9219" width="72.5122" height="96.043" filterUnits="userSpaceOnUse" color-interpolation-filters="sRGB">
<feFlood flood-opacity="0" result="BackgroundImageFix"/>
<feBlend mode="normal" in="SourceGraphic" in2="BackgroundImageFix" result="shape"/>
<feGaussianBlur stdDeviation="5" result="effect1_foregroundBlur_1491_1414"/>
</filter>
<filter id="filter3_f_1491_1414" x="40.7296" y="36.2852" width="58.0265" height="105.723" filterUnits="userSpaceOnUse" color-interpolation-filters="sRGB">
<feFlood flood-opacity="0" result="BackgroundImageFix"/>
<feBlend mode="normal" in="SourceGraphic" in2="BackgroundImageFix" result="shape"/>
<feGaussianBlur stdDeviation="5" result="effect1_foregroundBlur_1491_1414"/>
</filter>
<filter id="filter4_f_1491_1414" x="61.3077" y="23.6562" width="64.4323" height="98.0781" filterUnits="userSpaceOnUse" color-interpolation-filters="sRGB">
<feFlood flood-opacity="0" result="BackgroundImageFix"/>
<feBlend mode="normal" in="SourceGraphic" in2="BackgroundImageFix" result="shape"/>
<feGaussianBlur stdDeviation="5" result="effect1_foregroundBlur_1491_1414"/>
</filter>
<filter id="filter5_f_1491_1414" x="50.026" y="23.3789" width="100.403" height="91.0938" filterUnits="userSpaceOnUse" color-interpolation-filters="sRGB">
<feFlood flood-opacity="0" result="BackgroundImageFix"/>
<feBlend mode="normal" in="SourceGraphic" in2="BackgroundImageFix" result="shape"/>
<feGaussianBlur stdDeviation="5" result="effect1_foregroundBlur_1491_1414"/>
</filter>
<filter id="filter6_f_1491_1414" x="-61.0829" y="19.5234" width="111.863" height="127.891" filterUnits="userSpaceOnUse" color-interpolation-filters="sRGB">
<feFlood flood-opacity="0" result="BackgroundImageFix"/>
<feBlend mode="normal" in="SourceGraphic" in2="BackgroundImageFix" result="shape"/>
<feGaussianBlur stdDeviation="17" result="effect1_foregroundBlur_1491_1414"/>
</filter>
<filter id="filter7_f_1491_1414" x="21.573" y="31.0781" width="100.254" height="127.426" filterUnits="userSpaceOnUse" color-interpolation-filters="sRGB">
<feFlood flood-opacity="0" result="BackgroundImageFix"/>
<feBlend mode="normal" in="SourceGraphic" in2="BackgroundImageFix" result="shape"/>
<feGaussianBlur stdDeviation="17" result="effect1_foregroundBlur_1491_1414"/>
</filter>
<filter id="filter8_f_1491_1414" x="46.1857" y="19.9766" width="108.612" height="120.961" filterUnits="userSpaceOnUse" color-interpolation-filters="sRGB">
<feFlood flood-opacity="0" result="BackgroundImageFix"/>
<feBlend mode="normal" in="SourceGraphic" in2="BackgroundImageFix" result="shape"/>
<feGaussianBlur stdDeviation="17" result="effect1_foregroundBlur_1491_1414"/>
</filter>
<filter id="filter9_f_1491_1414" x="2.80322" y="31.7461" width="115.872" height="80.1953" filterUnits="userSpaceOnUse" color-interpolation-filters="sRGB">
<feFlood flood-opacity="0" result="BackgroundImageFix"/>
<feBlend mode="normal" in="SourceGraphic" in2="BackgroundImageFix" result="shape"/>
<feGaussianBlur stdDeviation="17.5" result="effect1_foregroundBlur_1491_1414"/>
</filter>
<filter id="filter10_f_1491_1414" x="26.8809" y="59.1133" width="67.8661" height="27.2734" filterUnits="userSpaceOnUse" color-interpolation-filters="sRGB">
<feFlood flood-opacity="0" result="BackgroundImageFix"/>
<feBlend mode="normal" in="SourceGraphic" in2="BackgroundImageFix" result="shape"/>
<feGaussianBlur stdDeviation="5.5" result="effect1_foregroundBlur_1491_1414"/>
</filter>
<filter id="filter11_f_1491_1414" x="-51.5112" y="-6.80078" width="143.88" height="112.676" filterUnits="userSpaceOnUse" color-interpolation-filters="sRGB">
<feFlood flood-opacity="0" result="BackgroundImageFix"/>
<feBlend mode="normal" in="SourceGraphic" in2="BackgroundImageFix" result="shape"/>
<feGaussianBlur stdDeviation="24.5" result="effect1_foregroundBlur_1491_1414"/>
</filter>
<filter id="filter12_f_1491_1414" x="-7.6228" y="26.3984" width="104.758" height="87.8203" filterUnits="userSpaceOnUse" color-interpolation-filters="sRGB">
<feFlood flood-opacity="0" result="BackgroundImageFix"/>
<feBlend mode="normal" in="SourceGraphic" in2="BackgroundImageFix" result="shape"/>
<feGaussianBlur stdDeviation="17" result="effect1_foregroundBlur_1491_1414"/>
</filter>
<filter id="filter13_f_1491_1414" x="-2.85449" y="26.957" width="104.758" height="87.8203" filterUnits="userSpaceOnUse" color-interpolation-filters="sRGB">
<feFlood flood-opacity="0" result="BackgroundImageFix"/>
<feBlend mode="normal" in="SourceGraphic" in2="BackgroundImageFix" result="shape"/>
<feGaussianBlur stdDeviation="17" result="effect1_foregroundBlur_1491_1414"/>
</filter>
<filter id="filter14_f_1491_1414" x="68.8627" y="27.1289" width="31.0839" height="63.3398" filterUnits="userSpaceOnUse" color-interpolation-filters="sRGB">
<feFlood flood-opacity="0" result="BackgroundImageFix"/>
<feBlend mode="normal" in="SourceGraphic" in2="BackgroundImageFix" result="shape"/>
<feGaussianBlur stdDeviation="4" result="effect1_foregroundBlur_1491_1414"/>
</filter>
<filter id="filter15_f_1491_1414" x="-7.33655" y="26.3008" width="33.1357" height="62.6406" filterUnits="userSpaceOnUse" color-interpolation-filters="sRGB">
<feFlood flood-opacity="0" result="BackgroundImageFix"/>
<feBlend mode="normal" in="SourceGraphic" in2="BackgroundImageFix" result="shape"/>
<feGaussianBlur stdDeviation="4" result="effect1_foregroundBlur_1491_1414"/>
</filter>
<filter id="filter16_f_1491_1414" x="76.3177" y="27.0781" width="2.36194" height="2.35938" filterUnits="userSpaceOnUse" color-interpolation-filters="sRGB">
<feFlood flood-opacity="0" result="BackgroundImageFix"/>
<feBlend mode="normal" in="SourceGraphic" in2="BackgroundImageFix" result="shape"/>
<feGaussianBlur stdDeviation="0.5" result="effect1_foregroundBlur_1491_1414"/>
</filter>
<filter id="filter17_f_1491_1414" x="81.2972" y="15.1875" width="2.78833" height="2.78906" filterUnits="userSpaceOnUse" color-interpolation-filters="sRGB">
<feFlood flood-opacity="0" result="BackgroundImageFix"/>
<feBlend mode="normal" in="SourceGraphic" in2="BackgroundImageFix" result="shape"/>
<feGaussianBlur stdDeviation="0.5" result="effect1_foregroundBlur_1491_1414"/>
</filter>
<filter id="filter18_f_1491_1414" x="79.7936" y="7" width="2.78833" height="2.78906" filterUnits="userSpaceOnUse" color-interpolation-filters="sRGB">
<feFlood flood-opacity="0" result="BackgroundImageFix"/>
<feBlend mode="normal" in="SourceGraphic" in2="BackgroundImageFix" result="shape"/>
<feGaussianBlur stdDeviation="0.5" result="effect1_foregroundBlur_1491_1414"/>
</filter>
<filter id="filter19_f_1491_1414" x="35.8402" y="53.8555" width="2.78833" height="2.78906" filterUnits="userSpaceOnUse" color-interpolation-filters="sRGB">
<feFlood flood-opacity="0" result="BackgroundImageFix"/>
<feBlend mode="normal" in="SourceGraphic" in2="BackgroundImageFix" result="shape"/>
<feGaussianBlur stdDeviation="0.5" result="effect1_foregroundBlur_1491_1414"/>
</filter>
<filter id="filter20_f_1491_1414" x="71.8228" y="53.8555" width="2.78833" height="2.78906" filterUnits="userSpaceOnUse" color-interpolation-filters="sRGB">
<feFlood flood-opacity="0" result="BackgroundImageFix"/>
<feBlend mode="normal" in="SourceGraphic" in2="BackgroundImageFix" result="shape"/>
<feGaussianBlur stdDeviation="0.5" result="effect1_foregroundBlur_1491_1414"/>
</filter>
<filter id="filter21_f_1491_1414" x="12.5494" y="46.5703" width="2.78833" height="2.78906" filterUnits="userSpaceOnUse" color-interpolation-filters="sRGB">
<feFlood flood-opacity="0" result="BackgroundImageFix"/>
<feBlend mode="normal" in="SourceGraphic" in2="BackgroundImageFix" result="shape"/>
<feGaussianBlur stdDeviation="0.5" result="effect1_foregroundBlur_1491_1414"/>
</filter>
<filter id="filter22_f_1491_1414" x="68.0698" y="44.1875" width="2.78833" height="2.78906" filterUnits="userSpaceOnUse" color-interpolation-filters="sRGB">
<feFlood flood-opacity="0" result="BackgroundImageFix"/>
<feBlend mode="normal" in="SourceGraphic" in2="BackgroundImageFix" result="shape"/>
<feGaussianBlur stdDeviation="0.5" result="effect1_foregroundBlur_1491_1414"/>
</filter>
<filter id="filter23_f_1491_1414" x="44.0342" y="45.8477" width="2.78833" height="2.78906" filterUnits="userSpaceOnUse" color-interpolation-filters="sRGB">
<feFlood flood-opacity="0" result="BackgroundImageFix"/>
<feBlend mode="normal" in="SourceGraphic" in2="BackgroundImageFix" result="shape"/>
<feGaussianBlur stdDeviation="0.5" result="effect1_foregroundBlur_1491_1414"/>
</filter>
<filter id="filter24_f_1491_1414" x="13.6315" y="56.6328" width="2.78833" height="2.78906" filterUnits="userSpaceOnUse" color-interpolation-filters="sRGB">
<feFlood flood-opacity="0" result="BackgroundImageFix"/>
<feBlend mode="normal" in="SourceGraphic" in2="BackgroundImageFix" result="shape"/>
<feGaussianBlur stdDeviation="0.5" result="effect1_foregroundBlur_1491_1414"/>
</filter>
<filter id="filter25_iii_1491_1414" x="20.2461" y="14.8672" width="50.793" height="44.3398" filterUnits="userSpaceOnUse" color-interpolation-filters="sRGB">
<feFlood flood-opacity="0" result="BackgroundImageFix"/>
<feBlend mode="normal" in="SourceGraphic" in2="BackgroundImageFix" result="shape"/>
<feColorMatrix in="SourceAlpha" type="matrix" values="0 0 0 0 0 0 0 0 0 0 0 0 0 0 0 0 0 0 127 0" result="hardAlpha"/>
<feOffset dy="-1"/>
<feGaussianBlur stdDeviation="1.5"/>
<feComposite in2="hardAlpha" operator="arithmetic" k2="-1" k3="1"/>
<feColorMatrix type="matrix" values="0 0 0 0 1 0 0 0 0 1 0 0 0 0 1 0 0 0 0.25 0"/>
<feBlend mode="normal" in2="shape" result="effect1_innerShadow_1491_1414"/>
<feColorMatrix in="SourceAlpha" type="matrix" values="0 0 0 0 0 0 0 0 0 0 0 0 0 0 0 0 0 0 127 0" result="hardAlpha"/>
<feOffset dy="-1"/>
<feGaussianBlur stdDeviation="1.5"/>
<feComposite in2="hardAlpha" operator="arithmetic" k2="-1" k3="1"/>
<feColorMatrix type="matrix" values="0 0 0 0 1 0 0 0 0 1 0 0 0 0 1 0 0 0 1 0"/>
<feBlend mode="normal" in2="effect1_innerShadow_1491_1414" result="effect2_innerShadow_1491_1414"/>
<feColorMatrix in="SourceAlpha" type="matrix" values="0 0 0 0 0 0 0 0 0 0 0 0 0 0 0 0 0 0 127 0" result="hardAlpha"/>
<feOffset dy="-10"/>
<feGaussianBlur stdDeviation="1.5"/>
<feComposite in2="hardAlpha" operator="arithmetic" k2="-1" k3="1"/>
<feColorMatrix type="matrix" values="0 0 0 0 1 0 0 0 0 1 0 0 0 0 1 0 0 0 0.25 0"/>
<feBlend mode="normal" in2="effect2_innerShadow_1491_1414" result="effect3_innerShadow_1491_1414"/>
</filter>
<linearGradient id="paint0_linear_1491_1414" x1="46.8599" y1="81.3477" x2="46.8599" y2="96.1433" gradientUnits="userSpaceOnUse">
<stop offset="0.098092" stop-color="#D9D9D9" stop-opacity="0"/>
<stop offset="1" stop-color="#D9D9D9" stop-opacity="0.87"/>
</linearGradient>
<linearGradient id="paint1_linear_1491_1414" x1="14.0301" y1="96.1433" x2="78.5673" y2="96.1433" gradientUnits="userSpaceOnUse">
<stop offset="0.098092" stop-color="#D9D9D9" stop-opacity="0"/>
<stop offset="0.253017" stop-color="#D9D9D9" stop-opacity="0.180373"/>
<stop offset="0.38712" stop-color="#D9D9D9" stop-opacity="0.82172"/>
<stop offset="0.457557" stop-color="#D9D9D9"/>
<stop offset="0.67274" stop-color="#D9D9D9" stop-opacity="0.162646"/>
<stop offset="0.871024" stop-color="#D9D9D9" stop-opacity="0"/>
</linearGradient>
<linearGradient id="paint2_linear_1491_1414" x1="46.8599" y1="81.3477" x2="46.8599" y2="96.1433" gradientUnits="userSpaceOnUse">
<stop offset="0.098092" stop-color="#D9D9D9" stop-opacity="0"/>
<stop offset="1" stop-color="#D9D9D9" stop-opacity="0.87"/>
</linearGradient>
<radialGradient id="paint3_radial_1491_1414" cx="0" cy="0" r="1" gradientUnits="userSpaceOnUse" gradientTransform="translate(46.7181 81.4868) rotate(90) scale(13.2602 45.5969)">
<stop offset="0.664349" stop-color="white" stop-opacity="0"/>
<stop offset="1" stop-color="white"/>
</radialGradient>
<linearGradient id="paint4_linear_1491_1414" x1="46.8596" y1="64.0352" x2="46.8596" y2="90.5556" gradientUnits="userSpaceOnUse">
<stop offset="0.101307" stop-color="#226193" stop-opacity="0.109804"/>
<stop offset="1" stop-color="#226193" stop-opacity="0.756863"/>
</linearGradient>
<linearGradient id="paint5_linear_1491_1414" x1="46.8596" y1="63.7578" x2="46.8596" y2="90.2782" gradientUnits="userSpaceOnUse">
<stop offset="0.67036" stop-color="#2896FF" stop-opacity="0"/>
<stop offset="1" stop-color="#2896FF" stop-opacity="0.172549"/>
</linearGradient>
<radialGradient id="paint6_radial_1491_1414" cx="0" cy="0" r="1" gradientUnits="userSpaceOnUse" gradientTransform="translate(43.773 90.2782) rotate(90) scale(6.56031 20.2163)">
<stop stop-color="#0560EE" stop-opacity="0.376471"/>
<stop offset="1" stop-color="#0560EE" stop-opacity="0"/>
</radialGradient>
<radialGradient id="paint7_radial_1491_1414" cx="0" cy="0" r="1" gradientUnits="userSpaceOnUse" gradientTransform="translate(46.8596 90.2782) rotate(90) scale(3.34995 9.08895)">
<stop stop-color="#0560EE" stop-opacity="0.376471"/>
<stop offset="1" stop-color="#0560EE" stop-opacity="0"/>
</radialGradient>
<linearGradient id="paint8_linear_1491_1414" x1="10.9433" y1="78.8324" x2="57.6489" y2="86.8681" gradientUnits="userSpaceOnUse">
<stop stop-color="#24A4E2" stop-opacity="0"/>
<stop offset="0.407828" stop-color="#24A4E2" stop-opacity="0.580392"/>
<stop offset="0.481962" stop-color="#24A4E2" stop-opacity="0.580392"/>
<stop offset="1" stop-color="#24A4E2" stop-opacity="0"/>
</linearGradient>
<linearGradient id="paint9_linear_1491_1414" x1="-0.56543" y1="59.5702" x2="92.5926" y2="59.5702" gradientUnits="userSpaceOnUse">
<stop stop-color="#24A4E2" stop-opacity="0"/>
<stop offset="0.225624" stop-color="#0064B3" stop-opacity="0.701961"/>
<stop offset="0.515689" stop-color="#0064B3"/>
<stop offset="0.795142" stop-color="#0064B3" stop-opacity="0.858824"/>
<stop offset="1" stop-color="#83A5EC" stop-opacity="0"/>
</linearGradient>
<linearGradient id="paint10_linear_1491_1414" x1="2.52368" y1="68.226" x2="91.1921" y2="68.226" gradientUnits="userSpaceOnUse">
<stop stop-color="#226193" stop-opacity="0"/>
<stop offset="0.188485" stop-color="#226193" stop-opacity="0.137255"/>
<stop offset="0.503814" stop-color="#226193" stop-opacity="0.145098"/>
<stop offset="0.770759" stop-color="#226193" stop-opacity="0.5"/>
<stop offset="1" stop-color="#226193" stop-opacity="0"/>
</linearGradient>
<linearGradient id="paint11_linear_1491_1414" x1="46.8601" y1="44.2188" x2="46.8601" y2="69.0642" gradientUnits="userSpaceOnUse">
<stop offset="0.0782727" stop-opacity="0"/>
<stop offset="0.341032"/>
</linearGradient>
<linearGradient id="paint12_linear_1491_1414" x1="1.68408" y1="56.7811" x2="92.0361" y2="56.7811" gradientUnits="userSpaceOnUse">
<stop stop-color="#90DEFF" stop-opacity="0.470588"/>
<stop offset="0.113408" stop-color="#90DEFF" stop-opacity="0.368627"/>
<stop offset="0.248015" stop-color="#90DEFF" stop-opacity="0.0901961"/>
<stop offset="0.460278" stop-color="#90DEFF" stop-opacity="0.0627451"/>
<stop offset="0.58" stop-color="#90DEFF" stop-opacity="0.101961"/>
<stop offset="0.829583" stop-color="#90DEFF" stop-opacity="0.223529"/>
<stop offset="1" stop-color="#90DEFF" stop-opacity="0.356863"/>
</linearGradient>
<linearGradient id="paint13_linear_1491_1414" x1="46.8575" y1="51.1953" x2="46.8575" y2="72.97" gradientUnits="userSpaceOnUse">
<stop stop-color="#7FBFFF" stop-opacity="0.0156863"/>
<stop offset="0.51318" stop-color="#93B5FF" stop-opacity="0.32549"/>
<stop offset="0.870161" stop-color="#92B5FF" stop-opacity="0.737255"/>
</linearGradient>
<linearGradient id="paint14_linear_1491_1414" x1="46.86" y1="51.1875" x2="46.86" y2="72.9622" gradientUnits="userSpaceOnUse">
<stop stop-color="#7FBFFF" stop-opacity="0.0156863"/>
<stop offset="0.51318" stop-color="#93B5FF" stop-opacity="0.32549"/>
<stop offset="0.870161" stop-color="#92B5FF" stop-opacity="0.737255"/>
</linearGradient>
<linearGradient id="paint15_linear_1491_1414" x1="9.26013" y1="62.0748" x2="84.46" y2="62.0748" gradientUnits="userSpaceOnUse">
<stop stop-color="#90DEFF" stop-opacity="0.380392"/>
<stop offset="0.152974" stop-color="#90DEFF" stop-opacity="0.27451"/>
<stop offset="0.51318" stop-color="#ABE7F2"/>
<stop offset="0.799163" stop-color="#90DEFF" stop-opacity="0.329412"/>
<stop offset="1" stop-color="#90DEFF" stop-opacity="0.427451"/>
</linearGradient>
<linearGradient id="paint16_linear_1491_1414" x1="64.2268" y1="20.0586" x2="40.0423" y2="62.0448" gradientUnits="userSpaceOnUse">
<stop stop-color="#B6D2FF"/>
<stop offset="0.226688" stop-color="#0086C7"/>
<stop offset="0.342763" stop-color="#0086C7"/>
<stop offset="0.567708" stop-color="#0086C7"/>
<stop offset="0.591668" stop-color="#0086C7"/>
<stop offset="0.685214" stop-color="#A6C9FF"/>
<stop offset="0.745037" stop-color="#0086C7"/>
</linearGradient>
<radialGradient id="paint17_radial_1491_1414" cx="0" cy="0" r="1" gradientUnits="userSpaceOnUse" gradientTransform="translate(42.9099 39.6015) rotate(79.5987) scale(15.6931 25.3155)">
<stop stop-color="#24A4E2"/>
<stop offset="1" stop-color="#24A4E2" stop-opacity="0"/>
</radialGradient>
<linearGradient id="paint18_linear_1491_1414" x1="45.6426" y1="17.8672" x2="45.6426" y2="59.2089" gradientUnits="userSpaceOnUse">
<stop stop-color="#E7EFFF"/>
<stop offset="1" stop-color="#24A4E2"/>
</linearGradient>
</defs>
</svg>
