<svg width="94" height="97" viewBox="0 0 94 97" fill="none" xmlns="http://www.w3.org/2000/svg">
<g id="icon-&#229;&#144;&#144;&#233;&#135;&#143;" filter="url(#filter0_d_1470_22130)">
<g id="&#229;&#186;&#149;&#229;&#186;&#167; 3">
<ellipse id="1" cx="46.8596" cy="75.9829" rx="46.8596" ry="13.2602" fill="#226193" fill-opacity="0.278431"/>
<g id="2">
<mask id="mask0_1470_22130" style="mask-type:alpha" maskUnits="userSpaceOnUse" x="0" y="80" width="93" height="15">
<rect id="Rectangle 1" x="0.842041" y="80.0352" width="92.0356" height="14.7956" fill="url(#paint0_linear_1470_22130)"/>
</mask>
<g mask="url(#mask0_1470_22130)">
<g id="Group 4">
<g id="Vector">
<path d="M13.7489 81.5688C13.7489 83.8882 16.5744 86.0121 21.2883 87.67L11.5547 90.0089C5.04225 87.7175 1.12244 84.7729 1.12244 81.5688C1.12244 78.3647 5.04225 75.4202 11.5547 73.1287L21.2883 75.4676C16.5772 77.1255 13.7489 79.2495 13.7489 81.5688Z" fill="#226193" fill-opacity="0.301961"/>
<path d="M46.718 71.9816C38.7409 71.9816 31.4372 72.8022 25.7356 74.1726L17.6912 71.3424C25.5785 69.4473 35.6993 68.3086 46.718 68.3086C57.7367 68.3086 67.8603 69.4473 75.7448 71.3424L67.7003 74.1726C61.9988 72.8022 54.6951 71.9816 46.718 71.9816Z" fill="#226193" fill-opacity="0.301961"/>
<path d="M81.884 73.1287C88.3965 75.4202 92.3163 78.3647 92.3163 81.5688C92.3163 84.7729 88.3965 87.7175 81.884 90.0089L72.1504 87.67C76.8615 86.0121 79.6898 83.8882 79.6898 81.5688C79.6898 79.2495 76.8643 77.1255 72.1504 75.4676L81.884 73.1287Z" fill="#226193" fill-opacity="0.301961"/>
<path d="M46.718 91.156C54.6951 91.156 61.9988 90.3354 67.7003 88.965L75.7448 91.7952C67.8603 93.6903 57.7395 94.829 46.718 94.829C35.6965 94.829 25.5757 93.6903 17.6912 91.7952L25.7356 88.965C31.4372 90.3354 38.7409 91.156 46.718 91.156Z" fill="#226193" fill-opacity="0.301961"/>
</g>
<g id="Vector_2">
<path d="M13.7489 81.5688C13.7489 83.8882 16.5744 86.0121 21.2883 87.67L11.5547 90.0089C5.04225 87.7175 1.12244 84.7729 1.12244 81.5688C1.12244 78.3647 5.04225 75.4202 11.5547 73.1287L21.2883 75.4676C16.5772 77.1255 13.7489 79.2495 13.7489 81.5688Z" fill="#24A4E2"/>
<path d="M46.718 71.9816C38.7409 71.9816 31.4372 72.8022 25.7356 74.1726L17.6912 71.3424C25.5785 69.4473 35.6993 68.3086 46.718 68.3086C57.7367 68.3086 67.8603 69.4473 75.7448 71.3424L67.7003 74.1726C61.9988 72.8022 54.6951 71.9816 46.718 71.9816Z" fill="#24A4E2"/>
<path d="M81.884 73.1287C88.3965 75.4202 92.3163 78.3647 92.3163 81.5688C92.3163 84.7729 88.3965 87.7175 81.884 90.0089L72.1504 87.67C76.8615 86.0121 79.6898 83.8882 79.6898 81.5688C79.6898 79.2495 76.8643 77.1255 72.1504 75.4676L81.884 73.1287Z" fill="#24A4E2"/>
<path d="M46.718 91.156C54.6951 91.156 61.9988 90.3354 67.7003 88.965L75.7448 91.7952C67.8603 93.6903 57.7395 94.829 46.718 94.829C35.6965 94.829 25.5757 93.6903 17.6912 91.7952L25.7356 88.965C31.4372 90.3354 38.7409 91.156 46.718 91.156Z" fill="#24A4E2"/>
</g>
<g id="Vector_3">
<path d="M13.7489 80.1743C13.7489 82.4936 16.5744 84.6176 21.2883 86.2755L11.5547 88.6144C5.04225 86.3229 1.12244 83.3784 1.12244 80.1743C1.12244 76.9702 5.04225 74.0256 11.5547 71.7342L21.2883 74.0731C16.5772 75.7309 13.7489 77.8549 13.7489 80.1743Z" fill="#24A4E2"/>
<path d="M46.718 70.5871C38.7409 70.5871 31.4372 71.4076 25.7356 72.778L17.6912 69.9479C25.5785 68.0528 35.6993 66.9141 46.718 66.9141C57.7367 66.9141 67.8603 68.0528 75.7448 69.9479L67.7003 72.778C61.9988 71.4076 54.6951 70.5871 46.718 70.5871Z" fill="#24A4E2"/>
<path d="M81.884 71.7342C88.3965 74.0256 92.3163 76.9702 92.3163 80.1743C92.3163 83.3784 88.3965 86.3229 81.884 88.6144L72.1504 86.2755C76.8615 84.6176 79.6898 82.4936 79.6898 80.1743C79.6898 77.8549 76.8643 75.7309 72.1504 74.0731L81.884 71.7342Z" fill="#24A4E2"/>
<path d="M46.718 89.7615C54.6951 89.7615 61.9988 88.9409 67.7003 87.5705L75.7448 90.4006C67.8603 92.2957 57.7395 93.4345 46.718 93.4345C35.6965 93.4345 25.5757 92.2957 17.6912 90.4006L25.7356 87.5705C31.4372 88.9409 38.7409 89.7615 46.718 89.7615Z" fill="#24A4E2"/>
</g>
<g id="Vector_4">
<path d="M13.7489 80.1743C13.7489 82.4936 16.5744 84.6176 21.2883 86.2755L11.5547 88.6144C5.04225 86.3229 1.12244 83.3784 1.12244 80.1743C1.12244 76.9702 5.04225 74.0256 11.5547 71.7342L21.2883 74.0731C16.5772 75.7309 13.7489 77.8549 13.7489 80.1743Z" fill="#24A4E2"/>
<path d="M46.718 70.5871C38.7409 70.5871 31.4372 71.4076 25.7356 72.778L17.6912 69.9479C25.5785 68.0528 35.6993 66.9141 46.718 66.9141C57.7367 66.9141 67.8603 68.0528 75.7448 69.9479L67.7003 72.778C61.9988 71.4076 54.6951 70.5871 46.718 70.5871Z" fill="#24A4E2"/>
<path d="M81.884 71.7342C88.3965 74.0256 92.3163 76.9702 92.3163 80.1743C92.3163 83.3784 88.3965 86.3229 81.884 88.6144L72.1504 86.2755C76.8615 84.6176 79.6898 82.4936 79.6898 80.1743C79.6898 77.8549 76.8643 75.7309 72.1504 74.0731L81.884 71.7342Z" fill="#24A4E2"/>
<path d="M46.718 89.7615C54.6951 89.7615 61.9988 88.9409 67.7003 87.5705L75.7448 90.4006C67.8603 92.2957 57.7395 93.4345 46.718 93.4345C35.6965 93.4345 25.5757 92.2957 17.6912 90.4006L25.7356 87.5705C31.4372 88.9409 38.7409 89.7615 46.718 89.7615Z" fill="#24A4E2"/>
</g>
</g>
</g>
</g>
<g id="3">
<mask id="mask1_1470_22130" style="mask-type:alpha" maskUnits="userSpaceOnUse" x="0" y="80" width="93" height="15">
<rect id="Rectangle 1_2" x="0.842041" y="80.0352" width="92.0356" height="14.7956" fill="url(#paint1_linear_1470_22130)"/>
</mask>
<g mask="url(#mask1_1470_22130)">
<g id="Group 4_2">
<g id="Vector_5">
<path d="M13.7489 81.5688C13.7489 83.8882 16.5744 86.0121 21.2883 87.67L11.5547 90.0089C5.04225 87.7175 1.12244 84.7729 1.12244 81.5688C1.12244 78.3647 5.04225 75.4202 11.5547 73.1287L21.2883 75.4676C16.5772 77.1255 13.7489 79.2495 13.7489 81.5688Z" fill="#226193" fill-opacity="0.301961"/>
<path d="M46.718 71.9816C38.7409 71.9816 31.4372 72.8022 25.7356 74.1726L17.6912 71.3424C25.5785 69.4473 35.6993 68.3086 46.718 68.3086C57.7367 68.3086 67.8603 69.4473 75.7448 71.3424L67.7003 74.1726C61.9988 72.8022 54.6951 71.9816 46.718 71.9816Z" fill="#226193" fill-opacity="0.301961"/>
<path d="M81.884 73.1287C88.3965 75.4202 92.3163 78.3647 92.3163 81.5688C92.3163 84.7729 88.3965 87.7175 81.884 90.0089L72.1504 87.67C76.8615 86.0121 79.6898 83.8882 79.6898 81.5688C79.6898 79.2495 76.8643 77.1255 72.1504 75.4676L81.884 73.1287Z" fill="#226193" fill-opacity="0.301961"/>
<path d="M46.718 91.156C54.6951 91.156 61.9988 90.3354 67.7003 88.965L75.7448 91.7952C67.8603 93.6903 57.7395 94.829 46.718 94.829C35.6965 94.829 25.5757 93.6903 17.6912 91.7952L25.7356 88.965C31.4372 90.3354 38.7409 91.156 46.718 91.156Z" fill="#226193" fill-opacity="0.301961"/>
</g>
<g id="Vector_6">
<path d="M13.7489 81.5688C13.7489 83.8882 16.5744 86.0121 21.2883 87.67L11.5547 90.0089C5.04225 87.7175 1.12244 84.7729 1.12244 81.5688C1.12244 78.3647 5.04225 75.4202 11.5547 73.1287L21.2883 75.4676C16.5772 77.1255 13.7489 79.2495 13.7489 81.5688Z" fill="#24A4E2"/>
<path d="M46.718 71.9816C38.7409 71.9816 31.4372 72.8022 25.7356 74.1726L17.6912 71.3424C25.5785 69.4473 35.6993 68.3086 46.718 68.3086C57.7367 68.3086 67.8603 69.4473 75.7448 71.3424L67.7003 74.1726C61.9988 72.8022 54.6951 71.9816 46.718 71.9816Z" fill="#24A4E2"/>
<path d="M81.884 73.1287C88.3965 75.4202 92.3163 78.3647 92.3163 81.5688C92.3163 84.7729 88.3965 87.7175 81.884 90.0089L72.1504 87.67C76.8615 86.0121 79.6898 83.8882 79.6898 81.5688C79.6898 79.2495 76.8643 77.1255 72.1504 75.4676L81.884 73.1287Z" fill="#24A4E2"/>
<path d="M46.718 91.156C54.6951 91.156 61.9988 90.3354 67.7003 88.965L75.7448 91.7952C67.8603 93.6903 57.7395 94.829 46.718 94.829C35.6965 94.829 25.5757 93.6903 17.6912 91.7952L25.7356 88.965C31.4372 90.3354 38.7409 91.156 46.718 91.156Z" fill="#24A4E2"/>
</g>
<g id="Vector_7">
<path d="M13.7489 80.1743C13.7489 82.4936 16.5744 84.6176 21.2883 86.2755L11.5547 88.6144C5.04225 86.3229 1.12244 83.3784 1.12244 80.1743C1.12244 76.9702 5.04225 74.0256 11.5547 71.7342L21.2883 74.0731C16.5772 75.7309 13.7489 77.8549 13.7489 80.1743Z" fill="#24A4E2"/>
<path d="M46.718 70.5871C38.7409 70.5871 31.4372 71.4076 25.7356 72.778L17.6912 69.9479C25.5785 68.0528 35.6993 66.9141 46.718 66.9141C57.7367 66.9141 67.8603 68.0528 75.7448 69.9479L67.7003 72.778C61.9988 71.4076 54.6951 70.5871 46.718 70.5871Z" fill="#24A4E2"/>
<path d="M81.884 71.7342C88.3965 74.0256 92.3163 76.9702 92.3163 80.1743C92.3163 83.3784 88.3965 86.3229 81.884 88.6144L72.1504 86.2755C76.8615 84.6176 79.6898 82.4936 79.6898 80.1743C79.6898 77.8549 76.8643 75.7309 72.1504 74.0731L81.884 71.7342Z" fill="#24A4E2"/>
<path d="M46.718 89.7615C54.6951 89.7615 61.9988 88.9409 67.7003 87.5705L75.7448 90.4006C67.8603 92.2957 57.7395 93.4345 46.718 93.4345C35.6965 93.4345 25.5757 92.2957 17.6912 90.4006L25.7356 87.5705C31.4372 88.9409 38.7409 89.7615 46.718 89.7615Z" fill="#24A4E2"/>
</g>
<g id="Vector_8">
<path d="M13.7489 80.1743C13.7489 82.4936 16.5744 84.6176 21.2883 86.2755L11.5547 88.6144C5.04225 86.3229 1.12244 83.3784 1.12244 80.1743C1.12244 76.9702 5.04225 74.0256 11.5547 71.7342L21.2883 74.0731C16.5772 75.7309 13.7489 77.8549 13.7489 80.1743Z" fill="#24A4E2"/>
<path d="M46.718 70.5871C38.7409 70.5871 31.4372 71.4076 25.7356 72.778L17.6912 69.9479C25.5785 68.0528 35.6993 66.9141 46.718 66.9141C57.7367 66.9141 67.8603 68.0528 75.7448 69.9479L67.7003 72.778C61.9988 71.4076 54.6951 70.5871 46.718 70.5871Z" fill="#24A4E2"/>
<path d="M81.884 71.7342C88.3965 74.0256 92.3163 76.9702 92.3163 80.1743C92.3163 83.3784 88.3965 86.3229 81.884 88.6144L72.1504 86.2755C76.8615 84.6176 79.6898 82.4936 79.6898 80.1743C79.6898 77.8549 76.8643 75.7309 72.1504 74.0731L81.884 71.7342Z" fill="#24A4E2"/>
<path d="M46.718 89.7615C54.6951 89.7615 61.9988 88.9409 67.7003 87.5705L75.7448 90.4006C67.8603 92.2957 57.7395 93.4345 46.718 93.4345C35.6965 93.4345 25.5757 92.2957 17.6912 90.4006L25.7356 87.5705C31.4372 88.9409 38.7409 89.7615 46.718 89.7615Z" fill="#24A4E2"/>
</g>
</g>
</g>
</g>
<g id="4" style="mix-blend-mode:overlay">
<mask id="mask2_1470_22130" style="mask-type:alpha" maskUnits="userSpaceOnUse" x="0" y="80" width="93" height="15">
<rect id="Rectangle 1_3" x="0.842041" y="80.0352" width="92.0356" height="14.7956" fill="url(#paint2_linear_1470_22130)"/>
</mask>
<g mask="url(#mask2_1470_22130)">
<path id="Vector (Stroke)" fill-rule="evenodd" clip-rule="evenodd" d="M15.3997 83.9094C14.042 82.832 13.1865 81.5776 13.1865 80.1743C13.1865 78.7708 14.0429 77.5164 15.4008 76.4391C16.4265 75.6254 17.783 74.8748 19.4068 74.1956L11.5841 72.3159C8.4319 73.4375 5.94284 74.7018 4.24503 76.0485C2.51256 77.4228 1.68241 78.8164 1.68241 80.1743C1.68241 81.5321 2.51256 82.9258 4.24503 84.3C5.94284 85.6468 8.4319 86.9111 11.5841 88.0326L19.4063 86.153C17.7818 85.4739 16.4252 84.7232 15.3997 83.9094ZM20.3438 85.9278C20.6491 86.0458 20.9637 86.1617 21.2871 86.2755L11.5535 88.6144C5.04103 86.3229 1.12122 83.3784 1.12122 80.1743C1.12122 76.9702 5.04103 74.0256 11.5535 71.7342L21.2871 74.0731C20.9638 74.1868 20.6494 74.3028 20.3441 74.4209C16.2011 76.0234 13.7477 78.0141 13.7477 80.1743C13.7477 82.3345 16.1988 84.3252 20.3438 85.9278ZM25.7649 72.1966C31.4935 70.8372 38.7798 70.0287 46.7168 70.0287C54.6537 70.0287 61.94 70.8372 67.6686 72.1966L73.7336 70.0628C66.1969 68.4372 56.8415 67.4724 46.7168 67.4724C36.5919 67.4724 27.2388 68.4372 19.7001 70.0629L25.7649 72.1966ZM25.7344 72.778L17.6899 69.9479C18.0233 69.8678 18.3606 69.7891 18.7019 69.7117C26.4344 67.9586 36.1638 66.9141 46.7168 66.9141C57.2697 66.9141 67.0016 67.9586 74.7318 69.7117C75.073 69.789 75.4103 69.8678 75.7436 69.9479L67.6991 72.778C61.9976 71.4076 54.6939 70.5871 46.7168 70.5871C38.7396 70.5871 31.4359 71.4076 25.7344 72.778ZM81.8522 72.3159L74.03 74.1955C75.6545 74.8747 77.0111 75.6253 78.0366 76.4391C79.3943 77.5166 80.2498 78.7709 80.2498 80.1743C80.2498 81.5778 79.3934 82.8321 78.0354 83.9095C77.0098 84.7232 75.6532 85.4738 74.0295 86.1529L81.8522 88.0326C85.0044 86.9111 87.4934 85.6468 89.1912 84.3C90.9237 82.9258 91.7539 81.5321 91.7539 80.1743C91.7539 78.8164 90.9237 77.4228 89.1912 76.0485C87.4934 74.7018 85.0044 73.4375 81.8522 72.3159ZM81.8828 88.6144L72.1492 86.2755C72.4725 86.1617 72.7869 86.0457 73.0922 85.9277C77.2351 84.3252 79.6886 82.3345 79.6886 80.1743C79.6886 78.014 77.2375 76.0233 73.0925 74.4208C72.7871 74.3028 72.4726 74.1868 72.1492 74.0731L81.8828 71.7342C88.3952 74.0256 92.3151 76.9702 92.3151 80.1743C92.3151 83.3784 88.3952 86.3229 81.8828 88.6144ZM67.6686 88.152C61.94 89.5114 54.6537 90.3198 46.7168 90.3198C38.7798 90.3198 31.4935 89.5114 25.7649 88.152L19.6999 90.2857C27.2363 91.9113 36.5895 92.8762 46.7168 92.8762C56.8441 92.8762 66.1973 91.9113 73.7336 90.2857L67.6686 88.152ZM67.6991 87.5705C61.9976 88.9409 54.6939 89.7615 46.7168 89.7615C38.7396 89.7615 31.4359 88.9409 25.7344 87.5705L17.6899 90.4006C18.0232 90.4807 18.3605 90.5595 18.7017 90.6369C26.4317 92.39 36.1612 93.4345 46.7168 93.4345C57.2724 93.4345 67.0018 92.39 74.7318 90.6369C75.073 90.5595 75.4103 90.4807 75.7436 90.4006L67.6991 87.5705Z" fill="url(#paint3_radial_1470_22130)"/>
</g>
</g>
<path id="5" d="M91.7192 75.9829C91.7192 76.7896 91.1236 78.0109 88.9246 79.482C86.7993 80.9039 83.5923 82.2626 79.4498 83.4348C71.1923 85.7715 59.6693 87.2431 46.8596 87.2431C34.0499 87.2431 22.5269 85.7715 14.2694 83.4348C10.1269 82.2626 6.91988 80.9039 4.79458 79.482C2.59562 78.0109 2 76.7896 2 75.9829C2 75.1761 2.59562 73.9549 4.79458 72.4837C6.91988 71.0618 10.1269 69.7031 14.2694 68.5309C22.5269 66.1942 34.0499 64.7227 46.8596 64.7227C59.6693 64.7227 71.1923 66.1942 79.4498 68.5309C83.5923 69.7031 86.7993 71.0618 88.9246 72.4837C91.1236 73.9549 91.7192 75.1761 91.7192 75.9829Z" stroke="url(#paint4_linear_1470_22130)" stroke-width="4"/>
<g id="6">
<ellipse cx="46.8596" cy="75.7055" rx="46.8596" ry="13.2602" fill="url(#paint5_linear_1470_22130)"/>
<ellipse cx="46.8596" cy="75.7055" rx="46.8596" ry="13.2602" fill="url(#paint6_radial_1470_22130)" fill-opacity="0.75"/>
<ellipse cx="46.8596" cy="75.7055" rx="46.8596" ry="13.2602" fill="url(#paint7_radial_1470_22130)" fill-opacity="0.75"/>
</g>
<g id="7">
<mask id="mask3_1470_22130" style="mask-type:alpha" maskUnits="userSpaceOnUse" x="0" y="50" width="94" height="39">
<path id="Vector_9" d="M46.8596 88.9658C72.7394 88.9658 93.7192 82.904 93.7192 75.4264C93.7192 74.7143 93.529 74.0151 93.1623 73.3327L92.5221 72.3723L83.7959 59.2817C80.4882 54.2473 65.2089 50.4414 46.8596 50.4414C28.5794 50.4414 13.3461 54.2187 9.96117 59.2248L9.92329 59.2816L1.1971 72.3723L0.556881 73.3327C0.190256 74.0151 0 74.7143 0 75.4264C0 82.904 20.9798 88.9658 46.8596 88.9658Z" fill="#1835E9"/>
</mask>
<g mask="url(#mask3_1470_22130)">
<g id="Vector_10" filter="url(#filter1_ii_1470_22130)">
<path d="M46.8596 88.9658C72.7394 88.9658 93.7192 82.904 93.7192 75.4264C93.7192 74.7143 93.529 74.0151 93.1623 73.3327L92.5221 72.3723L83.7959 59.2817C80.4882 54.2473 65.2089 50.4414 46.8596 50.4414C28.5794 50.4414 13.3461 54.2187 9.96117 59.2248L9.92329 59.2816L1.1971 72.3723L0.556881 73.3327C0.190256 74.0151 0 74.7143 0 75.4264C0 82.904 20.9798 88.9658 46.8596 88.9658Z" fill="#226193" fill-opacity="0.85"/>
</g>
<path id="1_2" d="M46.8596 88.9727C72.7394 88.9727 93.7192 82.9109 93.7192 75.4334C93.7192 74.7213 93.529 74.022 93.1623 73.3396L92.5221 72.3792C90.5978 69.9676 86.4437 67.8023 80.721 66.0742C74.6359 69.7133 61.7599 72.223 46.8596 72.223C31.9593 72.223 19.0833 69.7133 12.9982 66.0742C7.27547 67.8023 3.12148 69.9676 1.1971 72.3792L0.556881 73.3396C0.190256 74.022 0 74.7213 0 75.4334C0 82.9109 20.9798 88.9727 46.8596 88.9727Z" fill="url(#paint8_linear_1470_22130)"/>
<path id="2_2" fill-rule="evenodd" clip-rule="evenodd" d="M46.0136 78.6366C71.7384 78.6366 92.5926 69.5127 92.5926 58.2577C92.5926 47.0028 71.7384 37.8789 46.0136 37.8789C20.2887 37.8789 -0.56543 47.0028 -0.56543 58.2577C-0.56543 69.5127 20.2887 78.6366 46.0136 78.6366ZM46.996 71.6593C67.6844 71.6593 84.4556 66.8474 84.4556 60.9116C84.4556 54.9758 67.6844 50.1639 46.996 50.1639C26.3076 50.1639 9.53638 54.9758 9.53638 60.9116C9.53638 66.8474 26.3076 71.6593 46.996 71.6593Z" fill="url(#paint9_linear_1470_22130)"/>
<path id="3_2" d="M90.1921 66.7739C90.1921 68.7684 89.1523 70.7787 87.0329 72.7191C84.9128 74.6602 81.7896 76.4541 77.8458 77.9814C69.9647 81.0333 59.0091 82.9424 46.8579 82.9424C34.7067 82.9424 23.7511 81.0333 15.87 77.9814C11.9262 76.4541 8.80301 74.6602 6.68297 72.7191C4.56356 70.7787 3.52368 68.7684 3.52368 66.7739C3.52368 64.7795 4.56356 62.7692 6.68297 60.8288C8.80301 58.8877 11.9262 57.0938 15.87 55.5665C23.7511 52.5145 34.7067 50.6055 46.8579 50.6055C59.0091 50.6055 69.9647 52.5145 77.8458 55.5665C81.7896 57.0938 84.9128 58.8877 87.0329 60.8288C89.1523 62.7692 90.1921 64.7795 90.1921 66.7739Z" stroke="url(#paint10_linear_1470_22130)" stroke-width="2"/>
<g id="4_2" style="mix-blend-mode:overlay" opacity="0.7">
<g id="Vector_11" filter="url(#filter2_f_1470_22130)">
<path d="M13.9704 49.4336C13.3768 50.098 13.1113 51.4237 12.7526 52.2185C11.8084 54.3108 10.3701 55.7539 8.90477 57.4939C7.03857 59.7099 6.35345 62.2507 5.22604 64.8305C4.82365 65.7513 4.37662 66.5226 3.763 67.321C2.85003 68.5088 2.13293 69.8734 1.18366 71.0146C0.79342 71.4837 0.641611 72.0199 0.287234 72.5038C-0.255046 73.2443 -0.860463 73.9289 -1.43796 74.6408C-2.28628 75.6866 -2.71672 76.9196 -3.50144 77.9895C-4.47979 79.3233 -5.59142 80.9792 -6.19917 82.5244C-6.58356 83.5017 -7.06206 84.3645 -7.30702 85.3934C-7.64728 86.8227 -8.62032 87.9188 -9.37049 89.1628C-10.6149 91.2261 -11.4409 93.5331 -12.897 95.4646C-13.3076 96.0093 -13.667 96.5995 -14.1571 97.1052C-14.4839 97.4424 -14.582 98.1664 -14.952 98.3504M-2.62192 76.088C-3.06809 76.5319 -3.64387 76.8187 -4.10187 77.2743C-5.69161 78.8559 -7.01866 80.6444 -8.57555 82.2468C-9.46872 83.166 -10.1382 83.9573 -11.2902 84.5605C-12.1305 85.0005 -12.4035 85.45 -12.9731 86.0834C-13.4889 86.6569 -14.1593 87.3899 -14.5292 88.0522C-14.786 88.5121 -15.4643 88.6173 -15.7131 89.1123" stroke="white" stroke-width="20" stroke-linecap="round"/>
</g>
<g id="Vector 6" opacity="0.7" filter="url(#filter3_f_1470_22130)">
<path d="M27.042 56.1094C27.042 57.1276 26.4942 58.3379 26.2372 59.312C24.6501 65.3272 22.4884 70.7909 19.3066 76.1615C16.5461 80.8211 13.9627 85.5846 10.3101 89.6411C9.14468 90.9354 8.066 92.0613 7.1391 93.5368C6.50199 94.5509 5.63239 95.3637 5.08516 96.4526C4.53639 97.5445 4.03903 98.6775 3.48764 99.7747C2.94462 100.855 2.79361 102.122 2.29851 103.216C2.03252 103.804 1.52979 104.498 1.52979 105.152" stroke="white" stroke-width="27" stroke-linecap="round"/>
</g>
<g id="Vector 7" opacity="0.7" filter="url(#filter4_f_1470_22130)">
<path d="M64.2296 58.4727C64.2296 58.9588 64.4228 59.4834 64.4939 59.9784C64.9559 63.1959 65.0107 66.4085 66.1634 69.4906C67.0041 71.7383 67.8785 73.9585 68.7459 76.1945C69.4212 77.9352 69.5529 79.7718 70.1152 81.5361C71.1037 84.6379 71.1809 87.8505 71.9169 90.9886C72.6224 93.9968 72.5886 97.1157 73.4303 100.106C74.5539 104.099 74.8237 108.437 74.8237 112.57C74.8237 114.239 75.2561 115.555 75.2561 117.195" stroke="white" stroke-width="27" stroke-linecap="round"/>
</g>
<g id="Vector 8" filter="url(#filter5_f_1470_22130)">
<path d="M81.3077 42.3438C81.3077 42.9864 81.3449 43.6036 81.4399 44.2438C82.0971 48.6756 83.592 53.1503 85.0313 57.3768C86.7548 62.4379 88.5943 67.2979 91.2772 71.9319C92.7097 74.4063 94.4132 76.6292 95.9736 79.0063C97.2419 80.9384 98.0431 83.1463 99.1567 85.1606C99.9726 86.6366 100.123 88.3786 100.658 89.9764C101.083 91.2437 101.892 92.1554 102.448 93.3224C102.664 93.7761 102.679 94.3858 102.976 94.7803C104.232 96.4457 104.631 98.7678 105.739 100.421" stroke="white" stroke-width="20" stroke-linecap="round"/>
</g>
<g id="Vector 9" opacity="0.7" filter="url(#filter6_f_1470_22130)">
<path d="M73.526 45.5664C76.2246 48.2512 78.6151 51.2284 81.5256 53.7044C84.215 55.9922 87.0539 58.1628 89.9095 60.241C92.0925 61.8296 94.6437 63.0719 96.6359 64.9015C98.7826 66.873 100.712 69.3648 103.651 70.1834C105.506 70.7001 106.646 71.9879 108.131 73.2067C112.135 76.4934 115.817 80.2167 119.794 83.5554C121.268 84.7925 122.683 86.1261 124.07 87.4631C124.937 88.2991 126.084 88.8212 126.929 89.6619" stroke="white" stroke-width="27" stroke-linecap="round"/>
</g>
</g>
<g id="5_2">
<g id="Vector 10" filter="url(#filter7_f_1470_22130)">
<path d="M8.77985 60.2109C7.62955 61.4825 6.84218 63.265 5.94215 64.7024C3.43024 68.714 1.02198 72.5606 -1.87441 76.3288C-4.05335 79.1636 -6.65151 81.8801 -8.24633 85.1064C-9.58904 87.8226 -10.3906 90.6965 -11.9611 93.3193C-14.1446 96.9656 -17.2005 100.357 -19.0812 104.099" stroke="white" stroke-width="16" stroke-linecap="round"/>
</g>
<g id="Vector 11" filter="url(#filter8_f_1470_22130)">
<path d="M63.573 71.7656C63.573 76.6349 67.4832 82.2084 69.4032 86.5746C70.8628 89.8938 72.2725 93.4299 73.2986 96.9177C73.9953 99.2861 75.3044 102.187 75.6461 104.566C75.9672 106.802 77.7783 114.173 79.8253 115.191" stroke="white" stroke-width="16" stroke-linecap="round"/>
</g>
<g id="Vector 12" filter="url(#filter9_f_1470_22130)">
<path d="M88.1857 60.6641C88.1857 61.8199 88.9127 62.9833 89.4239 64.0006C91.833 68.7941 95.1964 73.203 98.2466 77.6032C101.086 81.6992 104.499 85.3154 107.198 89.512C108.97 92.2669 111.427 94.8973 112.796 97.6222" stroke="white" stroke-width="16" stroke-linecap="round"/>
</g>
</g>
</g>
</g>
<rect id="8" width="1.68091" height="3.35531" transform="matrix(0.831436 0.55562 -0.559558 0.828791 13.3806 74.1758)" fill="#8DCDFF"/>
<rect id="9" width="1.68159" height="3.78105" transform="matrix(-0.877917 0.478812 0.4826 0.875841 81.7274 73.8867)" fill="#8DCDFF"/>
<rect id="10" width="1.68173" height="3.71841" transform="matrix(0.886652 0.462437 -0.46617 0.884695 17.7257 75.5664)" fill="#8DCDFF"/>
<g id="11">
<mask id="mask4_1470_22130" style="mask-type:alpha" maskUnits="userSpaceOnUse" x="9" y="49" width="76" height="23">
<g id="Vector_12">
<path d="M46.86 71.6497C61.7604 71.6497 74.6363 69.14 80.7214 65.5009C72.1906 62.9249 60.1737 61.3207 46.86 61.3207C33.5464 61.3207 21.5295 62.9249 12.9987 65.5009C19.0838 69.14 31.9597 71.6497 46.86 71.6497Z" fill="#2E5DD5"/>
<path d="M83.7964 58.7153C80.4887 53.6809 65.2093 49.875 46.86 49.875C28.5799 49.875 13.3466 53.6523 9.96162 58.6584L9.92374 58.7152C9.48811 59.3783 9.26013 60.0626 9.26013 60.7623C9.26013 62.4607 10.6032 64.0683 12.9987 65.5009C21.5295 62.9249 33.5464 61.3207 46.86 61.3207C60.1737 61.3207 72.1906 62.9249 80.7214 65.5009C83.1169 64.0683 84.46 62.4607 84.46 60.7623C84.46 60.0626 84.232 59.3783 83.7964 58.7153Z" fill="#2E5DD5"/>
</g>
</mask>
<g mask="url(#mask4_1470_22130)">
<g id="Vector_13">
<path d="M46.86 71.6497C61.7604 71.6497 74.6363 69.14 80.7214 65.5009C72.1906 62.9249 60.1737 61.3207 46.86 61.3207C33.5464 61.3207 21.5295 62.9249 12.9987 65.5009C19.0838 69.14 31.9597 71.6497 46.86 71.6497Z" fill="#24A4E2"/>
<path d="M83.7964 58.7153C80.4887 53.6809 65.2093 49.875 46.86 49.875C28.5799 49.875 13.3466 53.6523 9.96162 58.6584L9.92374 58.7152C9.48811 59.3783 9.26013 60.0626 9.26013 60.7623C9.26013 62.4607 10.6032 64.0683 12.9987 65.5009C21.5295 62.9249 33.5464 61.3207 46.86 61.3207C60.1737 61.3207 72.1906 62.9249 80.7214 65.5009C83.1169 64.0683 84.46 62.4607 84.46 60.7623C84.46 60.0626 84.232 59.3783 83.7964 58.7153Z" fill="#24A4E2"/>
</g>
<g id="Ellipse 18" filter="url(#filter10_f_1470_22130)">
<ellipse cx="23.0081" cy="4.75961" rx="23.0081" ry="4.75961" transform="matrix(0.996713 -0.0810105 0.0818394 0.996646 37.4171 67.6523)" fill="#8EC4F9"/>
</g>
<g id="Ellipse 20" filter="url(#filter11_f_1470_22130)">
<ellipse cx="23.0081" cy="1.87117" rx="23.0081" ry="1.87117" transform="matrix(0.996713 -0.0810105 0.0818394 0.996646 37.7283 71.4375)" fill="#8EC4F9"/>
</g>
<g id="Ellipse 19" opacity="0.7" filter="url(#filter12_f_1470_22130)">
<ellipse cx="23.0081" cy="7.11888" rx="23.0081" ry="7.11888" transform="matrix(0.996713 -0.0810105 0.0818394 0.996646 -3.0863 42.9922)" fill="#8EC4F9"/>
</g>
</g>
</g>
<g id="12">
<mask id="mask5_1470_22130" style="mask-type:alpha" maskUnits="userSpaceOnUse" x="1" y="42" width="92" height="26">
<path id="Ellipse 21" d="M91.5361 55.329C91.5361 56.7814 90.4598 58.2848 88.2134 59.7453C85.9885 61.1918 82.7358 62.5135 78.6718 63.6311C70.5509 65.8642 59.3035 67.2517 46.8601 67.2517C34.4167 67.2517 23.1694 65.8642 15.0484 63.6311C10.9844 62.5135 7.73173 61.1918 5.50677 59.7453C3.26036 58.2848 2.18408 56.7814 2.18408 55.329C2.18408 53.8766 3.26036 52.3732 5.50677 50.9127C7.73173 49.4662 10.9844 48.1444 15.0484 47.0269C23.1694 44.7937 34.4167 43.4062 46.8601 43.4062C59.3035 43.4062 70.5509 44.7937 78.6718 47.0269C82.7358 48.1444 85.9885 49.4662 88.2134 50.9127C90.4598 52.3732 91.5361 53.8766 91.5361 55.329Z" stroke="url(#paint11_linear_1470_22130)"/>
</mask>
<g mask="url(#mask5_1470_22130)">
<path id="Ellipse 22" d="M91.5361 55.329C91.5361 56.7814 90.4598 58.2848 88.2134 59.7453C85.9885 61.1918 82.7358 62.5135 78.6718 63.6311C70.5509 65.8642 59.3035 67.2517 46.8601 67.2517C34.4167 67.2517 23.1694 65.8642 15.0484 63.6311C10.9844 62.5135 7.73173 61.1918 5.50677 59.7453C3.26036 58.2848 2.18408 56.7814 2.18408 55.329C2.18408 53.8766 3.26036 52.3732 5.50677 50.9127C7.73173 49.4662 10.9844 48.1444 15.0484 47.0269C23.1694 44.7937 34.4167 43.4062 46.8601 43.4062C59.3035 43.4062 70.5509 44.7937 78.6718 47.0269C82.7358 48.1444 85.9885 49.4662 88.2134 50.9127C90.4598 52.3732 91.5361 53.8766 91.5361 55.329Z" stroke="url(#paint12_linear_1470_22130)"/>
</g>
</g>
<path id="13" d="M10.7552 59.2748L10.7892 59.2238C11.4905 58.1883 12.8903 57.1099 15.0169 56.0823C17.123 55.0646 19.8431 54.1437 23.0568 53.3694C29.4818 51.8214 37.7795 50.8828 46.8575 50.8828C55.9699 50.8828 64.2959 51.8285 70.7309 53.387C73.9496 54.1665 76.6696 55.0933 78.7693 56.1168C80.8919 57.1515 82.2768 58.2354 82.9581 59.2722C83.3063 59.8022 83.4574 60.2987 83.4574 60.7701C83.4574 61.9079 82.5372 63.2561 80.2056 64.6504C77.3121 66.3809 72.7068 67.8909 66.9117 68.9645C61.137 70.0343 54.2546 70.6575 46.8575 70.6575C39.4604 70.6575 32.5779 70.0343 26.8032 68.9645C21.0081 67.8909 16.4028 66.3809 13.5093 64.6505C11.1778 63.2561 10.2576 61.9079 10.2576 60.7701C10.2576 60.2995 10.4082 59.8038 10.7552 59.2748Z" stroke="url(#paint13_linear_1470_22130)" stroke-width="2"/>
<g id="14">
<mask id="mask6_1470_22130" style="mask-type:alpha" maskUnits="userSpaceOnUse" x="9" y="49" width="76" height="23">
<g id="16">
<path d="M10.7578 59.2669L10.7918 59.2159C11.493 58.1805 12.8929 57.102 15.0195 56.0744C17.1255 55.0568 19.8456 54.1359 23.0594 53.3616C29.4844 51.8135 37.7821 50.875 46.86 50.875C55.9724 50.875 64.2985 51.8207 70.7334 53.3792C73.9522 54.1587 76.6722 55.0855 78.7718 56.109C80.8945 57.1437 82.2794 58.2276 82.9606 59.2644C83.3089 59.7944 83.46 60.2909 83.46 60.7623C83.46 61.9 82.5397 63.2483 80.2082 64.6426C77.3147 66.373 72.7094 67.8831 66.9143 68.9567C61.1396 70.0265 54.2571 70.6497 46.86 70.6497C39.463 70.6497 32.5805 70.0265 26.8058 68.9567C21.0107 67.8831 16.4054 66.373 13.5119 64.6426C11.1804 63.2483 10.2601 61.9 10.2601 60.7623C10.2601 60.2917 10.4107 59.796 10.7578 59.2669Z" stroke="url(#paint14_linear_1470_22130)" stroke-width="2"/>
<path d="M10.7578 59.2669L10.7918 59.2159C11.493 58.1805 12.8929 57.102 15.0195 56.0744C17.1255 55.0568 19.8456 54.1359 23.0594 53.3616C29.4844 51.8135 37.7821 50.875 46.86 50.875C55.9724 50.875 64.2985 51.8207 70.7334 53.3792C73.9522 54.1587 76.6722 55.0855 78.7718 56.109C80.8945 57.1437 82.2794 58.2276 82.9606 59.2644C83.3089 59.7944 83.46 60.2909 83.46 60.7623C83.46 61.9 82.5397 63.2483 80.2082 64.6426C77.3147 66.373 72.7094 67.8831 66.9143 68.9567C61.1396 70.0265 54.2571 70.6497 46.86 70.6497C39.463 70.6497 32.5805 70.0265 26.8058 68.9567C21.0107 67.8831 16.4054 66.373 13.5119 64.6426C11.1804 63.2483 10.2601 61.9 10.2601 60.7623C10.2601 60.2917 10.4107 59.796 10.7578 59.2669Z" stroke="black" stroke-width="2"/>
</g>
</mask>
<g mask="url(#mask6_1470_22130)">
<path id="17" d="M10.7578 59.2669L10.7918 59.2159C11.493 58.1805 12.8929 57.102 15.0195 56.0744C17.1255 55.0568 19.8456 54.1359 23.0594 53.3616C29.4844 51.8135 37.7821 50.875 46.86 50.875C55.9724 50.875 64.2985 51.8207 70.7334 53.3792C73.9522 54.1587 76.6722 55.0855 78.7718 56.109C80.8945 57.1437 82.2794 58.2276 82.9606 59.2644C83.3089 59.7944 83.46 60.2909 83.46 60.7623C83.46 61.9 82.5397 63.2483 80.2082 64.6426C77.3147 66.373 72.7094 67.8831 66.9143 68.9567C61.1396 70.0265 54.2571 70.6497 46.86 70.6497C39.463 70.6497 32.5805 70.0265 26.8058 68.9567C21.0107 67.8831 16.4054 66.373 13.5119 64.6426C11.1804 63.2483 10.2601 61.9 10.2601 60.7623C10.2601 60.2917 10.4107 59.796 10.7578 59.2669Z" stroke="url(#paint15_linear_1470_22130)" stroke-width="2"/>
<g id="Ellipse 23" filter="url(#filter13_f_1470_22130)">
<ellipse cx="44.7563" cy="68.9962" rx="18.3791" ry="9.91026" fill="#91DEFF" fill-opacity="0.905882"/>
</g>
<g id="Ellipse 24" filter="url(#filter14_f_1470_22130)">
<ellipse cx="49.5246" cy="69.5548" rx="18.3791" ry="9.91026" fill="#EBF6FF"/>
</g>
</g>
</g>
<g id="15">
<mask id="mask7_1470_22130" style="mask-type:alpha" maskUnits="userSpaceOnUse" x="9" y="17" width="76" height="55">
<path id="17_2" d="M46.8594 71.2971C61.7597 71.2971 74.6357 68.7874 80.7208 65.1483C83.1163 63.7157 84.4594 62.1081 84.4594 60.4097V17H9.25952V60.4097C9.25952 62.1081 10.6026 63.7157 12.998 65.1483C19.0832 68.7874 31.9591 71.2971 46.8594 71.2971Z" fill="#D9D9D9"/>
</mask>
<g mask="url(#mask7_1470_22130)">
<g id="Ellipse 6" opacity="0.8" filter="url(#filter15_f_1470_22130)">
<ellipse cx="6.87398" cy="23.8706" rx="6.87398" ry="23.8706" transform="matrix(0.99097 0.134082 -0.135438 0.990786 80.8257 32.9141)" fill="#24A4E2" fill-opacity="0.57"/>
</g>
<g id="Ellipse 7" opacity="0.8" filter="url(#filter16_f_1470_22130)">
<ellipse cx="6.87288" cy="23.8744" rx="6.87288" ry="23.8744" transform="matrix(0.975191 -0.221366 0.223533 0.974696 -2.80774 34.5586)" fill="#24A4E2" fill-opacity="0.57"/>
</g>
</g>
</g>
<g id="Group 445">
<g id="Ellipse 197" filter="url(#filter17_f_1470_22130)">
<ellipse cx="77.4987" cy="26.9451" rx="0.180939" ry="0.179505" fill="white"/>
</g>
<g id="Ellipse 215" filter="url(#filter18_f_1470_22130)">
<circle cx="82.6914" cy="15.2692" r="0.394189" fill="white"/>
</g>
<g id="Ellipse 214" filter="url(#filter19_f_1470_22130)">
<circle cx="81.1878" cy="7.08169" r="0.394189" fill="white"/>
</g>
<circle id="Ellipse 198" cx="73.2169" cy="47.2497" r="0.394189" fill="white"/>
<circle id="Ellipse 209" cx="52.9767" cy="64.3551" r="0.394189" fill="white"/>
<g id="Ellipse 203" filter="url(#filter20_f_1470_22130)">
<circle cx="37.2344" cy="53.9372" r="0.394189" fill="white"/>
</g>
<circle id="Ellipse 204" cx="67.9656" cy="56.9137" r="0.394189" fill="white"/>
<circle id="Ellipse 211" cx="81.4619" cy="36.8317" r="0.394189" fill="white"/>
<circle id="Ellipse 213" cx="79.692" cy="0.394189" r="0.394189" fill="white"/>
<circle id="Ellipse 212" cx="82.6914" cy="2.62075" r="0.394189" fill="white"/>
<circle id="Ellipse 210" cx="77.7119" cy="30.1403" r="0.394189" fill="white"/>
<circle id="Ellipse 207" cx="13.9947" cy="44.2692" r="0.394189" fill="white"/>
<circle id="Ellipse 216" cx="11.2697" cy="24.9333" r="0.394189" fill="white"/>
<circle id="Ellipse 217" cx="9.76614" cy="27.1598" r="0.394189" fill="white"/>
<g id="Ellipse 205" filter="url(#filter21_f_1470_22130)">
<circle cx="73.2169" cy="53.9372" r="0.394189" fill="white"/>
</g>
<circle id="Ellipse 206" cx="12.4936" cy="50.9606" r="0.394189" fill="white"/>
<circle id="Ellipse 208" cx="20.7414" cy="60.6247" r="0.394189" fill="white"/>
<g id="Ellipse 199" filter="url(#filter22_f_1470_22130)">
<circle cx="13.9436" cy="46.652" r="0.394189" fill="white"/>
</g>
<g id="Ellipse 200" filter="url(#filter23_f_1470_22130)">
<circle cx="69.464" cy="44.2692" r="0.394189" fill="white"/>
</g>
<g id="Ellipse 201" filter="url(#filter24_f_1470_22130)">
<circle cx="45.4284" cy="45.9293" r="0.394189" fill="white"/>
</g>
<g id="Ellipse 202" filter="url(#filter25_f_1470_22130)">
<circle cx="15.0257" cy="56.7145" r="0.394189" fill="white"/>
</g>
</g>
</g>
<g id="Group 1707479725">
<g id="Subtract">
<path d="M35.875 34.6927H45.1818V25.4745H35.875V34.6927Z" fill="url(#paint16_linear_1470_22130)"/>
<path d="M35.875 34.6927H45.1818V25.4745H35.875V34.6927Z" fill="url(#paint17_radial_1470_22130)"/>
<path d="M23.4659 19.329C23.4659 15.935 26.2438 13.1836 29.6705 13.1836H63.7955C67.2221 13.1836 70 15.935 70 19.329V53.129C70 56.5231 67.2221 59.2745 63.7955 59.2745H29.6705C26.2438 59.2745 23.4659 56.5231 23.4659 53.129V46.9836H21.9148C21.0581 46.9836 20.3636 46.2957 20.3636 45.4472V42.3745C20.3636 41.526 21.0581 40.8381 21.9148 40.8381H23.4659V37.7654H21.9148C21.0581 37.7654 20.3636 37.0776 20.3636 36.229V33.1563C20.3636 32.3078 21.0581 31.62 21.9148 31.62H23.4659V28.5472H21.9148C21.0581 28.5472 20.3636 27.8594 20.3636 27.0109V20.8654C20.3636 20.0169 21.0581 19.329 21.9148 19.329H23.4659ZM57.5909 20.8654C57.5909 20.0169 56.8965 19.329 56.0398 19.329C55.1831 19.329 54.4886 20.0169 54.4886 20.8654V42.3745C54.4886 43.223 55.1831 43.9109 56.0398 43.9109C56.8965 43.9109 57.5909 43.223 57.5909 42.3745V20.8654ZM63.7955 20.8654C63.7955 20.0169 63.101 19.329 62.2443 19.329C61.3877 19.329 60.6932 20.0169 60.6932 20.8654V42.3745C60.6932 43.223 61.3877 43.9109 62.2443 43.9109C63.101 43.9109 63.7955 43.223 63.7955 42.3745V20.8654ZM31.2216 43.9109C30.3649 43.9109 29.6705 44.5987 29.6705 45.4472C29.6705 46.2957 30.3649 46.9836 31.2216 46.9836H49.8352C50.6919 46.9836 51.3864 46.2957 51.3864 45.4472C51.3864 44.5987 50.6919 43.9109 49.8352 43.9109H31.2216ZM31.2216 50.0563C30.3649 50.0563 29.6705 50.7442 29.6705 51.5927C29.6705 52.4412 30.3649 53.129 31.2216 53.129H49.8352C50.6919 53.129 51.3864 52.4412 51.3864 51.5927C51.3864 50.7442 50.6919 50.0563 49.8352 50.0563H31.2216ZM32.7727 25.4745H31.2216C30.3649 25.4745 29.6705 26.1624 29.6705 27.0109C29.6705 27.8594 30.3649 28.5472 31.2216 28.5472H32.7727V31.62H31.2216C30.3649 31.62 29.6705 32.3078 29.6705 33.1563C29.6705 34.0048 30.3649 34.6927 31.2216 34.6927H32.7727C32.7727 36.3897 34.1617 37.7654 35.875 37.7654V39.3018C35.875 40.1503 36.5695 40.8381 37.4261 40.8381C38.2828 40.8381 38.9773 40.1503 38.9773 39.3018V37.7654H42.0796V39.3018C42.0796 40.1503 42.774 40.8381 43.6307 40.8381C44.4874 40.8381 45.1818 40.1503 45.1818 39.3018V37.7654C46.8952 37.7654 48.2841 36.3897 48.2841 34.6927H49.8352C50.6919 34.6927 51.3864 34.0048 51.3864 33.1563C51.3864 32.3078 50.6919 31.62 49.8352 31.62H48.2841V28.5472H49.8352C50.6919 28.5472 51.3864 27.8594 51.3864 27.0109C51.3864 26.1624 50.6919 25.4745 49.8352 25.4745H48.2841C48.2841 23.7775 46.8952 22.4018 45.1818 22.4018V20.8654C45.1818 20.0169 44.4874 19.329 43.6307 19.329C42.774 19.329 42.0796 20.0169 42.0796 20.8654V22.4018H38.9773V20.8654C38.9773 20.0169 38.2828 19.329 37.4261 19.329C36.5695 19.329 35.875 20.0169 35.875 20.8654V22.4018C34.1617 22.4018 32.7727 23.7775 32.7727 25.4745ZM54.4886 48.52V51.5927C54.4886 52.4412 55.1831 53.129 56.0398 53.129H62.2443C63.101 53.129 63.7955 52.4412 63.7955 51.5927V48.52C63.7955 47.6714 63.101 46.9836 62.2443 46.9836H56.0398C55.1831 46.9836 54.4886 47.6714 54.4886 48.52Z" fill="url(#paint18_linear_1470_22130)"/>
<path d="M23.4659 19.329C23.4659 15.935 26.2438 13.1836 29.6705 13.1836H63.7955C67.2221 13.1836 70 15.935 70 19.329V53.129C70 56.5231 67.2221 59.2745 63.7955 59.2745H29.6705C26.2438 59.2745 23.4659 56.5231 23.4659 53.129V46.9836H21.9148C21.0581 46.9836 20.3636 46.2957 20.3636 45.4472V42.3745C20.3636 41.526 21.0581 40.8381 21.9148 40.8381H23.4659V37.7654H21.9148C21.0581 37.7654 20.3636 37.0776 20.3636 36.229V33.1563C20.3636 32.3078 21.0581 31.62 21.9148 31.62H23.4659V28.5472H21.9148C21.0581 28.5472 20.3636 27.8594 20.3636 27.0109V20.8654C20.3636 20.0169 21.0581 19.329 21.9148 19.329H23.4659ZM57.5909 20.8654C57.5909 20.0169 56.8965 19.329 56.0398 19.329C55.1831 19.329 54.4886 20.0169 54.4886 20.8654V42.3745C54.4886 43.223 55.1831 43.9109 56.0398 43.9109C56.8965 43.9109 57.5909 43.223 57.5909 42.3745V20.8654ZM63.7955 20.8654C63.7955 20.0169 63.101 19.329 62.2443 19.329C61.3877 19.329 60.6932 20.0169 60.6932 20.8654V42.3745C60.6932 43.223 61.3877 43.9109 62.2443 43.9109C63.101 43.9109 63.7955 43.223 63.7955 42.3745V20.8654ZM31.2216 43.9109C30.3649 43.9109 29.6705 44.5987 29.6705 45.4472C29.6705 46.2957 30.3649 46.9836 31.2216 46.9836H49.8352C50.6919 46.9836 51.3864 46.2957 51.3864 45.4472C51.3864 44.5987 50.6919 43.9109 49.8352 43.9109H31.2216ZM31.2216 50.0563C30.3649 50.0563 29.6705 50.7442 29.6705 51.5927C29.6705 52.4412 30.3649 53.129 31.2216 53.129H49.8352C50.6919 53.129 51.3864 52.4412 51.3864 51.5927C51.3864 50.7442 50.6919 50.0563 49.8352 50.0563H31.2216ZM32.7727 25.4745H31.2216C30.3649 25.4745 29.6705 26.1624 29.6705 27.0109C29.6705 27.8594 30.3649 28.5472 31.2216 28.5472H32.7727V31.62H31.2216C30.3649 31.62 29.6705 32.3078 29.6705 33.1563C29.6705 34.0048 30.3649 34.6927 31.2216 34.6927H32.7727C32.7727 36.3897 34.1617 37.7654 35.875 37.7654V39.3018C35.875 40.1503 36.5695 40.8381 37.4261 40.8381C38.2828 40.8381 38.9773 40.1503 38.9773 39.3018V37.7654H42.0796V39.3018C42.0796 40.1503 42.774 40.8381 43.6307 40.8381C44.4874 40.8381 45.1818 40.1503 45.1818 39.3018V37.7654C46.8952 37.7654 48.2841 36.3897 48.2841 34.6927H49.8352C50.6919 34.6927 51.3864 34.0048 51.3864 33.1563C51.3864 32.3078 50.6919 31.62 49.8352 31.62H48.2841V28.5472H49.8352C50.6919 28.5472 51.3864 27.8594 51.3864 27.0109C51.3864 26.1624 50.6919 25.4745 49.8352 25.4745H48.2841C48.2841 23.7775 46.8952 22.4018 45.1818 22.4018V20.8654C45.1818 20.0169 44.4874 19.329 43.6307 19.329C42.774 19.329 42.0796 20.0169 42.0796 20.8654V22.4018H38.9773V20.8654C38.9773 20.0169 38.2828 19.329 37.4261 19.329C36.5695 19.329 35.875 20.0169 35.875 20.8654V22.4018C34.1617 22.4018 32.7727 23.7775 32.7727 25.4745ZM54.4886 48.52V51.5927C54.4886 52.4412 55.1831 53.129 56.0398 53.129H62.2443C63.101 53.129 63.7955 52.4412 63.7955 51.5927V48.52C63.7955 47.6714 63.101 46.9836 62.2443 46.9836H56.0398C55.1831 46.9836 54.4886 47.6714 54.4886 48.52Z" fill="url(#paint19_radial_1470_22130)"/>
</g>
<g id="Subtract_2" filter="url(#filter26_iii_1470_22130)">
<path d="M33.5114 33.5091H42.8182V24.2909H33.5114V33.5091Z" fill="url(#paint20_linear_1470_22130)"/>
<path d="M21.1023 18.1455C21.1023 14.7514 23.8801 12 27.3068 12H61.4318C64.8585 12 67.6364 14.7514 67.6364 18.1455V51.9455C67.6364 55.3395 64.8585 58.0909 61.4318 58.0909H27.3068C23.8801 58.0909 21.1023 55.3395 21.1023 51.9455V45.8H19.5511C18.6945 45.8 18 45.1121 18 44.2636V41.1909C18 40.3424 18.6945 39.6545 19.5511 39.6545H21.1023V36.5818H19.5511C18.6945 36.5818 18 35.894 18 35.0455V31.9727C18 31.1242 18.6945 30.4364 19.5511 30.4364H21.1023V27.3636H19.5511C18.6945 27.3636 18 26.6758 18 25.8273V19.6818C18 18.8333 18.6945 18.1455 19.5511 18.1455H21.1023ZM55.2273 19.6818C55.2273 18.8333 54.5328 18.1455 53.6761 18.1455C52.8195 18.1455 52.125 18.8333 52.125 19.6818V41.1909C52.125 42.0394 52.8195 42.7273 53.6761 42.7273C54.5328 42.7273 55.2273 42.0394 55.2273 41.1909V19.6818ZM61.4318 19.6818C61.4318 18.8333 60.7374 18.1455 59.8807 18.1455C59.024 18.1455 58.3295 18.8333 58.3295 19.6818V41.1909C58.3295 42.0394 59.024 42.7273 59.8807 42.7273C60.7374 42.7273 61.4318 42.0394 61.4318 41.1909V19.6818ZM28.858 42.7273C28.0013 42.7273 27.3068 43.4151 27.3068 44.2636C27.3068 45.1121 28.0013 45.8 28.858 45.8H47.4716C48.3283 45.8 49.0227 45.1121 49.0227 44.2636C49.0227 43.4151 48.3283 42.7273 47.4716 42.7273H28.858ZM28.858 48.8727C28.0013 48.8727 27.3068 49.5606 27.3068 50.4091C27.3068 51.2576 28.0013 51.9455 28.858 51.9455H47.4716C48.3283 51.9455 49.0227 51.2576 49.0227 50.4091C49.0227 49.5606 48.3283 48.8727 47.4716 48.8727H28.858ZM30.4091 24.2909H28.858C28.0013 24.2909 27.3068 24.9788 27.3068 25.8273C27.3068 26.6758 28.0013 27.3636 28.858 27.3636H30.4091V30.4364H28.858C28.0013 30.4364 27.3068 31.1242 27.3068 31.9727C27.3068 32.8212 28.0013 33.5091 28.858 33.5091H30.4091C30.4091 35.2061 31.798 36.5818 33.5114 36.5818V38.1182C33.5114 38.9667 34.2058 39.6545 35.0625 39.6545C35.9192 39.6545 36.6136 38.9667 36.6136 38.1182V36.5818H39.7159V38.1182C39.7159 38.9667 40.4104 39.6545 41.267 39.6545C42.1237 39.6545 42.8182 38.9667 42.8182 38.1182V36.5818C44.5315 36.5818 45.9205 35.2061 45.9205 33.5091H47.4716C48.3283 33.5091 49.0227 32.8212 49.0227 31.9727C49.0227 31.1242 48.3283 30.4364 47.4716 30.4364H45.9205V27.3636H47.4716C48.3283 27.3636 49.0227 26.6758 49.0227 25.8273C49.0227 24.9788 48.3283 24.2909 47.4716 24.2909H45.9205C45.9205 22.5939 44.5315 21.2182 42.8182 21.2182V19.6818C42.8182 18.8333 42.1237 18.1455 41.267 18.1455C40.4104 18.1455 39.7159 18.8333 39.7159 19.6818V21.2182H36.6136V19.6818C36.6136 18.8333 35.9192 18.1455 35.0625 18.1455C34.2058 18.1455 33.5114 18.8333 33.5114 19.6818V21.2182C31.798 21.2182 30.4091 22.5939 30.4091 24.2909ZM52.125 47.3364V50.4091C52.125 51.2576 52.8195 51.9455 53.6761 51.9455H59.8807C60.7374 51.9455 61.4318 51.2576 61.4318 50.4091V47.3364C61.4318 46.4879 60.7374 45.8 59.8807 45.8H53.6761C52.8195 45.8 52.125 46.4879 52.125 47.3364Z" fill="url(#paint21_linear_1470_22130)"/>
</g>
</g>
</g>
<defs>
<filter id="filter0_d_1470_22130" x="0" y="0" width="93.7192" height="96.8281" filterUnits="userSpaceOnUse" color-interpolation-filters="sRGB">
<feFlood flood-opacity="0" result="BackgroundImageFix"/>
<feColorMatrix in="SourceAlpha" type="matrix" values="0 0 0 0 0 0 0 0 0 0 0 0 0 0 0 0 0 0 127 0" result="hardAlpha"/>
<feOffset dy="2"/>
<feComposite in2="hardAlpha" operator="out"/>
<feColorMatrix type="matrix" values="0 0 0 0 0.782639 0 0 0 0 0.901001 0 0 0 0 0.958333 0 0 0 1 0"/>
<feBlend mode="normal" in2="BackgroundImageFix" result="effect1_dropShadow_1470_22130"/>
<feBlend mode="normal" in="SourceGraphic" in2="effect1_dropShadow_1470_22130" result="shape"/>
</filter>
<filter id="filter1_ii_1470_22130" x="0" y="38.4414" width="93.7192" height="50.5234" filterUnits="userSpaceOnUse" color-interpolation-filters="sRGB">
<feFlood flood-opacity="0" result="BackgroundImageFix"/>
<feBlend mode="normal" in="SourceGraphic" in2="BackgroundImageFix" result="shape"/>
<feColorMatrix in="SourceAlpha" type="matrix" values="0 0 0 0 0 0 0 0 0 0 0 0 0 0 0 0 0 0 127 0" result="hardAlpha"/>
<feOffset dy="-12"/>
<feGaussianBlur stdDeviation="8.5"/>
<feComposite in2="hardAlpha" operator="arithmetic" k2="-1" k3="1"/>
<feColorMatrix type="matrix" values="0 0 0 0 0.725 0 0 0 0 0.832404 0 0 0 0 1 0 0 0 0.67 0"/>
<feBlend mode="normal" in2="shape" result="effect1_innerShadow_1470_22130"/>
<feColorMatrix in="SourceAlpha" type="matrix" values="0 0 0 0 0 0 0 0 0 0 0 0 0 0 0 0 0 0 127 0" result="hardAlpha"/>
<feOffset dy="-7"/>
<feGaussianBlur stdDeviation="3"/>
<feComposite in2="hardAlpha" operator="arithmetic" k2="-1" k3="1"/>
<feColorMatrix type="matrix" values="0 0 0 0 1 0 0 0 0 1 0 0 0 0 1 0 0 0 0.33 0"/>
<feBlend mode="normal" in2="effect1_innerShadow_1470_22130" result="effect2_innerShadow_1470_22130"/>
</filter>
<filter id="filter2_f_1470_22130" x="-35.7153" y="29.4336" width="69.6859" height="88.918" filterUnits="userSpaceOnUse" color-interpolation-filters="sRGB">
<feFlood flood-opacity="0" result="BackgroundImageFix"/>
<feBlend mode="normal" in="SourceGraphic" in2="BackgroundImageFix" result="shape"/>
<feGaussianBlur stdDeviation="5" result="effect1_foregroundBlur_1470_22130"/>
</filter>
<filter id="filter3_f_1470_22130" x="-21.9702" y="32.6094" width="72.5122" height="96.043" filterUnits="userSpaceOnUse" color-interpolation-filters="sRGB">
<feFlood flood-opacity="0" result="BackgroundImageFix"/>
<feBlend mode="normal" in="SourceGraphic" in2="BackgroundImageFix" result="shape"/>
<feGaussianBlur stdDeviation="5" result="effect1_foregroundBlur_1470_22130"/>
</filter>
<filter id="filter4_f_1470_22130" x="40.7296" y="34.9727" width="58.0265" height="105.723" filterUnits="userSpaceOnUse" color-interpolation-filters="sRGB">
<feFlood flood-opacity="0" result="BackgroundImageFix"/>
<feBlend mode="normal" in="SourceGraphic" in2="BackgroundImageFix" result="shape"/>
<feGaussianBlur stdDeviation="5" result="effect1_foregroundBlur_1470_22130"/>
</filter>
<filter id="filter5_f_1470_22130" x="61.3077" y="22.3438" width="64.4323" height="98.0781" filterUnits="userSpaceOnUse" color-interpolation-filters="sRGB">
<feFlood flood-opacity="0" result="BackgroundImageFix"/>
<feBlend mode="normal" in="SourceGraphic" in2="BackgroundImageFix" result="shape"/>
<feGaussianBlur stdDeviation="5" result="effect1_foregroundBlur_1470_22130"/>
</filter>
<filter id="filter6_f_1470_22130" x="50.026" y="22.0664" width="100.403" height="91.0938" filterUnits="userSpaceOnUse" color-interpolation-filters="sRGB">
<feFlood flood-opacity="0" result="BackgroundImageFix"/>
<feBlend mode="normal" in="SourceGraphic" in2="BackgroundImageFix" result="shape"/>
<feGaussianBlur stdDeviation="5" result="effect1_foregroundBlur_1470_22130"/>
</filter>
<filter id="filter7_f_1470_22130" x="-61.0829" y="18.2109" width="111.863" height="127.891" filterUnits="userSpaceOnUse" color-interpolation-filters="sRGB">
<feFlood flood-opacity="0" result="BackgroundImageFix"/>
<feBlend mode="normal" in="SourceGraphic" in2="BackgroundImageFix" result="shape"/>
<feGaussianBlur stdDeviation="17" result="effect1_foregroundBlur_1470_22130"/>
</filter>
<filter id="filter8_f_1470_22130" x="21.573" y="29.7656" width="100.254" height="127.426" filterUnits="userSpaceOnUse" color-interpolation-filters="sRGB">
<feFlood flood-opacity="0" result="BackgroundImageFix"/>
<feBlend mode="normal" in="SourceGraphic" in2="BackgroundImageFix" result="shape"/>
<feGaussianBlur stdDeviation="17" result="effect1_foregroundBlur_1470_22130"/>
</filter>
<filter id="filter9_f_1470_22130" x="46.1857" y="18.6641" width="108.612" height="120.961" filterUnits="userSpaceOnUse" color-interpolation-filters="sRGB">
<feFlood flood-opacity="0" result="BackgroundImageFix"/>
<feBlend mode="normal" in="SourceGraphic" in2="BackgroundImageFix" result="shape"/>
<feGaussianBlur stdDeviation="17" result="effect1_foregroundBlur_1470_22130"/>
</filter>
<filter id="filter10_f_1470_22130" x="2.80322" y="30.4336" width="115.872" height="80.1953" filterUnits="userSpaceOnUse" color-interpolation-filters="sRGB">
<feFlood flood-opacity="0" result="BackgroundImageFix"/>
<feBlend mode="normal" in="SourceGraphic" in2="BackgroundImageFix" result="shape"/>
<feGaussianBlur stdDeviation="17.5" result="effect1_foregroundBlur_1470_22130"/>
</filter>
<filter id="filter11_f_1470_22130" x="26.8809" y="57.8008" width="67.8661" height="27.2734" filterUnits="userSpaceOnUse" color-interpolation-filters="sRGB">
<feFlood flood-opacity="0" result="BackgroundImageFix"/>
<feBlend mode="normal" in="SourceGraphic" in2="BackgroundImageFix" result="shape"/>
<feGaussianBlur stdDeviation="5.5" result="effect1_foregroundBlur_1470_22130"/>
</filter>
<filter id="filter12_f_1470_22130" x="-51.5112" y="-8.11328" width="143.88" height="112.676" filterUnits="userSpaceOnUse" color-interpolation-filters="sRGB">
<feFlood flood-opacity="0" result="BackgroundImageFix"/>
<feBlend mode="normal" in="SourceGraphic" in2="BackgroundImageFix" result="shape"/>
<feGaussianBlur stdDeviation="24.5" result="effect1_foregroundBlur_1470_22130"/>
</filter>
<filter id="filter13_f_1470_22130" x="-7.6228" y="25.0859" width="104.758" height="87.8203" filterUnits="userSpaceOnUse" color-interpolation-filters="sRGB">
<feFlood flood-opacity="0" result="BackgroundImageFix"/>
<feBlend mode="normal" in="SourceGraphic" in2="BackgroundImageFix" result="shape"/>
<feGaussianBlur stdDeviation="17" result="effect1_foregroundBlur_1470_22130"/>
</filter>
<filter id="filter14_f_1470_22130" x="-2.85449" y="25.6445" width="104.758" height="87.8203" filterUnits="userSpaceOnUse" color-interpolation-filters="sRGB">
<feFlood flood-opacity="0" result="BackgroundImageFix"/>
<feBlend mode="normal" in="SourceGraphic" in2="BackgroundImageFix" result="shape"/>
<feGaussianBlur stdDeviation="17" result="effect1_foregroundBlur_1470_22130"/>
</filter>
<filter id="filter15_f_1470_22130" x="68.8627" y="25.8164" width="31.0839" height="63.3398" filterUnits="userSpaceOnUse" color-interpolation-filters="sRGB">
<feFlood flood-opacity="0" result="BackgroundImageFix"/>
<feBlend mode="normal" in="SourceGraphic" in2="BackgroundImageFix" result="shape"/>
<feGaussianBlur stdDeviation="4" result="effect1_foregroundBlur_1470_22130"/>
</filter>
<filter id="filter16_f_1470_22130" x="-7.33655" y="24.9883" width="33.1357" height="62.6406" filterUnits="userSpaceOnUse" color-interpolation-filters="sRGB">
<feFlood flood-opacity="0" result="BackgroundImageFix"/>
<feBlend mode="normal" in="SourceGraphic" in2="BackgroundImageFix" result="shape"/>
<feGaussianBlur stdDeviation="4" result="effect1_foregroundBlur_1470_22130"/>
</filter>
<filter id="filter17_f_1470_22130" x="76.3177" y="25.7656" width="2.36194" height="2.35938" filterUnits="userSpaceOnUse" color-interpolation-filters="sRGB">
<feFlood flood-opacity="0" result="BackgroundImageFix"/>
<feBlend mode="normal" in="SourceGraphic" in2="BackgroundImageFix" result="shape"/>
<feGaussianBlur stdDeviation="0.5" result="effect1_foregroundBlur_1470_22130"/>
</filter>
<filter id="filter18_f_1470_22130" x="81.2972" y="13.875" width="2.78833" height="2.78906" filterUnits="userSpaceOnUse" color-interpolation-filters="sRGB">
<feFlood flood-opacity="0" result="BackgroundImageFix"/>
<feBlend mode="normal" in="SourceGraphic" in2="BackgroundImageFix" result="shape"/>
<feGaussianBlur stdDeviation="0.5" result="effect1_foregroundBlur_1470_22130"/>
</filter>
<filter id="filter19_f_1470_22130" x="79.7936" y="5.6875" width="2.78833" height="2.78906" filterUnits="userSpaceOnUse" color-interpolation-filters="sRGB">
<feFlood flood-opacity="0" result="BackgroundImageFix"/>
<feBlend mode="normal" in="SourceGraphic" in2="BackgroundImageFix" result="shape"/>
<feGaussianBlur stdDeviation="0.5" result="effect1_foregroundBlur_1470_22130"/>
</filter>
<filter id="filter20_f_1470_22130" x="35.8402" y="52.543" width="2.78833" height="2.78906" filterUnits="userSpaceOnUse" color-interpolation-filters="sRGB">
<feFlood flood-opacity="0" result="BackgroundImageFix"/>
<feBlend mode="normal" in="SourceGraphic" in2="BackgroundImageFix" result="shape"/>
<feGaussianBlur stdDeviation="0.5" result="effect1_foregroundBlur_1470_22130"/>
</filter>
<filter id="filter21_f_1470_22130" x="71.8228" y="52.543" width="2.78833" height="2.78906" filterUnits="userSpaceOnUse" color-interpolation-filters="sRGB">
<feFlood flood-opacity="0" result="BackgroundImageFix"/>
<feBlend mode="normal" in="SourceGraphic" in2="BackgroundImageFix" result="shape"/>
<feGaussianBlur stdDeviation="0.5" result="effect1_foregroundBlur_1470_22130"/>
</filter>
<filter id="filter22_f_1470_22130" x="12.5494" y="45.2578" width="2.78833" height="2.78906" filterUnits="userSpaceOnUse" color-interpolation-filters="sRGB">
<feFlood flood-opacity="0" result="BackgroundImageFix"/>
<feBlend mode="normal" in="SourceGraphic" in2="BackgroundImageFix" result="shape"/>
<feGaussianBlur stdDeviation="0.5" result="effect1_foregroundBlur_1470_22130"/>
</filter>
<filter id="filter23_f_1470_22130" x="68.0698" y="42.875" width="2.78833" height="2.78906" filterUnits="userSpaceOnUse" color-interpolation-filters="sRGB">
<feFlood flood-opacity="0" result="BackgroundImageFix"/>
<feBlend mode="normal" in="SourceGraphic" in2="BackgroundImageFix" result="shape"/>
<feGaussianBlur stdDeviation="0.5" result="effect1_foregroundBlur_1470_22130"/>
</filter>
<filter id="filter24_f_1470_22130" x="44.0342" y="44.5352" width="2.78833" height="2.78906" filterUnits="userSpaceOnUse" color-interpolation-filters="sRGB">
<feFlood flood-opacity="0" result="BackgroundImageFix"/>
<feBlend mode="normal" in="SourceGraphic" in2="BackgroundImageFix" result="shape"/>
<feGaussianBlur stdDeviation="0.5" result="effect1_foregroundBlur_1470_22130"/>
</filter>
<filter id="filter25_f_1470_22130" x="13.6315" y="55.3203" width="2.78833" height="2.78906" filterUnits="userSpaceOnUse" color-interpolation-filters="sRGB">
<feFlood flood-opacity="0" result="BackgroundImageFix"/>
<feBlend mode="normal" in="SourceGraphic" in2="BackgroundImageFix" result="shape"/>
<feGaussianBlur stdDeviation="0.5" result="effect1_foregroundBlur_1470_22130"/>
</filter>
<filter id="filter26_iii_1470_22130" x="18" y="9" width="49.6364" height="49.0898" filterUnits="userSpaceOnUse" color-interpolation-filters="sRGB">
<feFlood flood-opacity="0" result="BackgroundImageFix"/>
<feBlend mode="normal" in="SourceGraphic" in2="BackgroundImageFix" result="shape"/>
<feColorMatrix in="SourceAlpha" type="matrix" values="0 0 0 0 0 0 0 0 0 0 0 0 0 0 0 0 0 0 127 0" result="hardAlpha"/>
<feOffset dy="-1"/>
<feGaussianBlur stdDeviation="1.5"/>
<feComposite in2="hardAlpha" operator="arithmetic" k2="-1" k3="1"/>
<feColorMatrix type="matrix" values="0 0 0 0 1 0 0 0 0 1 0 0 0 0 1 0 0 0 0.25 0"/>
<feBlend mode="normal" in2="shape" result="effect1_innerShadow_1470_22130"/>
<feColorMatrix in="SourceAlpha" type="matrix" values="0 0 0 0 0 0 0 0 0 0 0 0 0 0 0 0 0 0 127 0" result="hardAlpha"/>
<feOffset dy="-1"/>
<feGaussianBlur stdDeviation="1.5"/>
<feComposite in2="hardAlpha" operator="arithmetic" k2="-1" k3="1"/>
<feColorMatrix type="matrix" values="0 0 0 0 1 0 0 0 0 1 0 0 0 0 1 0 0 0 1 0"/>
<feBlend mode="normal" in2="effect1_innerShadow_1470_22130" result="effect2_innerShadow_1470_22130"/>
<feColorMatrix in="SourceAlpha" type="matrix" values="0 0 0 0 0 0 0 0 0 0 0 0 0 0 0 0 0 0 127 0" result="hardAlpha"/>
<feOffset dy="-10"/>
<feGaussianBlur stdDeviation="1.5"/>
<feComposite in2="hardAlpha" operator="arithmetic" k2="-1" k3="1"/>
<feColorMatrix type="matrix" values="0 0 0 0 1 0 0 0 0 1 0 0 0 0 1 0 0 0 0.25 0"/>
<feBlend mode="normal" in2="effect2_innerShadow_1470_22130" result="effect3_innerShadow_1470_22130"/>
</filter>
<linearGradient id="paint0_linear_1470_22130" x1="46.8599" y1="80.0352" x2="46.8599" y2="94.8308" gradientUnits="userSpaceOnUse">
<stop offset="0.098092" stop-color="#D9D9D9" stop-opacity="0"/>
<stop offset="1" stop-color="#D9D9D9" stop-opacity="0.87"/>
</linearGradient>
<linearGradient id="paint1_linear_1470_22130" x1="14.0301" y1="94.8308" x2="78.5673" y2="94.8308" gradientUnits="userSpaceOnUse">
<stop offset="0.098092" stop-color="#D9D9D9" stop-opacity="0"/>
<stop offset="0.253017" stop-color="#D9D9D9" stop-opacity="0.180373"/>
<stop offset="0.38712" stop-color="#D9D9D9" stop-opacity="0.82172"/>
<stop offset="0.457557" stop-color="#D9D9D9"/>
<stop offset="0.67274" stop-color="#D9D9D9" stop-opacity="0.162646"/>
<stop offset="0.871024" stop-color="#D9D9D9" stop-opacity="0"/>
</linearGradient>
<linearGradient id="paint2_linear_1470_22130" x1="46.8599" y1="80.0352" x2="46.8599" y2="94.8308" gradientUnits="userSpaceOnUse">
<stop offset="0.098092" stop-color="#D9D9D9" stop-opacity="0"/>
<stop offset="1" stop-color="#D9D9D9" stop-opacity="0.87"/>
</linearGradient>
<radialGradient id="paint3_radial_1470_22130" cx="0" cy="0" r="1" gradientUnits="userSpaceOnUse" gradientTransform="translate(46.7181 80.1743) rotate(90) scale(13.2602 45.5969)">
<stop offset="0.664349" stop-color="white" stop-opacity="0"/>
<stop offset="1" stop-color="white"/>
</radialGradient>
<linearGradient id="paint4_linear_1470_22130" x1="46.8596" y1="62.7227" x2="46.8596" y2="89.2431" gradientUnits="userSpaceOnUse">
<stop offset="0.101307" stop-color="#226193" stop-opacity="0.109804"/>
<stop offset="1" stop-color="#226193" stop-opacity="0.756863"/>
</linearGradient>
<linearGradient id="paint5_linear_1470_22130" x1="46.8596" y1="62.4453" x2="46.8596" y2="88.9657" gradientUnits="userSpaceOnUse">
<stop offset="0.67036" stop-color="#2896FF" stop-opacity="0"/>
<stop offset="1" stop-color="#2896FF" stop-opacity="0.172549"/>
</linearGradient>
<radialGradient id="paint6_radial_1470_22130" cx="0" cy="0" r="1" gradientUnits="userSpaceOnUse" gradientTransform="translate(43.773 88.9657) rotate(90) scale(6.56031 20.2163)">
<stop stop-color="#0560EE" stop-opacity="0.376471"/>
<stop offset="1" stop-color="#0560EE" stop-opacity="0"/>
</radialGradient>
<radialGradient id="paint7_radial_1470_22130" cx="0" cy="0" r="1" gradientUnits="userSpaceOnUse" gradientTransform="translate(46.8596 88.9657) rotate(90) scale(3.34995 9.08895)">
<stop stop-color="#0560EE" stop-opacity="0.376471"/>
<stop offset="1" stop-color="#0560EE" stop-opacity="0"/>
</radialGradient>
<linearGradient id="paint8_linear_1470_22130" x1="10.9433" y1="77.5199" x2="57.6489" y2="85.5556" gradientUnits="userSpaceOnUse">
<stop stop-color="#24A4E2" stop-opacity="0"/>
<stop offset="0.407828" stop-color="#24A4E2" stop-opacity="0.580392"/>
<stop offset="0.481962" stop-color="#24A4E2" stop-opacity="0.580392"/>
<stop offset="1" stop-color="#24A4E2" stop-opacity="0"/>
</linearGradient>
<linearGradient id="paint9_linear_1470_22130" x1="-0.56543" y1="58.2577" x2="92.5926" y2="58.2577" gradientUnits="userSpaceOnUse">
<stop stop-color="#24A4E2" stop-opacity="0"/>
<stop offset="0.225624" stop-color="#0064B3" stop-opacity="0.701961"/>
<stop offset="0.515689" stop-color="#0064B3"/>
<stop offset="0.795142" stop-color="#0064B3" stop-opacity="0.858824"/>
<stop offset="1" stop-color="#83A5EC" stop-opacity="0"/>
</linearGradient>
<linearGradient id="paint10_linear_1470_22130" x1="2.52368" y1="66.9135" x2="91.1921" y2="66.9135" gradientUnits="userSpaceOnUse">
<stop stop-color="#226193" stop-opacity="0"/>
<stop offset="0.188485" stop-color="#226193" stop-opacity="0.137255"/>
<stop offset="0.503814" stop-color="#226193" stop-opacity="0.145098"/>
<stop offset="0.770759" stop-color="#226193" stop-opacity="0.5"/>
<stop offset="1" stop-color="#226193" stop-opacity="0"/>
</linearGradient>
<linearGradient id="paint11_linear_1470_22130" x1="46.8601" y1="42.9062" x2="46.8601" y2="67.7517" gradientUnits="userSpaceOnUse">
<stop offset="0.0782727" stop-opacity="0"/>
<stop offset="0.341032"/>
</linearGradient>
<linearGradient id="paint12_linear_1470_22130" x1="1.68408" y1="55.4686" x2="92.0361" y2="55.4686" gradientUnits="userSpaceOnUse">
<stop stop-color="#90DEFF" stop-opacity="0.470588"/>
<stop offset="0.113408" stop-color="#90DEFF" stop-opacity="0.368627"/>
<stop offset="0.248015" stop-color="#90DEFF" stop-opacity="0.0901961"/>
<stop offset="0.460278" stop-color="#90DEFF" stop-opacity="0.0627451"/>
<stop offset="0.58" stop-color="#90DEFF" stop-opacity="0.101961"/>
<stop offset="0.829583" stop-color="#90DEFF" stop-opacity="0.223529"/>
<stop offset="1" stop-color="#90DEFF" stop-opacity="0.356863"/>
</linearGradient>
<linearGradient id="paint13_linear_1470_22130" x1="46.8575" y1="49.8828" x2="46.8575" y2="71.6575" gradientUnits="userSpaceOnUse">
<stop stop-color="#7FBFFF" stop-opacity="0.0156863"/>
<stop offset="0.51318" stop-color="#93B5FF" stop-opacity="0.32549"/>
<stop offset="0.870161" stop-color="#92B5FF" stop-opacity="0.737255"/>
</linearGradient>
<linearGradient id="paint14_linear_1470_22130" x1="46.86" y1="49.875" x2="46.86" y2="71.6497" gradientUnits="userSpaceOnUse">
<stop stop-color="#7FBFFF" stop-opacity="0.0156863"/>
<stop offset="0.51318" stop-color="#93B5FF" stop-opacity="0.32549"/>
<stop offset="0.870161" stop-color="#92B5FF" stop-opacity="0.737255"/>
</linearGradient>
<linearGradient id="paint15_linear_1470_22130" x1="9.26013" y1="60.7623" x2="84.46" y2="60.7623" gradientUnits="userSpaceOnUse">
<stop stop-color="#90DEFF" stop-opacity="0.380392"/>
<stop offset="0.152974" stop-color="#90DEFF" stop-opacity="0.27451"/>
<stop offset="0.51318" stop-color="#ABE7F2"/>
<stop offset="0.799163" stop-color="#90DEFF" stop-opacity="0.329412"/>
<stop offset="1" stop-color="#90DEFF" stop-opacity="0.427451"/>
</linearGradient>
<linearGradient id="paint16_linear_1470_22130" x1="61.4266" y1="13.1836" x2="32.8155" y2="56.7222" gradientUnits="userSpaceOnUse">
<stop stop-color="#B6D2FF"/>
<stop offset="0.226688" stop-color="#0086C7"/>
<stop offset="0.342763" stop-color="#0086C7"/>
<stop offset="0.567708" stop-color="#0086C7"/>
<stop offset="0.591668" stop-color="#0086C7"/>
<stop offset="0.685214" stop-color="#A6C9FF"/>
<stop offset="0.745037" stop-color="#0086C7"/>
</linearGradient>
<radialGradient id="paint17_radial_1470_22130" cx="0" cy="0" r="1" gradientUnits="userSpaceOnUse" gradientTransform="translate(40.5951 34.9716) rotate(80.8597) scale(17.4296 24.833)">
<stop stop-color="#24A4E2"/>
<stop offset="1" stop-color="#24A4E2" stop-opacity="0"/>
</radialGradient>
<linearGradient id="paint18_linear_1470_22130" x1="61.4266" y1="13.1836" x2="32.8155" y2="56.7222" gradientUnits="userSpaceOnUse">
<stop stop-color="#B6D2FF"/>
<stop offset="0.226688" stop-color="#0086C7"/>
<stop offset="0.342763" stop-color="#0086C7"/>
<stop offset="0.567708" stop-color="#0086C7"/>
<stop offset="0.591668" stop-color="#0086C7"/>
<stop offset="0.685214" stop-color="#A6C9FF"/>
<stop offset="0.745037" stop-color="#0086C7"/>
</linearGradient>
<radialGradient id="paint19_radial_1470_22130" cx="0" cy="0" r="1" gradientUnits="userSpaceOnUse" gradientTransform="translate(40.5951 34.9716) rotate(80.8597) scale(17.4296 24.833)">
<stop stop-color="#24A4E2"/>
<stop offset="1" stop-color="#24A4E2" stop-opacity="0"/>
</radialGradient>
<linearGradient id="paint20_linear_1470_22130" x1="42.8182" y1="12" x2="42.8182" y2="58.0909" gradientUnits="userSpaceOnUse">
<stop stop-color="#E7EFFF"/>
<stop offset="1" stop-color="#24A4E2"/>
</linearGradient>
<linearGradient id="paint21_linear_1470_22130" x1="42.8182" y1="12" x2="42.8182" y2="58.0909" gradientUnits="userSpaceOnUse">
<stop stop-color="#E7EFFF"/>
<stop offset="1" stop-color="#24A4E2"/>
</linearGradient>
</defs>
</svg>
